  0
SECTION
  2
HEADER
  9
$ACADVER
  1
AC1021
  9
$ACADMAINTVER
 70
    25
  9
$DWGCODEPAGE
  3
ANSI_1252
  9
$INSBASE
 10
0.0
 20
0.0
 30
0.0
  9
$EXTMIN
 10
-27.21855
 20
-25.22646
 30
0.0
  9
$EXTMAX
 10
31.22646
 20
36.72428
 30
0.0
  9
$LIMMIN
 10
0.0
 20
0.0
  9
$LIMMAX
 10
12.0
 20
9.0
  9
$ORTHOMODE
 70
     0
  9
$REGENMODE
 70
     1
  9
$FILLMODE
 70
     1
  9
$QTEXTMODE
 70
     0
  9
$MIRRTEXT
 70
     1
  9
$LTSCALE
 40
1.0
  9
$ATTMODE
 70
     1
  9
$TEXTSIZE
 40
0.2
  9
$TRACEWID
 40
0.05
  9
$TEXTSTYLE
  7
Standard
  9
$CLAYER
  8
0
  9
$CELTYPE
  6
ByLayer
  9
$CECOLOR
 62
   256
  9
$CELTSCALE
 40
1.0
  9
$DISPSILH
 70
     0
  9
$DIMSCALE
 40
1.0
  9
$DIMASZ
 40
0.18
  9
$DIMEXO
 40
0.0625
  9
$DIMDLI
 40
0.38
  9
$DIMRND
 40
0.0
  9
$DIMDLE
 40
0.0
  9
$DIMEXE
 40
0.18
  9
$DIMTP
 40
0.0
  9
$DIMTM
 40
0.0
  9
$DIMTXT
 40
0.18
  9
$DIMCEN
 40
0.09
  9
$DIMTSZ
 40
0.0
  9
$DIMTOL
 70
     0
  9
$DIMLIM
 70
     0
  9
$DIMTIH
 70
     1
  9
$DIMTOH
 70
     1
  9
$DIMSE1
 70
     0
  9
$DIMSE2
 70
     0
  9
$DIMTAD
 70
     0
  9
$DIMZIN
 70
     0
  9
$DIMBLK
  1

  9
$DIMASO
 70
     1
  9
$DIMSHO
 70
     1
  9
$DIMPOST
  1

  9
$DIMAPOST
  1

  9
$DIMALT
 70
     0
  9
$DIMALTD
 70
     2
  9
$DIMALTF
 40
25.4
  9
$DIMLFAC
 40
1.0
  9
$DIMTOFL
 70
     0
  9
$DIMTVP
 40
0.0
  9
$DIMTIX
 70
     0
  9
$DIMSOXD
 70
     0
  9
$DIMSAH
 70
     0
  9
$DIMBLK1
  1

  9
$DIMBLK2
  1

  9
$DIMSTYLE
  2
Standard
  9
$DIMCLRD
 70
     0
  9
$DIMCLRE
 70
     0
  9
$DIMCLRT
 70
     0
  9
$DIMTFAC
 40
1.0
  9
$DIMGAP
 40
0.09
  9
$DIMJUST
 70
     0
  9
$DIMSD1
 70
     0
  9
$DIMSD2
 70
     0
  9
$DIMTOLJ
 70
     1
  9
$DIMTZIN
 70
     0
  9
$DIMALTZ
 70
     0
  9
$DIMALTTZ
 70
     0
  9
$DIMUPT
 70
     0
  9
$DIMDEC
 70
     4
  9
$DIMTDEC
 70
     4
  9
$DIMALTU
 70
     2
  9
$DIMALTTD
 70
     2
  9
$DIMTXSTY
  7
Standard
  9
$DIMAUNIT
 70
     0
  9
$DIMADEC
 70
     0
  9
$DIMALTRND
 40
0.0
  9
$DIMAZIN
 70
     0
  9
$DIMDSEP
 70
    46
  9
$DIMATFIT
 70
     3
  9
$DIMFRAC
 70
     0
  9
$DIMLDRBLK
  1

  9
$DIMLUNIT
 70
     2
  9
$DIMLWD
 70
    -2
  9
$DIMLWE
 70
    -2
  9
$DIMTMOVE
 70
     0
  9
$DIMFXL
 40
1.0
  9
$DIMFXLON
 70
     0
  9
$DIMJOGANG
 40
0.7853981633974483
  9
$DIMTFILL
 70
     0
  9
$DIMTFILLCLR
 70
     0
  9
$DIMARCSYM
 70
     0
  9
$DIMLTYPE
  6

  9
$DIMLTEX1
  6

  9
$DIMLTEX2
  6

  9
$LUNITS
 70
     2
  9
$LUPREC
 70
     4
  9
$SKETCHINC
 40
0.1
  9
$FILLETRAD
 40
0.5
  9
$AUNITS
 70
     0
  9
$AUPREC
 70
     0
  9
$MENU
  1
.
  9
$ELEVATION
 40
0.0
  9
$PELEVATION
 40
0.0
  9
$THICKNESS
 40
0.0
  9
$LIMCHECK
 70
     0
  9
$CHAMFERA
 40
0.5
  9
$CHAMFERB
 40
0.5
  9
$CHAMFERC
 40
1.0
  9
$CHAMFERD
 40
0.0
  9
$SKPOLY
 70
     0
  9
$TDCREATE
 40
2460262.71070184
  9
$TDUCREATE
 40
2460262.71070184
  9
$TDUPDATE
 40
2460262.710702106
  9
$TDUUPDATE
 40
2460262.710702106
  9
$TDINDWG
 40
0.0000000116
  9
$TDUSRTIMER
 40
0.0000000116
  9
$USRTIMER
 70
     1
  9
$ANGBASE
 50
0.0
  9
$ANGDIR
 70
     0
  9
$PDMODE
 70
     0
  9
$PDSIZE
 40
0.0
  9
$PLINEWID
 40
0.0
  9
$SPLFRAME
 70
     0
  9
$SPLINETYPE
 70
     6
  9
$SPLINESEGS
 70
     8
  9
$HANDSEED
  5
CC
  9
$SURFTAB1
 70
     6
  9
$SURFTAB2
 70
     6
  9
$SURFTYPE
 70
     6
  9
$SURFU
 70
     6
  9
$SURFV
 70
     6
  9
$UCSBASE
  2

  9
$UCSNAME
  2

  9
$UCSORG
 10
0.0
 20
0.0
 30
0.0
  9
$UCSXDIR
 10
1.0
 20
0.0
 30
0.0
  9
$UCSYDIR
 10
0.0
 20
1.0
 30
0.0
  9
$UCSORTHOREF
  2

  9
$UCSORTHOVIEW
 70
     0
  9
$UCSORGTOP
 10
0.0
 20
0.0
 30
0.0
  9
$UCSORGBOTTOM
 10
0.0
 20
0.0
 30
0.0
  9
$UCSORGLEFT
 10
0.0
 20
0.0
 30
0.0
  9
$UCSORGRIGHT
 10
0.0
 20
0.0
 30
0.0
  9
$UCSORGFRONT
 10
0.0
 20
0.0
 30
0.0
  9
$UCSORGBACK
 10
0.0
 20
0.0
 30
0.0
  9
$PUCSBASE
  2

  9
$PUCSNAME
  2

  9
$PUCSORG
 10
0.0
 20
0.0
 30
0.0
  9
$PUCSXDIR
 10
1.0
 20
0.0
 30
0.0
  9
$PUCSYDIR
 10
0.0
 20
1.0
 30
0.0
  9
$PUCSORTHOREF
  2

  9
$PUCSORTHOVIEW
 70
     0
  9
$PUCSORGTOP
 10
0.0
 20
0.0
 30
0.0
  9
$PUCSORGBOTTOM
 10
0.0
 20
0.0
 30
0.0
  9
$PUCSORGLEFT
 10
0.0
 20
0.0
 30
0.0
  9
$PUCSORGRIGHT
 10
0.0
 20
0.0
 30
0.0
  9
$PUCSORGFRONT
 10
0.0
 20
0.0
 30
0.0
  9
$PUCSORGBACK
 10
0.0
 20
0.0
 30
0.0
  9
$USERI1
 70
     0
  9
$USERI2
 70
     0
  9
$USERI3
 70
     0
  9
$USERI4
 70
     0
  9
$USERI5
 70
     0
  9
$USERR1
 40
0.0
  9
$USERR2
 40
0.0
  9
$USERR3
 40
0.0
  9
$USERR4
 40
0.0
  9
$USERR5
 40
0.0
  9
$WORLDVIEW
 70
     1
  9
$SHADEDGE
 70
     3
  9
$SHADEDIF
 70
    70
  9
$TILEMODE
 70
     1
  9
$MAXACTVP
 70
    64
  9
$PINSBASE
 10
0.0
 20
0.0
 30
0.0
  9
$PLIMCHECK
 70
     0
  9
$PEXTMIN
 10
1.000000000000000E+20
 20
1.000000000000000E+20
 30
1.000000000000000E+20
  9
$PEXTMAX
 10
-1.000000000000000E+20
 20
-1.000000000000000E+20
 30
-1.000000000000000E+20
  9
$PLIMMIN
 10
0.0
 20
0.0
  9
$PLIMMAX
 10
12.0
 20
9.0
  9
$UNITMODE
 70
     0
  9
$VISRETAIN
 70
     1
  9
$PLINEGEN
 70
     0
  9
$PSLTSCALE
 70
     1
  9
$TREEDEPTH
 70
  3020
  9
$CMLSTYLE
  2
Standard
  9
$CMLJUST
 70
     0
  9
$CMLSCALE
 40
1.0
  9
$PROXYGRAPHICS
 70
     1
  9
$MEASUREMENT
 70
     0
  9
$CELWEIGHT
370
    -1
  9
$ENDCAPS
280
     0
  9
$JOINSTYLE
280
     0
  9
$LWDISPLAY
290
     0
  9
$INSUNITS
 70
     5
  9
$HYPERLINKBASE
  1

  9
$STYLESHEET
  1

  9
$XEDIT
290
     1
  9
$CEPSNTYPE
380
     0
  9
$PSTYLEMODE
290
     1
  9
$FINGERPRINTGUID
  2
{888E72C0-817A-42E5-8E7D-C99A74D9B57A}
  9
$VERSIONGUID
  2
{FAEB1C32-E019-11D5-929B-00C0DF256EC4}
  9
$EXTNAMES
290
     1
  9
$PSVPSCALE
 40
0.0
  9
$OLESTARTUP
290
     0
  9
$SORTENTS
280
   127
  9
$INDEXCTL
280
     0
  9
$HIDETEXT
280
     1
  9
$XCLIPFRAME
290
     0
  9
$HALOGAP
280
     0
  9
$OBSCOLOR
 70
   257
  9
$OBSLTYPE
280
     0
  9
$INTERSECTIONDISPLAY
280
     0
  9
$INTERSECTIONCOLOR
 70
   257
  9
$DIMASSOC
280
     2
  9
$PROJECTNAME
  1

  9
$CAMERADISPLAY
290
     0
  9
$LENSLENGTH
 40
50.0
  9
$CAMERAHEIGHT
 40
0.0
  9
$STEPSPERSEC
 40
2.0
  9
$STEPSIZE
 40
6.0
  9
$3DDWFPREC
 40
2.0
  9
$PSOLWIDTH
 40
0.25
  9
$PSOLHEIGHT
 40
4.0
  9
$LOFTANG1
 40
1.570796326794897
  9
$LOFTANG2
 40
1.570796326794897
  9
$LOFTMAG1
 40
0.0
  9
$LOFTMAG2
 40
0.0
  9
$LOFTPARAM
 70
     7
  9
$LOFTNORMALS
280
     1
  9
$LATITUDE
 40
37.795
  9
$LONGITUDE
 40
-122.394
  9
$NORTHDIRECTION
 40
0.0
  9
$TIMEZONE
 70
 -8000
  9
$LIGHTGLYPHDISPLAY
280
     1
  9
$TILEMODELIGHTSYNCH
280
     1
  9
$SOLIDHIST
280
     1
  9
$SHOWHIST
280
     1
  9
$DWFFRAME
280
     2
  9
$DGNFRAME
280
     2
  9
$REALWORLDSCALE
290
     1
  9
$INTERFERECOLOR
 62
   256
  9
$CSHADOW
280
     0
  9
$SHADOWPLANELOCATION
 40
0.0
  0
ENDSEC
  0
SECTION
  2
CLASSES
  0
CLASS
  1
ACDBDICTIONARYWDFLT
  2
AcDbDictionaryWithDefault
  3
ObjectDBX Classes
 90
        0
 91
        4
280
     0
281
     0
  0
CLASS
  1
VISUALSTYLE
  2
AcDbVisualStyle
  3
ObjectDBX Classes
 90
     4095
 91
        4
280
     0
281
     0
  0
CLASS
  1
MATERIAL
  2
AcDbMaterial
  3
ObjectDBX Classes
 90
     1153
 91
        4
280
     0
281
     0
  0
ENDSEC
  0
SECTION
  2
TABLES
  0
TABLE
  2
VPORT
  5
8
330
0
100
AcDbSymbolTable
 70
     1
  0
VPORT
  5
29
330
8
100
AcDbSymbolTableRecord
100
AcDbViewportTableRecord
  2
*Active
 70
     0
 10
0.0
 20
0.0
 11
1.0
 21
1.0
 12
10.42990654205607
 22
4.5
 13
0.0
 23
0.0
 14
0.5
 24
0.5
 15
0.5
 25
0.5
 16
0.0
 26
0.0
 36
1.0
 17
0.0
 27
0.0
 37
0.0
 40
9.0
 41
1.972972972850329
 42
50.0
 43
0.0
 44
0.0
 50
0.0
 51
0.0
 71
     0
 72
   100
 73
     1
 74
     3
 75
     0
 76
     0
 77
     0
 78
     0
281
     0
 65
     1
110
0.0
120
0.0
130
0.0
111
1.0
121
0.0
131
0.0
112
0.0
122
1.0
132
0.0
 79
     0
146
0.0
 60
     3
 61
     5
292
     1
282
     1
141
0.0
142
0.0
 63
   250
  0
ENDTAB
  0
TABLE
  2
LTYPE
  5
5
330
0
100
AcDbSymbolTable
 70
     1
  0
LTYPE
  5
14
330
5
100
AcDbSymbolTableRecord
100
AcDbLinetypeTableRecord
  2
ByBlock
 70
     0
  3

 72
    65
 73
     0
 40
0.0
  0
LTYPE
  5
15
330
5
100
AcDbSymbolTableRecord
100
AcDbLinetypeTableRecord
  2
ByLayer
 70
     0
  3

 72
    65
 73
     0
 40
0.0
  0
LTYPE
  5
16
330
5
100
AcDbSymbolTableRecord
100
AcDbLinetypeTableRecord
  2
Continuous
 70
     0
  3
Solid line
 72
    65
 73
     0
 40
0.0
  0
ENDTAB
  0
TABLE
  2
LAYER
  5
2
330
0
100
AcDbSymbolTable
 70
     2
  0
LAYER
  5
10
330
2
100
AcDbSymbolTableRecord
100
AcDbLayerTableRecord
  2
0
 70
     0
 62
     7
  6
Continuous
370
    -3
390
F
347
3E
  0
LAYER
  5
40
330
2
100
AcDbSymbolTableRecord
100
AcDbLayerTableRecord
  2
Layer 1
 70
     0
 62
     7
  6
Continuous
370
    -3
390
F
347
3E
  0
ENDTAB
  0
TABLE
  2
STYLE
  5
3
330
0
100
AcDbSymbolTable
 70
     1
  0
STYLE
  5
11
330
3
100
AcDbSymbolTableRecord
100
AcDbTextStyleTableRecord
  2
Standard
 70
     0
 40
0.0
 41
1.0
 50
0.0
 71
     0
 42
0.2
  3
txt
  4

  0
ENDTAB
  0
TABLE
  2
VIEW
  5
6
330
0
100
AcDbSymbolTable
 70
     0
  0
ENDTAB
  0
TABLE
  2
UCS
  5
7
330
0
100
AcDbSymbolTable
 70
     0
  0
ENDTAB
  0
TABLE
  2
APPID
  5
9
330
0
100
AcDbSymbolTable
 70
     2
  0
APPID
  5
12
330
9
100
AcDbSymbolTableRecord
100
AcDbRegAppTableRecord
  2
ACAD
 70
     0
  0
APPID
  5
3F
330
9
100
AcDbSymbolTableRecord
100
AcDbRegAppTableRecord
  2
ODA
 70
     0
  0
ENDTAB
  0
TABLE
  2
DIMSTYLE
  5
A
330
0
100
AcDbSymbolTable
 70
     1
100
AcDbDimStyleTable
  0
DIMSTYLE
105
27
330
A
100
AcDbSymbolTableRecord
100
AcDbDimStyleTableRecord
  2
Standard
 70
     0
178
     0
340
11
  0
ENDTAB
  0
TABLE
  2
BLOCK_RECORD
  5
1
330
0
100
AcDbSymbolTable
 70
     1
  0
BLOCK_RECORD
  5
1F
330
1
100
AcDbSymbolTableRecord
100
AcDbBlockTableRecord
  2
*Model_Space
340
22
 70
     0
280
     1
281
     0
  0
BLOCK_RECORD
  5
1B
330
1
100
AcDbSymbolTableRecord
100
AcDbBlockTableRecord
  2
*Paper_Space
340
1E
 70
     0
280
     1
281
     0
  0
BLOCK_RECORD
  5
23
330
1
100
AcDbSymbolTableRecord
100
AcDbBlockTableRecord
  2
*Paper_Space0
340
26
 70
     0
280
     1
281
     0
  0
ENDTAB
  0
ENDSEC
  0
SECTION
  2
BLOCKS
  0
BLOCK
  5
20
330
1F
100
AcDbEntity
  8
0
100
AcDbBlockBegin
  2
*Model_Space
 70
     0
 10
0.0
 20
0.0
 30
0.0
  3
*Model_Space
  1

  0
ENDBLK
  5
21
330
1F
100
AcDbEntity
  8
0
100
AcDbBlockEnd
  0
BLOCK
  5
1C
330
1B
100
AcDbEntity
 67
     1
  8
0
100
AcDbBlockBegin
  2
*Paper_Space
 70
     0
 10
0.0
 20
0.0
 30
0.0
  3
*Paper_Space
  1

  0
ENDBLK
  5
1D
330
1B
100
AcDbEntity
 67
     1
  8
0
100
AcDbBlockEnd
  0
BLOCK
  5
24
330
23
100
AcDbEntity
  8
0
100
AcDbBlockBegin
  2
*Paper_Space0
 70
     0
 10
0.0
 20
0.0
 30
0.0
  3
*Paper_Space0
  1

  0
ENDBLK
  5
25
330
23
100
AcDbEntity
  8
0
100
AcDbBlockEnd
  0
ENDSEC
  0
SECTION
  2
ENTITIES
  0
SPLINE
  5
41
330
1F
100
AcDbEntity
  8
Layer 1
370
    53
100
AcDbSpline
210
0.0
220
0.0
230
1.0
 70
    11
 71
     3
 72
    36
 73
    32
 74
     0
 42
0.0000000001
 43
0.0000000001
 12
1.0
 22
0.0
 32
0.0
 13
1.0
 23
0.0
 33
0.0
 40
0.0
 40
0.0
 40
0.0
 40
0.0
 40
0.1111111111111111
 40
0.1111111111111111
 40
0.1111111111111111
 40
0.1111111111111111
 40
0.2222222222222222
 40
0.2222222222222222
 40
0.2222222222222222
 40
0.2222222222222222
 40
0.3333333333333333
 40
0.3333333333333333
 40
0.3333333333333333
 40
0.3333333333333333
 40
0.4444444444444444
 40
0.4444444444444444
 40
0.4444444444444444
 40
0.4444444444444444
 40
0.5555555555555556
 40
0.5555555555555556
 40
0.5555555555555556
 40
0.5555555555555556
 40
0.6666666666666666
 40
0.6666666666666666
 40
0.6666666666666666
 40
0.6666666666666666
 40
0.7777777777777778
 40
0.7777777777777778
 40
0.7777777777777778
 40
0.7777777777777778
 40
1.0
 40
1.0
 40
1.0
 40
1.0
 10
26.8
 20
-24.7
 30
0.0
 10
26.8
 20
-24.7
 30
0.0
 10
26.8
 20
-21.3
 30
0.0
 10
26.8
 20
-21.3
 30
0.0
 10
26.8
 20
-21.3
 30
0.0
 10
26.8
 20
-21.02386
 30
0.0
 10
27.02386
 20
-20.8
 30
0.0
 10
27.3
 20
-20.8
 30
0.0
 10
27.3
 20
-20.8
 30
0.0
 10
27.3
 20
-20.8
 30
0.0
 10
30.7
 20
-20.8
 30
0.0
 10
30.7
 20
-20.8
 30
0.0
 10
30.7
 20
-20.8
 30
0.0
 10
30.97614
 20
-20.8
 30
0.0
 10
31.2
 20
-21.02386
 30
0.0
 10
31.2
 20
-21.3
 30
0.0
 10
31.2
 20
-21.3
 30
0.0
 10
31.2
 20
-21.3
 30
0.0
 10
31.2
 20
-24.7
 30
0.0
 10
31.2
 20
-24.7
 30
0.0
 10
31.2
 20
-24.7
 30
0.0
 10
31.2
 20
-24.97614
 30
0.0
 10
30.97614
 20
-25.2
 30
0.0
 10
30.7
 20
-25.2
 30
0.0
 10
30.7
 20
-25.2
 30
0.0
 10
30.7
 20
-25.2
 30
0.0
 10
27.3
 20
-25.2
 30
0.0
 10
27.3
 20
-25.2
 30
0.0
 10
27.3
 20
-25.2
 30
0.0
 10
27.02386
 20
-25.2
 30
0.0
 10
26.8
 20
-24.97614
 30
0.0
 10
26.8
 20
-24.7
 30
0.0
  0
ELLIPSE
  5
42
330
1F
100
AcDbEntity
  8
Layer 1
370
    53
100
AcDbEllipse
 10
29.00001
 20
-23.00001
 30
0.0
 11
0.0
 21
0.30001
 31
0.0
210
0.0
220
0.0
230
1.0
 40
1.0
 41
0.0
 42
6.283185307179586
  0
ELLIPSE
  5
43
330
1F
100
AcDbEntity
  8
Layer 1
370
    53
100
AcDbEllipse
 10
29.00001
 20
-21.50001
 30
0.0
 11
0.0
 21
0.30001
 31
0.0
210
0.0
220
0.0
230
1.0
 40
1.0
 41
0.0
 42
6.283185307179586
  0
ELLIPSE
  5
44
330
1F
100
AcDbEntity
  8
Layer 1
370
    53
100
AcDbEllipse
 10
29.00001
 20
-24.50001
 30
0.0
 11
0.0
 21
0.30001
 31
0.0
210
0.0
220
0.0
230
1.0
 40
1.0
 41
0.0
 42
6.283185307179586
  0
ELLIPSE
  5
45
330
1F
100
AcDbEntity
  8
Layer 1
370
    53
100
AcDbEllipse
 10
27.50001
 20
-23.00001
 30
0.0
 11
0.0
 21
0.30001
 31
0.0
210
0.0
220
0.0
230
1.0
 40
1.0
 41
0.0
 42
6.283185307179586
  0
ELLIPSE
  5
46
330
1F
100
AcDbEntity
  8
Layer 1
370
    53
100
AcDbEllipse
 10
27.50001
 20
-21.50001
 30
0.0
 11
0.0
 21
0.30001
 31
0.0
210
0.0
220
0.0
230
1.0
 40
1.0
 41
0.0
 42
6.283185307179586
  0
ELLIPSE
  5
47
330
1F
100
AcDbEntity
  8
Layer 1
370
    53
100
AcDbEllipse
 10
27.50001
 20
-24.50001
 30
0.0
 11
0.0
 21
0.30001
 31
0.0
210
0.0
220
0.0
230
1.0
 40
1.0
 41
0.0
 42
6.283185307179586
  0
ELLIPSE
  5
48
330
1F
100
AcDbEntity
  8
Layer 1
370
    53
100
AcDbEllipse
 10
30.50001
 20
-23.00001
 30
0.0
 11
0.0
 21
0.30001
 31
0.0
210
0.0
220
0.0
230
1.0
 40
1.0
 41
0.0
 42
6.283185307179586
  0
ELLIPSE
  5
49
330
1F
100
AcDbEntity
  8
Layer 1
370
    53
100
AcDbEllipse
 10
30.50001
 20
-21.50001
 30
0.0
 11
0.0
 21
0.30001
 31
0.0
210
0.0
220
0.0
230
1.0
 40
1.0
 41
0.0
 42
6.283185307179586
  0
ELLIPSE
  5
4A
330
1F
100
AcDbEntity
  8
Layer 1
370
    53
100
AcDbEllipse
 10
30.50001
 20
-24.50001
 30
0.0
 11
0.0
 21
0.30001
 31
0.0
210
0.0
220
0.0
230
1.0
 40
1.0
 41
0.0
 42
6.283185307179586
  0
ELLIPSE
  5
4B
330
1F
100
AcDbEntity
  8
Layer 1
370
    53
100
AcDbEllipse
 10
28.25
 20
-24.5
 30
0.0
 11
0.0
 21
0.15
 31
0.0
210
0.0
220
0.0
230
1.0
 40
1.0
 41
0.0
 42
6.283185307179586
  0
ELLIPSE
  5
4C
330
1F
100
AcDbEntity
  8
Layer 1
370
    53
100
AcDbEllipse
 10
29.75
 20
-24.5
 30
0.0
 11
0.0
 21
0.15
 31
0.0
210
0.0
220
0.0
230
1.0
 40
1.0
 41
0.0
 42
6.283185307179586
  0
ELLIPSE
  5
4D
330
1F
100
AcDbEntity
  8
Layer 1
370
    53
100
AcDbEllipse
 10
28.25
 20
-23.0
 30
0.0
 11
0.0
 21
0.15
 31
0.0
210
0.0
220
0.0
230
1.0
 40
1.0
 41
0.0
 42
6.283185307179586
  0
ELLIPSE
  5
4E
330
1F
100
AcDbEntity
  8
Layer 1
370
    53
100
AcDbEllipse
 10
29.75
 20
-23.0
 30
0.0
 11
0.0
 21
0.15
 31
0.0
210
0.0
220
0.0
230
1.0
 40
1.0
 41
0.0
 42
6.283185307179586
  0
ELLIPSE
  5
4F
330
1F
100
AcDbEntity
  8
Layer 1
370
    53
100
AcDbEllipse
 10
28.25
 20
-21.5
 30
0.0
 11
0.0
 21
0.15
 31
0.0
210
0.0
220
0.0
230
1.0
 40
1.0
 41
0.0
 42
6.283185307179586
  0
ELLIPSE
  5
50
330
1F
100
AcDbEntity
  8
Layer 1
370
    53
100
AcDbEllipse
 10
29.75
 20
-21.5
 30
0.0
 11
0.0
 21
0.15
 31
0.0
210
0.0
220
0.0
230
1.0
 40
1.0
 41
0.0
 42
6.283185307179586
  0
ELLIPSE
  5
51
330
1F
100
AcDbEntity
  8
Layer 1
370
    53
100
AcDbEllipse
 10
27.5
 20
-23.75
 30
0.0
 11
0.0
 21
0.15
 31
0.0
210
0.0
220
0.0
230
1.0
 40
1.0
 41
0.0
 42
6.283185307179586
  0
ELLIPSE
  5
52
330
1F
100
AcDbEntity
  8
Layer 1
370
    53
100
AcDbEllipse
 10
29.0
 20
-23.75
 30
0.0
 11
0.0
 21
0.15
 31
0.0
210
0.0
220
0.0
230
1.0
 40
1.0
 41
0.0
 42
6.283185307179586
  0
ELLIPSE
  5
53
330
1F
100
AcDbEntity
  8
Layer 1
370
    53
100
AcDbEllipse
 10
30.5
 20
-23.75
 30
0.0
 11
0.0
 21
0.15
 31
0.0
210
0.0
220
0.0
230
1.0
 40
1.0
 41
0.0
 42
6.283185307179586
  0
ELLIPSE
  5
54
330
1F
100
AcDbEntity
  8
Layer 1
370
    53
100
AcDbEllipse
 10
27.5
 20
-22.25
 30
0.0
 11
0.0
 21
0.15
 31
0.0
210
0.0
220
0.0
230
1.0
 40
1.0
 41
0.0
 42
6.283185307179586
  0
ELLIPSE
  5
55
330
1F
100
AcDbEntity
  8
Layer 1
370
    53
100
AcDbEllipse
 10
29.0
 20
-22.25
 30
0.0
 11
0.0
 21
0.15
 31
0.0
210
0.0
220
0.0
230
1.0
 40
1.0
 41
0.0
 42
6.283185307179586
  0
ELLIPSE
  5
56
330
1F
100
AcDbEntity
  8
Layer 1
370
    53
100
AcDbEllipse
 10
30.5
 20
-22.25
 30
0.0
 11
0.0
 21
0.15
 31
0.0
210
0.0
220
0.0
230
1.0
 40
1.0
 41
0.0
 42
6.283185307179586
  0
SPLINE
  5
57
330
1F
100
AcDbEntity
  8
Layer 1
100
AcDbSpline
210
0.0
220
0.0
230
1.0
 70
    11
 71
     3
 72
    36
 73
    32
 74
     0
 42
0.0000000001
 43
0.0000000001
 12
1.0
 22
0.0
 32
0.0
 13
1.0
 23
0.0
 33
0.0
 40
0.0
 40
0.0
 40
0.0
 40
0.0
 40
0.1111111111111111
 40
0.1111111111111111
 40
0.1111111111111111
 40
0.1111111111111111
 40
0.2222222222222222
 40
0.2222222222222222
 40
0.2222222222222222
 40
0.2222222222222222
 40
0.3333333333333333
 40
0.3333333333333333
 40
0.3333333333333333
 40
0.3333333333333333
 40
0.4444444444444444
 40
0.4444444444444444
 40
0.4444444444444444
 40
0.4444444444444444
 40
0.5555555555555556
 40
0.5555555555555556
 40
0.5555555555555556
 40
0.5555555555555556
 40
0.6666666666666666
 40
0.6666666666666666
 40
0.6666666666666666
 40
0.6666666666666666
 40
0.7777777777777778
 40
0.7777777777777778
 40
0.7777777777777778
 40
0.7777777777777778
 40
1.0
 40
1.0
 40
1.0
 40
1.0
 10
-26.57593
 20
34.73546
 30
0.0
 10
-26.77363
 20
34.73546
 30
0.0
 10
-26.93026
 20
34.79854
 30
0.0
 10
-27.04541
 20
34.92469
 30
0.0
 10
-27.04541
 20
34.92469
 30
0.0
 10
-27.16098
 20
35.05084
 30
0.0
 10
-27.21855
 20
35.22229
 30
0.0
 10
-27.21855
 20
35.43862
 30
0.0
 10
-27.21855
 20
35.43862
 30
0.0
 10
-27.21855
 20
35.65452
 30
0.0
 10
-27.16098
 20
35.82554
 30
0.0
 10
-27.04541
 20
35.95127
 30
0.0
 10
-27.04541
 20
35.95127
 30
0.0
 10
-26.93026
 20
36.077
 30
0.0
 10
-26.77363
 20
36.14008
 30
0.0
 10
-26.57593
 20
36.14008
 30
0.0
 10
-26.57593
 20
36.14008
 30
0.0
 10
-26.37823
 20
36.14008
 30
0.0
 10
-26.2216
 20
36.077
 30
0.0
 10
-26.10645
 20
35.95127
 30
0.0
 10
-26.10645
 20
35.95127
 30
0.0
 10
-25.99088
 20
35.82554
 30
0.0
 10
-25.93331
 20
35.65452
 30
0.0
 10
-25.93331
 20
35.43862
 30
0.0
 10
-25.93331
 20
35.43862
 30
0.0
 10
-25.93331
 20
35.22229
 30
0.0
 10
-25.99088
 20
35.05084
 30
0.0
 10
-26.10645
 20
34.92469
 30
0.0
 10
-26.10645
 20
34.92469
 30
0.0
 10
-26.2216
 20
34.79854
 30
0.0
 10
-26.37823
 20
34.73546
 30
0.0
 10
-26.57593
 20
34.73546
 30
0.0
  0
SPLINE
  5
58
330
1F
100
AcDbEntity
  8
Layer 1
100
AcDbSpline
210
0.0
220
0.0
230
1.0
 70
    11
 71
     3
 72
    36
 73
    32
 74
     0
 42
0.0000000001
 43
0.0000000001
 12
1.0
 22
0.0
 32
0.0
 13
1.0
 23
0.0
 33
0.0
 40
0.0
 40
0.0
 40
0.0
 40
0.0
 40
0.1111111111111111
 40
0.1111111111111111
 40
0.1111111111111111
 40
0.1111111111111111
 40
0.2222222222222222
 40
0.2222222222222222
 40
0.2222222222222222
 40
0.2222222222222222
 40
0.3333333333333333
 40
0.3333333333333333
 40
0.3333333333333333
 40
0.3333333333333333
 40
0.4444444444444444
 40
0.4444444444444444
 40
0.4444444444444444
 40
0.4444444444444444
 40
0.5555555555555556
 40
0.5555555555555556
 40
0.5555555555555556
 40
0.5555555555555556
 40
0.6666666666666666
 40
0.6666666666666666
 40
0.6666666666666666
 40
0.6666666666666666
 40
0.7777777777777778
 40
0.7777777777777778
 40
0.7777777777777778
 40
0.7777777777777778
 40
1.0
 40
1.0
 40
1.0
 40
1.0
 10
-26.57635
 20
34.91834
 30
0.0
 10
-26.4557
 20
34.91834
 30
0.0
 10
-26.36172
 20
34.96364
 30
0.0
 10
-26.29484
 20
35.05465
 30
0.0
 10
-26.29484
 20
35.05465
 30
0.0
 10
-26.22837
 20
35.14525
 30
0.0
 10
-26.19493
 20
35.27352
 30
0.0
 10
-26.19493
 20
35.43862
 30
0.0
 10
-26.19493
 20
35.43862
 30
0.0
 10
-26.19493
 20
35.60329
 30
0.0
 10
-26.22837
 20
35.73114
 30
0.0
 10
-26.29484
 20
35.82173
 30
0.0
 10
-26.29484
 20
35.82173
 30
0.0
 10
-26.36172
 20
35.9119
 30
0.0
 10
-26.4557
 20
35.9572
 30
0.0
 10
-26.57635
 20
35.9572
 30
0.0
 10
-26.57635
 20
35.9572
 30
0.0
 10
-26.69743
 20
35.9572
 30
0.0
 10
-26.79141
 20
35.9119
 30
0.0
 10
-26.85745
 20
35.82173
 30
0.0
 10
-26.85745
 20
35.82173
 30
0.0
 10
-26.92391
 20
35.73114
 30
0.0
 10
-26.95693
 20
35.60329
 30
0.0
 10
-26.95693
 20
35.43862
 30
0.0
 10
-26.95693
 20
35.43862
 30
0.0
 10
-26.95693
 20
35.27352
 30
0.0
 10
-26.92391
 20
35.14525
 30
0.0
 10
-26.85745
 20
35.05465
 30
0.0
 10
-26.85745
 20
35.05465
 30
0.0
 10
-26.79141
 20
34.96364
 30
0.0
 10
-26.69743
 20
34.91834
 30
0.0
 10
-26.57635
 20
34.91834
 30
0.0
  0
SPLINE
  5
59
330
1F
100
AcDbEntity
  8
Layer 1
100
AcDbSpline
210
0.0
220
0.0
230
1.0
 70
    11
 71
     3
 72
    36
 73
    32
 74
     0
 42
0.0000000001
 43
0.0000000001
 12
1.0
 22
0.0
 32
0.0
 13
1.0
 23
0.0
 33
0.0
 40
0.0
 40
0.0
 40
0.0
 40
0.0
 40
0.1111111111111111
 40
0.1111111111111111
 40
0.1111111111111111
 40
0.1111111111111111
 40
0.2222222222222222
 40
0.2222222222222222
 40
0.2222222222222222
 40
0.2222222222222222
 40
0.3333333333333333
 40
0.3333333333333333
 40
0.3333333333333333
 40
0.3333333333333333
 40
0.4444444444444444
 40
0.4444444444444444
 40
0.4444444444444444
 40
0.4444444444444444
 40
0.5555555555555556
 40
0.5555555555555556
 40
0.5555555555555556
 40
0.5555555555555556
 40
0.6666666666666666
 40
0.6666666666666666
 40
0.6666666666666666
 40
0.6666666666666666
 40
0.7777777777777778
 40
0.7777777777777778
 40
0.7777777777777778
 40
0.7777777777777778
 40
1.0
 40
1.0
 40
1.0
 40
1.0
 10
-25.01552
 20
34.73546
 30
0.0
 10
-25.21322
 20
34.73546
 30
0.0
 10
-25.36985
 20
34.79854
 30
0.0
 10
-25.485
 20
34.92469
 30
0.0
 10
-25.485
 20
34.92469
 30
0.0
 10
-25.60057
 20
35.05084
 30
0.0
 10
-25.65814
 20
35.22229
 30
0.0
 10
-25.65814
 20
35.43862
 30
0.0
 10
-25.65814
 20
35.43862
 30
0.0
 10
-25.65814
 20
35.65452
 30
0.0
 10
-25.60057
 20
35.82554
 30
0.0
 10
-25.485
 20
35.95127
 30
0.0
 10
-25.485
 20
35.95127
 30
0.0
 10
-25.36985
 20
36.077
 30
0.0
 10
-25.21322
 20
36.14008
 30
0.0
 10
-25.01552
 20
36.14008
 30
0.0
 10
-25.01552
 20
36.14008
 30
0.0
 10
-24.81782
 20
36.14008
 30
0.0
 10
-24.66119
 20
36.077
 30
0.0
 10
-24.54604
 20
35.95127
 30
0.0
 10
-24.54604
 20
35.95127
 30
0.0
 10
-24.43047
 20
35.82554
 30
0.0
 10
-24.3729
 20
35.65452
 30
0.0
 10
-24.3729
 20
35.43862
 30
0.0
 10
-24.3729
 20
35.43862
 30
0.0
 10
-24.3729
 20
35.22229
 30
0.0
 10
-24.43047
 20
35.05084
 30
0.0
 10
-24.54604
 20
34.92469
 30
0.0
 10
-24.54604
 20
34.92469
 30
0.0
 10
-24.66119
 20
34.79854
 30
0.0
 10
-24.81782
 20
34.73546
 30
0.0
 10
-25.01552
 20
34.73546
 30
0.0
  0
SPLINE
  5
5A
330
1F
100
AcDbEntity
  8
Layer 1
100
AcDbSpline
210
0.0
220
0.0
230
1.0
 70
    11
 71
     3
 72
    36
 73
    32
 74
     0
 42
0.0000000001
 43
0.0000000001
 12
1.0
 22
0.0
 32
0.0
 13
1.0
 23
0.0
 33
0.0
 40
0.0
 40
0.0
 40
0.0
 40
0.0
 40
0.1111111111111111
 40
0.1111111111111111
 40
0.1111111111111111
 40
0.1111111111111111
 40
0.2222222222222222
 40
0.2222222222222222
 40
0.2222222222222222
 40
0.2222222222222222
 40
0.3333333333333333
 40
0.3333333333333333
 40
0.3333333333333333
 40
0.3333333333333333
 40
0.4444444444444444
 40
0.4444444444444444
 40
0.4444444444444444
 40
0.4444444444444444
 40
0.5555555555555556
 40
0.5555555555555556
 40
0.5555555555555556
 40
0.5555555555555556
 40
0.6666666666666666
 40
0.6666666666666666
 40
0.6666666666666666
 40
0.6666666666666666
 40
0.7777777777777778
 40
0.7777777777777778
 40
0.7777777777777778
 40
0.7777777777777778
 40
1.0
 40
1.0
 40
1.0
 40
1.0
 10
-25.01594
 20
34.91834
 30
0.0
 10
-24.89529
 20
34.91834
 30
0.0
 10
-24.80131
 20
34.96364
 30
0.0
 10
-24.73443
 20
35.05465
 30
0.0
 10
-24.73443
 20
35.05465
 30
0.0
 10
-24.66796
 20
35.14525
 30
0.0
 10
-24.63452
 20
35.27352
 30
0.0
 10
-24.63452
 20
35.43862
 30
0.0
 10
-24.63452
 20
35.43862
 30
0.0
 10
-24.63452
 20
35.60329
 30
0.0
 10
-24.66796
 20
35.73114
 30
0.0
 10
-24.73443
 20
35.82173
 30
0.0
 10
-24.73443
 20
35.82173
 30
0.0
 10
-24.80131
 20
35.9119
 30
0.0
 10
-24.89529
 20
35.9572
 30
0.0
 10
-25.01594
 20
35.9572
 30
0.0
 10
-25.01594
 20
35.9572
 30
0.0
 10
-25.13702
 20
35.9572
 30
0.0
 10
-25.231
 20
35.9119
 30
0.0
 10
-25.29704
 20
35.82173
 30
0.0
 10
-25.29704
 20
35.82173
 30
0.0
 10
-25.3635
 20
35.73114
 30
0.0
 10
-25.39652
 20
35.60329
 30
0.0
 10
-25.39652
 20
35.43862
 30
0.0
 10
-25.39652
 20
35.43862
 30
0.0
 10
-25.39652
 20
35.27352
 30
0.0
 10
-25.3635
 20
35.14525
 30
0.0
 10
-25.29704
 20
35.05465
 30
0.0
 10
-25.29704
 20
35.05465
 30
0.0
 10
-25.231
 20
34.96364
 30
0.0
 10
-25.13702
 20
34.91834
 30
0.0
 10
-25.01594
 20
34.91834
 30
0.0
  0
SPLINE
  5
5B
330
1F
100
AcDbEntity
  8
Layer 1
100
AcDbSpline
210
0.0
220
0.0
230
1.0
 70
    11
 71
     3
 72
    84
 73
    80
 74
     0
 42
0.0000000001
 43
0.0000000001
 12
1.0
 22
0.0
 32
0.0
 13
1.0
 23
0.0
 33
0.0
 40
0.0
 40
0.0
 40
0.0
 40
0.0
 40
0.0476190476190476
 40
0.0476190476190476
 40
0.0476190476190476
 40
0.0476190476190476
 40
0.0952380952380952
 40
0.0952380952380952
 40
0.0952380952380952
 40
0.0952380952380952
 40
0.1428571428571428
 40
0.1428571428571428
 40
0.1428571428571428
 40
0.1428571428571428
 40
0.1904761904761905
 40
0.1904761904761905
 40
0.1904761904761905
 40
0.1904761904761905
 40
0.2380952380952381
 40
0.2380952380952381
 40
0.2380952380952381
 40
0.2380952380952381
 40
0.2857142857142857
 40
0.2857142857142857
 40
0.2857142857142857
 40
0.2857142857142857
 40
0.3333333333333333
 40
0.3333333333333333
 40
0.3333333333333333
 40
0.3333333333333333
 40
0.3809523809523809
 40
0.3809523809523809
 40
0.3809523809523809
 40
0.3809523809523809
 40
0.4285714285714285
 40
0.4285714285714285
 40
0.4285714285714285
 40
0.4285714285714285
 40
0.4761904761904762
 40
0.4761904761904762
 40
0.4761904761904762
 40
0.4761904761904762
 40
0.5238095238095238
 40
0.5238095238095238
 40
0.5238095238095238
 40
0.5238095238095238
 40
0.5714285714285714
 40
0.5714285714285714
 40
0.5714285714285714
 40
0.5714285714285714
 40
0.6190476190476191
 40
0.6190476190476191
 40
0.6190476190476191
 40
0.6190476190476191
 40
0.6666666666666666
 40
0.6666666666666666
 40
0.6666666666666666
 40
0.6666666666666666
 40
0.7142857142857143
 40
0.7142857142857143
 40
0.7142857142857143
 40
0.7142857142857143
 40
0.7619047619047619
 40
0.7619047619047619
 40
0.7619047619047619
 40
0.7619047619047619
 40
0.8095238095238095
 40
0.8095238095238095
 40
0.8095238095238095
 40
0.8095238095238095
 40
0.8571428571428571
 40
0.8571428571428571
 40
0.8571428571428571
 40
0.8571428571428571
 40
0.9047619047619048
 40
0.9047619047619048
 40
0.9047619047619048
 40
0.9047619047619048
 40
1.0
 40
1.0
 40
1.0
 40
1.0
 10
-23.99105
 20
34.76594
 30
0.0
 10
-23.99105
 20
34.76594
 30
0.0
 10
-23.99105
 20
36.11214
 30
0.0
 10
-23.99105
 20
36.11214
 30
0.0
 10
-23.99105
 20
36.11214
 30
0.0
 10
-23.99105
 20
36.11214
 30
0.0
 10
-23.74721
 20
36.11214
 30
0.0
 10
-23.74721
 20
36.11214
 30
0.0
 10
-23.74721
 20
36.11214
 30
0.0
 10
-23.74721
 20
36.11214
 30
0.0
 10
-23.74721
 20
35.85772
 30
0.0
 10
-23.74721
 20
35.85772
 30
0.0
 10
-23.74721
 20
35.85772
 30
0.0
 10
-23.62825
 20
36.0461
 30
0.0
 10
-23.47585
 20
36.14008
 30
0.0
 10
-23.28916
 20
36.14008
 30
0.0
 10
-23.28916
 20
36.14008
 30
0.0
 10
-23.10925
 20
36.14008
 30
0.0
 10
-22.9869
 20
36.0461
 30
0.0
 10
-22.92171
 20
35.85772
 30
0.0
 10
-22.92171
 20
35.85772
 30
0.0
 10
-22.80614
 20
36.04779
 30
0.0
 10
-22.65543
 20
36.14262
 30
0.0
 10
-22.47044
 20
36.14262
 30
0.0
 10
-22.47044
 20
36.14262
 30
0.0
 10
-22.35233
 20
36.14262
 30
0.0
 10
-22.26046
 20
36.10791
 30
0.0
 10
-22.19485
 20
36.03806
 30
0.0
 10
-22.19485
 20
36.03806
 30
0.0
 10
-22.12923
 20
35.96821
 30
0.0
 10
-22.09621
 20
35.87042
 30
0.0
 10
-22.09621
 20
35.74469
 30
0.0
 10
-22.09621
 20
35.74469
 30
0.0
 10
-22.09621
 20
35.74469
 30
0.0
 10
-22.09621
 20
34.76594
 30
0.0
 10
-22.09621
 20
34.76594
 30
0.0
 10
-22.09621
 20
34.76594
 30
0.0
 10
-22.09621
 20
34.76594
 30
0.0
 10
-22.34005
 20
34.76594
 30
0.0
 10
-22.34005
 20
34.76594
 30
0.0
 10
-22.34005
 20
34.76594
 30
0.0
 10
-22.34005
 20
34.76594
 30
0.0
 10
-22.34005
 20
35.70447
 30
0.0
 10
-22.34005
 20
35.70447
 30
0.0
 10
-22.34005
 20
35.70447
 30
0.0
 10
-22.34005
 20
35.85772
 30
0.0
 10
-22.40101
 20
35.93434
 30
0.0
 10
-22.52293
 20
35.93434
 30
0.0
 10
-22.52293
 20
35.93434
 30
0.0
 10
-22.64951
 20
35.93434
 30
0.0
 10
-22.78243
 20
35.84502
 30
0.0
 10
-22.92171
 20
35.66595
 30
0.0
 10
-22.92171
 20
35.66595
 30
0.0
 10
-22.92171
 20
35.66595
 30
0.0
 10
-22.92171
 20
34.76594
 30
0.0
 10
-22.92171
 20
34.76594
 30
0.0
 10
-22.92171
 20
34.76594
 30
0.0
 10
-22.92171
 20
34.76594
 30
0.0
 10
-23.16555
 20
34.76594
 30
0.0
 10
-23.16555
 20
34.76594
 30
0.0
 10
-23.16555
 20
34.76594
 30
0.0
 10
-23.16555
 20
34.76594
 30
0.0
 10
-23.16555
 20
35.70532
 30
0.0
 10
-23.16555
 20
35.70532
 30
0.0
 10
-23.16555
 20
35.70532
 30
0.0
 10
-23.16555
 20
35.85983
 30
0.0
 10
-23.22736
 20
35.93688
 30
0.0
 10
-23.35139
 20
35.93688
 30
0.0
 10
-23.35139
 20
35.93688
 30
0.0
 10
-23.47458
 20
35.93688
 30
0.0
 10
-23.60666
 20
35.84713
 30
0.0
 10
-23.74721
 20
35.66722
 30
0.0
 10
-23.74721
 20
35.66722
 30
0.0
 10
-23.74721
 20
35.66722
 30
0.0
 10
-23.74721
 20
34.76594
 30
0.0
 10
-23.74721
 20
34.76594
 30
0.0
 10
-23.74721
 20
34.76594
 30
0.0
 10
-23.74721
 20
34.76594
 30
0.0
 10
-23.99105
 20
34.76594
 30
0.0
 10
-23.99105
 20
34.76594
 30
0.0
  0
SPLINE
  5
5C
330
1F
100
AcDbEntity
  8
Layer 1
100
AcDbSpline
210
0.0
220
0.0
230
1.0
 70
    11
 71
     3
 72
    20
 73
    16
 74
     0
 42
0.0000000001
 43
0.0000000001
 12
1.0
 22
0.0
 32
0.0
 13
1.0
 23
0.0
 33
0.0
 40
0.0
 40
0.0
 40
0.0
 40
0.0
 40
0.2
 40
0.2
 40
0.2
 40
0.2
 40
0.4
 40
0.4
 40
0.4
 40
0.4
 40
0.6
 40
0.6
 40
0.6
 40
0.6
 40
1.0
 40
1.0
 40
1.0
 40
1.0
 10
-21.61954
 20
34.76594
 30
0.0
 10
-21.61954
 20
34.76594
 30
0.0
 10
-21.61954
 20
36.72428
 30
0.0
 10
-21.61954
 20
36.72428
 30
0.0
 10
-21.61954
 20
36.72428
 30
0.0
 10
-21.61954
 20
36.72428
 30
0.0
 10
-21.3757
 20
36.72428
 30
0.0
 10
-21.3757
 20
36.72428
 30
0.0
 10
-21.3757
 20
36.72428
 30
0.0
 10
-21.3757
 20
36.72428
 30
0.0
 10
-21.3757
 20
34.76594
 30
0.0
 10
-21.3757
 20
34.76594
 30
0.0
 10
-21.3757
 20
34.76594
 30
0.0
 10
-21.3757
 20
34.76594
 30
0.0
 10
-21.61954
 20
34.76594
 30
0.0
 10
-21.61954
 20
34.76594
 30
0.0
  0
SPLINE
  5
5D
330
1F
100
AcDbEntity
  8
Layer 1
100
AcDbSpline
210
0.0
220
0.0
230
1.0
 70
    11
 71
     3
 72
    36
 73
    32
 74
     0
 42
0.0000000001
 43
0.0000000001
 12
1.0
 22
0.0
 32
0.0
 13
1.0
 23
0.0
 33
0.0
 40
0.0
 40
0.0
 40
0.0
 40
0.0
 40
0.1111111111111111
 40
0.1111111111111111
 40
0.1111111111111111
 40
0.1111111111111111
 40
0.2222222222222222
 40
0.2222222222222222
 40
0.2222222222222222
 40
0.2222222222222222
 40
0.3333333333333333
 40
0.3333333333333333
 40
0.3333333333333333
 40
0.3333333333333333
 40
0.4444444444444444
 40
0.4444444444444444
 40
0.4444444444444444
 40
0.4444444444444444
 40
0.5555555555555556
 40
0.5555555555555556
 40
0.5555555555555556
 40
0.5555555555555556
 40
0.6666666666666666
 40
0.6666666666666666
 40
0.6666666666666666
 40
0.6666666666666666
 40
0.7777777777777778
 40
0.7777777777777778
 40
0.7777777777777778
 40
0.7777777777777778
 40
1.0
 40
1.0
 40
1.0
 40
1.0
 10
-20.34954
 20
34.73546
 30
0.0
 10
-20.54724
 20
34.73546
 30
0.0
 10
-20.70387
 20
34.79854
 30
0.0
 10
-20.81902
 20
34.92469
 30
0.0
 10
-20.81902
 20
34.92469
 30
0.0
 10
-20.93459
 20
35.05084
 30
0.0
 10
-20.99216
 20
35.22229
 30
0.0
 10
-20.99216
 20
35.43862
 30
0.0
 10
-20.99216
 20
35.43862
 30
0.0
 10
-20.99216
 20
35.65452
 30
0.0
 10
-20.93459
 20
35.82554
 30
0.0
 10
-20.81902
 20
35.95127
 30
0.0
 10
-20.81902
 20
35.95127
 30
0.0
 10
-20.70387
 20
36.077
 30
0.0
 10
-20.54724
 20
36.14008
 30
0.0
 10
-20.34954
 20
36.14008
 30
0.0
 10
-20.34954
 20
36.14008
 30
0.0
 10
-20.15184
 20
36.14008
 30
0.0
 10
-19.99521
 20
36.077
 30
0.0
 10
-19.88006
 20
35.95127
 30
0.0
 10
-19.88006
 20
35.95127
 30
0.0
 10
-19.76449
 20
35.82554
 30
0.0
 10
-19.70692
 20
35.65452
 30
0.0
 10
-19.70692
 20
35.43862
 30
0.0
 10
-19.70692
 20
35.43862
 30
0.0
 10
-19.70692
 20
35.22229
 30
0.0
 10
-19.76449
 20
35.05084
 30
0.0
 10
-19.88006
 20
34.92469
 30
0.0
 10
-19.88006
 20
34.92469
 30
0.0
 10
-19.99521
 20
34.79854
 30
0.0
 10
-20.15184
 20
34.73546
 30
0.0
 10
-20.34954
 20
34.73546
 30
0.0
  0
SPLINE
  5
5E
330
1F
100
AcDbEntity
  8
Layer 1
100
AcDbSpline
210
0.0
220
0.0
230
1.0
 70
    11
 71
     3
 72
    36
 73
    32
 74
     0
 42
0.0000000001
 43
0.0000000001
 12
1.0
 22
0.0
 32
0.0
 13
1.0
 23
0.0
 33
0.0
 40
0.0
 40
0.0
 40
0.0
 40
0.0
 40
0.1111111111111111
 40
0.1111111111111111
 40
0.1111111111111111
 40
0.1111111111111111
 40
0.2222222222222222
 40
0.2222222222222222
 40
0.2222222222222222
 40
0.2222222222222222
 40
0.3333333333333333
 40
0.3333333333333333
 40
0.3333333333333333
 40
0.3333333333333333
 40
0.4444444444444444
 40
0.4444444444444444
 40
0.4444444444444444
 40
0.4444444444444444
 40
0.5555555555555556
 40
0.5555555555555556
 40
0.5555555555555556
 40
0.5555555555555556
 40
0.6666666666666666
 40
0.6666666666666666
 40
0.6666666666666666
 40
0.6666666666666666
 40
0.7777777777777778
 40
0.7777777777777778
 40
0.7777777777777778
 40
0.7777777777777778
 40
1.0
 40
1.0
 40
1.0
 40
1.0
 10
-20.34996
 20
34.91834
 30
0.0
 10
-20.22931
 20
34.91834
 30
0.0
 10
-20.13533
 20
34.96364
 30
0.0
 10
-20.06845
 20
35.05465
 30
0.0
 10
-20.06845
 20
35.05465
 30
0.0
 10
-20.00198
 20
35.14525
 30
0.0
 10
-19.96854
 20
35.27352
 30
0.0
 10
-19.96854
 20
35.43862
 30
0.0
 10
-19.96854
 20
35.43862
 30
0.0
 10
-19.96854
 20
35.60329
 30
0.0
 10
-20.00198
 20
35.73114
 30
0.0
 10
-20.06845
 20
35.82173
 30
0.0
 10
-20.06845
 20
35.82173
 30
0.0
 10
-20.13533
 20
35.9119
 30
0.0
 10
-20.22931
 20
35.9572
 30
0.0
 10
-20.34996
 20
35.9572
 30
0.0
 10
-20.34996
 20
35.9572
 30
0.0
 10
-20.47104
 20
35.9572
 30
0.0
 10
-20.56502
 20
35.9119
 30
0.0
 10
-20.63106
 20
35.82173
 30
0.0
 10
-20.63106
 20
35.82173
 30
0.0
 10
-20.69752
 20
35.73114
 30
0.0
 10
-20.73054
 20
35.60329
 30
0.0
 10
-20.73054
 20
35.43862
 30
0.0
 10
-20.73054
 20
35.43862
 30
0.0
 10
-20.73054
 20
35.27352
 30
0.0
 10
-20.69752
 20
35.14525
 30
0.0
 10
-20.63106
 20
35.05465
 30
0.0
 10
-20.63106
 20
35.05465
 30
0.0
 10
-20.56502
 20
34.96364
 30
0.0
 10
-20.47104
 20
34.91834
 30
0.0
 10
-20.34996
 20
34.91834
 30
0.0
  0
SPLINE
  5
5F
330
1F
100
AcDbEntity
  8
Layer 1
100
AcDbSpline
210
0.0
220
0.0
230
1.0
 70
    11
 71
     3
 72
    60
 73
    56
 74
     0
 42
0.0000000001
 43
0.0000000001
 12
1.0
 22
0.0
 32
0.0
 13
1.0
 23
0.0
 33
0.0
 40
0.0
 40
0.0
 40
0.0
 40
0.0
 40
0.0666666666666667
 40
0.0666666666666667
 40
0.0666666666666667
 40
0.0666666666666667
 40
0.1333333333333333
 40
0.1333333333333333
 40
0.1333333333333333
 40
0.1333333333333333
 40
0.2
 40
0.2
 40
0.2
 40
0.2
 40
0.2666666666666667
 40
0.2666666666666667
 40
0.2666666666666667
 40
0.2666666666666667
 40
0.3333333333333333
 40
0.3333333333333333
 40
0.3333333333333333
 40
0.3333333333333333
 40
0.4
 40
0.4
 40
0.4
 40
0.4
 40
0.4666666666666667
 40
0.4666666666666667
 40
0.4666666666666667
 40
0.4666666666666667
 40
0.5333333333333333
 40
0.5333333333333333
 40
0.5333333333333333
 40
0.5333333333333333
 40
0.6
 40
0.6
 40
0.6
 40
0.6
 40
0.6666666666666666
 40
0.6666666666666666
 40
0.6666666666666666
 40
0.6666666666666666
 40
0.7333333333333333
 40
0.7333333333333333
 40
0.7333333333333333
 40
0.7333333333333333
 40
0.8
 40
0.8
 40
0.8
 40
0.8
 40
0.8666666666666667
 40
0.8666666666666667
 40
0.8666666666666667
 40
0.8666666666666667
 40
1.0
 40
1.0
 40
1.0
 40
1.0
 10
-18.48179
 20
34.76594
 30
0.0
 10
-18.48179
 20
34.76594
 30
0.0
 10
-18.48179
 20
35.01909
 30
0.0
 10
-18.48179
 20
35.01909
 30
0.0
 10
-18.48179
 20
35.01909
 30
0.0
 10
-18.61175
 20
34.82986
 30
0.0
 10
-18.76966
 20
34.73546
 30
0.0
 10
-18.95508
 20
34.73546
 30
0.0
 10
-18.95508
 20
34.73546
 30
0.0
 10
-19.07276
 20
34.73546
 30
0.0
 10
-19.16632
 20
34.77229
 30
0.0
 10
-19.23575
 20
34.84637
 30
0.0
 10
-19.23575
 20
34.84637
 30
0.0
 10
-19.3056
 20
34.92046
 30
0.0
 10
-19.34031
 20
35.01994
 30
0.0
 10
-19.34031
 20
35.14567
 30
0.0
 10
-19.34031
 20
35.14567
 30
0.0
 10
-19.34031
 20
35.14567
 30
0.0
 10
-19.34031
 20
36.11214
 30
0.0
 10
-19.34031
 20
36.11214
 30
0.0
 10
-19.34031
 20
36.11214
 30
0.0
 10
-19.34031
 20
36.11214
 30
0.0
 10
-19.09647
 20
36.11214
 30
0.0
 10
-19.09647
 20
36.11214
 30
0.0
 10
-19.09647
 20
36.11214
 30
0.0
 10
-19.09647
 20
36.11214
 30
0.0
 10
-19.09647
 20
35.22526
 30
0.0
 10
-19.09647
 20
35.22526
 30
0.0
 10
-19.09647
 20
35.22526
 30
0.0
 10
-19.09647
 20
35.12408
 30
0.0
 10
-19.08165
 20
35.05254
 30
0.0
 10
-19.05244
 20
35.0102
 30
0.0
 10
-19.05244
 20
35.0102
 30
0.0
 10
-19.02281
 20
34.96745
 30
0.0
 10
-18.9737
 20
34.94628
 30
0.0
 10
-18.9047
 20
34.94628
 30
0.0
 10
-18.9047
 20
34.94628
 30
0.0
 10
-18.75569
 20
34.94628
 30
0.0
 10
-18.61429
 20
35.04407
 30
0.0
 10
-18.48179
 20
35.24007
 30
0.0
 10
-18.48179
 20
35.24007
 30
0.0
 10
-18.48179
 20
35.24007
 30
0.0
 10
-18.48179
 20
36.11214
 30
0.0
 10
-18.48179
 20
36.11214
 30
0.0
 10
-18.48179
 20
36.11214
 30
0.0
 10
-18.48179
 20
36.11214
 30
0.0
 10
-18.23795
 20
36.11214
 30
0.0
 10
-18.23795
 20
36.11214
 30
0.0
 10
-18.23795
 20
36.11214
 30
0.0
 10
-18.23795
 20
36.11214
 30
0.0
 10
-18.23795
 20
34.76594
 30
0.0
 10
-18.23795
 20
34.76594
 30
0.0
 10
-18.23795
 20
34.76594
 30
0.0
 10
-18.23795
 20
34.76594
 30
0.0
 10
-18.48179
 20
34.76594
 30
0.0
 10
-18.48179
 20
34.76594
 30
0.0
  0
SPLINE
  5
60
330
1F
100
AcDbEntity
  8
Layer 1
100
AcDbSpline
210
0.0
220
0.0
230
1.0
 70
    11
 71
     3
 72
    72
 73
    68
 74
     0
 42
0.0000000001
 43
0.0000000001
 12
1.0
 22
0.0
 32
0.0
 13
1.0
 23
0.0
 33
0.0
 40
0.0
 40
0.0
 40
0.0
 40
0.0
 40
0.0555555555555556
 40
0.0555555555555556
 40
0.0555555555555556
 40
0.0555555555555556
 40
0.1111111111111111
 40
0.1111111111111111
 40
0.1111111111111111
 40
0.1111111111111111
 40
0.1666666666666667
 40
0.1666666666666667
 40
0.1666666666666667
 40
0.1666666666666667
 40
0.2222222222222222
 40
0.2222222222222222
 40
0.2222222222222222
 40
0.2222222222222222
 40
0.2777777777777778
 40
0.2777777777777778
 40
0.2777777777777778
 40
0.2777777777777778
 40
0.3333333333333333
 40
0.3333333333333333
 40
0.3333333333333333
 40
0.3333333333333333
 40
0.3888888888888889
 40
0.3888888888888889
 40
0.3888888888888889
 40
0.3888888888888889
 40
0.4444444444444444
 40
0.4444444444444444
 40
0.4444444444444444
 40
0.4444444444444444
 40
0.5
 40
0.5
 40
0.5
 40
0.5
 40
0.5555555555555556
 40
0.5555555555555556
 40
0.5555555555555556
 40
0.5555555555555556
 40
0.6111111111111112
 40
0.6111111111111112
 40
0.6111111111111112
 40
0.6111111111111112
 40
0.6666666666666666
 40
0.6666666666666666
 40
0.6666666666666666
 40
0.6666666666666666
 40
0.7222222222222222
 40
0.7222222222222222
 40
0.7222222222222222
 40
0.7222222222222222
 40
0.7777777777777778
 40
0.7777777777777778
 40
0.7777777777777778
 40
0.7777777777777778
 40
0.8333333333333334
 40
0.8333333333333334
 40
0.8333333333333334
 40
0.8333333333333334
 40
0.8888888888888888
 40
0.8888888888888888
 40
0.8888888888888888
 40
0.8888888888888888
 40
1.0
 40
1.0
 40
1.0
 40
1.0
 10
-17.1466
 20
34.76636
 30
0.0
 10
-17.22195
 20
34.74562
 30
0.0
 10
-17.28757
 20
34.73546
 30
0.0
 10
-17.34303
 20
34.73546
 30
0.0
 10
-17.34303
 20
34.73546
 30
0.0
 10
-17.46749
 20
34.73546
 30
0.0
 10
-17.56443
 20
34.77102
 30
0.0
 10
-17.63386
 20
34.84214
 30
0.0
 10
-17.63386
 20
34.84214
 30
0.0
 10
-17.70371
 20
34.91326
 30
0.0
 10
-17.73842
 20
35.0119
 30
0.0
 10
-17.73842
 20
35.13847
 30
0.0
 10
-17.73842
 20
35.13847
 30
0.0
 10
-17.73842
 20
35.13847
 30
0.0
 10
-17.73842
 20
35.92926
 30
0.0
 10
-17.73842
 20
35.92926
 30
0.0
 10
-17.73842
 20
35.92926
 30
0.0
 10
-17.73842
 20
35.92926
 30
0.0
 10
-17.90691
 20
35.92926
 30
0.0
 10
-17.90691
 20
35.92926
 30
0.0
 10
-17.90691
 20
35.92926
 30
0.0
 10
-17.90691
 20
35.92926
 30
0.0
 10
-17.90691
 20
36.11214
 30
0.0
 10
-17.90691
 20
36.11214
 30
0.0
 10
-17.90691
 20
36.11214
 30
0.0
 10
-17.90691
 20
36.11214
 30
0.0
 10
-17.73842
 20
36.11214
 30
0.0
 10
-17.73842
 20
36.11214
 30
0.0
 10
-17.73842
 20
36.11214
 30
0.0
 10
-17.73842
 20
36.11214
 30
0.0
 10
-17.73842
 20
36.35556
 30
0.0
 10
-17.73842
 20
36.35556
 30
0.0
 10
-17.73842
 20
36.35556
 30
0.0
 10
-17.73842
 20
36.35556
 30
0.0
 10
-17.49458
 20
36.37884
 30
0.0
 10
-17.49458
 20
36.37884
 30
0.0
 10
-17.49458
 20
36.37884
 30
0.0
 10
-17.49458
 20
36.37884
 30
0.0
 10
-17.49458
 20
36.11214
 30
0.0
 10
-17.49458
 20
36.11214
 30
0.0
 10
-17.49458
 20
36.11214
 30
0.0
 10
-17.49458
 20
36.11214
 30
0.0
 10
-17.14152
 20
36.11214
 30
0.0
 10
-17.14152
 20
36.11214
 30
0.0
 10
-17.14152
 20
36.11214
 30
0.0
 10
-17.14152
 20
36.11214
 30
0.0
 10
-17.14152
 20
35.92926
 30
0.0
 10
-17.14152
 20
35.92926
 30
0.0
 10
-17.14152
 20
35.92926
 30
0.0
 10
-17.14152
 20
35.92926
 30
0.0
 10
-17.49458
 20
35.92926
 30
0.0
 10
-17.49458
 20
35.92926
 30
0.0
 10
-17.49458
 20
35.92926
 30
0.0
 10
-17.49458
 20
35.92926
 30
0.0
 10
-17.49458
 20
35.1825
 30
0.0
 10
-17.49458
 20
35.1825
 30
0.0
 10
-17.49458
 20
35.1825
 30
0.0
 10
-17.49458
 20
35.00639
 30
0.0
 10
-17.41796
 20
34.91834
 30
0.0
 10
-17.26513
 20
34.91834
 30
0.0
 10
-17.26513
 20
34.91834
 30
0.0
 10
-17.23254
 20
34.91834
 30
0.0
 10
-17.19317
 20
34.92384
 30
0.0
 10
-17.1466
 20
34.93443
 30
0.0
 10
-17.1466
 20
34.93443
 30
0.0
 10
-17.1466
 20
34.93443
 30
0.0
 10
-17.1466
 20
34.76636
 30
0.0
 10
-17.1466
 20
34.76636
 30
0.0
  0
SPLINE
  5
61
330
1F
100
AcDbEntity
  8
Layer 1
100
AcDbSpline
210
0.0
220
0.0
230
1.0
 70
    11
 71
     3
 72
    20
 73
    16
 74
     0
 42
0.0000000001
 43
0.0000000001
 12
1.0
 22
0.0
 32
0.0
 13
1.0
 23
0.0
 33
0.0
 40
0.0
 40
0.0
 40
0.0
 40
0.0
 40
0.2
 40
0.2
 40
0.2
 40
0.2
 40
0.4
 40
0.4
 40
0.4
 40
0.4
 40
0.6
 40
0.6
 40
0.6
 40
0.6
 40
1.0
 40
1.0
 40
1.0
 40
1.0
 10
-16.93578
 20
34.58306
 30
0.0
 10
-16.93578
 20
34.58306
 30
0.0
 10
-16.93578
 20
34.76594
 30
0.0
 10
-16.93578
 20
34.76594
 30
0.0
 10
-16.93578
 20
34.76594
 30
0.0
 10
-16.93578
 20
34.76594
 30
0.0
 10
-15.87914
 20
34.76594
 30
0.0
 10
-15.87914
 20
34.76594
 30
0.0
 10
-15.87914
 20
34.76594
 30
0.0
 10
-15.87914
 20
34.76594
 30
0.0
 10
-15.87914
 20
34.58306
 30
0.0
 10
-15.87914
 20
34.58306
 30
0.0
 10
-15.87914
 20
34.58306
 30
0.0
 10
-15.87914
 20
34.58306
 30
0.0
 10
-16.93578
 20
34.58306
 30
0.0
 10
-16.93578
 20
34.58306
 30
0.0
  0
SPLINE
  5
62
330
1F
100
AcDbEntity
  8
Layer 1
100
AcDbSpline
210
0.0
220
0.0
230
1.0
 70
    11
 71
     3
 72
    72
 73
    68
 74
     0
 42
0.0000000001
 43
0.0000000001
 12
1.0
 22
0.0
 32
0.0
 13
1.0
 23
0.0
 33
0.0
 40
0.0
 40
0.0
 40
0.0
 40
0.0
 40
0.0555555555555556
 40
0.0555555555555556
 40
0.0555555555555556
 40
0.0555555555555556
 40
0.1111111111111111
 40
0.1111111111111111
 40
0.1111111111111111
 40
0.1111111111111111
 40
0.1666666666666667
 40
0.1666666666666667
 40
0.1666666666666667
 40
0.1666666666666667
 40
0.2222222222222222
 40
0.2222222222222222
 40
0.2222222222222222
 40
0.2222222222222222
 40
0.2777777777777778
 40
0.2777777777777778
 40
0.2777777777777778
 40
0.2777777777777778
 40
0.3333333333333333
 40
0.3333333333333333
 40
0.3333333333333333
 40
0.3333333333333333
 40
0.3888888888888889
 40
0.3888888888888889
 40
0.3888888888888889
 40
0.3888888888888889
 40
0.4444444444444444
 40
0.4444444444444444
 40
0.4444444444444444
 40
0.4444444444444444
 40
0.5
 40
0.5
 40
0.5
 40
0.5
 40
0.5555555555555556
 40
0.5555555555555556
 40
0.5555555555555556
 40
0.5555555555555556
 40
0.6111111111111112
 40
0.6111111111111112
 40
0.6111111111111112
 40
0.6111111111111112
 40
0.6666666666666666
 40
0.6666666666666666
 40
0.6666666666666666
 40
0.6666666666666666
 40
0.7222222222222222
 40
0.7222222222222222
 40
0.7222222222222222
 40
0.7222222222222222
 40
0.7777777777777778
 40
0.7777777777777778
 40
0.7777777777777778
 40
0.7777777777777778
 40
0.8333333333333334
 40
0.8333333333333334
 40
0.8333333333333334
 40
0.8333333333333334
 40
0.8888888888888888
 40
0.8888888888888888
 40
0.8888888888888888
 40
0.8888888888888888
 40
1.0
 40
1.0
 40
1.0
 40
1.0
 10
-14.92664
 20
34.76636
 30
0.0
 10
-15.00199
 20
34.74562
 30
0.0
 10
-15.06761
 20
34.73546
 30
0.0
 10
-15.12307
 20
34.73546
 30
0.0
 10
-15.12307
 20
34.73546
 30
0.0
 10
-15.24753
 20
34.73546
 30
0.0
 10
-15.34447
 20
34.77102
 30
0.0
 10
-15.4139
 20
34.84214
 30
0.0
 10
-15.4139
 20
34.84214
 30
0.0
 10
-15.48375
 20
34.91326
 30
0.0
 10
-15.51846
 20
35.0119
 30
0.0
 10
-15.51846
 20
35.13847
 30
0.0
 10
-15.51846
 20
35.13847
 30
0.0
 10
-15.51846
 20
35.13847
 30
0.0
 10
-15.51846
 20
35.92926
 30
0.0
 10
-15.51846
 20
35.92926
 30
0.0
 10
-15.51846
 20
35.92926
 30
0.0
 10
-15.51846
 20
35.92926
 30
0.0
 10
-15.68695
 20
35.92926
 30
0.0
 10
-15.68695
 20
35.92926
 30
0.0
 10
-15.68695
 20
35.92926
 30
0.0
 10
-15.68695
 20
35.92926
 30
0.0
 10
-15.68695
 20
36.11214
 30
0.0
 10
-15.68695
 20
36.11214
 30
0.0
 10
-15.68695
 20
36.11214
 30
0.0
 10
-15.68695
 20
36.11214
 30
0.0
 10
-15.51846
 20
36.11214
 30
0.0
 10
-15.51846
 20
36.11214
 30
0.0
 10
-15.51846
 20
36.11214
 30
0.0
 10
-15.51846
 20
36.11214
 30
0.0
 10
-15.51846
 20
36.35556
 30
0.0
 10
-15.51846
 20
36.35556
 30
0.0
 10
-15.51846
 20
36.35556
 30
0.0
 10
-15.51846
 20
36.35556
 30
0.0
 10
-15.27462
 20
36.37884
 30
0.0
 10
-15.27462
 20
36.37884
 30
0.0
 10
-15.27462
 20
36.37884
 30
0.0
 10
-15.27462
 20
36.37884
 30
0.0
 10
-15.27462
 20
36.11214
 30
0.0
 10
-15.27462
 20
36.11214
 30
0.0
 10
-15.27462
 20
36.11214
 30
0.0
 10
-15.27462
 20
36.11214
 30
0.0
 10
-14.92156
 20
36.11214
 30
0.0
 10
-14.92156
 20
36.11214
 30
0.0
 10
-14.92156
 20
36.11214
 30
0.0
 10
-14.92156
 20
36.11214
 30
0.0
 10
-14.92156
 20
35.92926
 30
0.0
 10
-14.92156
 20
35.92926
 30
0.0
 10
-14.92156
 20
35.92926
 30
0.0
 10
-14.92156
 20
35.92926
 30
0.0
 10
-15.27462
 20
35.92926
 30
0.0
 10
-15.27462
 20
35.92926
 30
0.0
 10
-15.27462
 20
35.92926
 30
0.0
 10
-15.27462
 20
35.92926
 30
0.0
 10
-15.27462
 20
35.1825
 30
0.0
 10
-15.27462
 20
35.1825
 30
0.0
 10
-15.27462
 20
35.1825
 30
0.0
 10
-15.27462
 20
35.00639
 30
0.0
 10
-15.198
 20
34.91834
 30
0.0
 10
-15.04517
 20
34.91834
 30
0.0
 10
-15.04517
 20
34.91834
 30
0.0
 10
-15.01258
 20
34.91834
 30
0.0
 10
-14.97321
 20
34.92384
 30
0.0
 10
-14.92664
 20
34.93443
 30
0.0
 10
-14.92664
 20
34.93443
 30
0.0
 10
-14.92664
 20
34.93443
 30
0.0
 10
-14.92664
 20
34.76636
 30
0.0
 10
-14.92664
 20
34.76636
 30
0.0
  0
SPLINE
  5
63
330
1F
100
AcDbEntity
  8
Layer 1
100
AcDbSpline
210
0.0
220
0.0
230
1.0
 70
    11
 71
     3
 72
    48
 73
    44
 74
     0
 42
0.0000000001
 43
0.0000000001
 12
1.0
 22
0.0
 32
0.0
 13
1.0
 23
0.0
 33
0.0
 40
0.0
 40
0.0
 40
0.0
 40
0.0
 40
0.0833333333333333
 40
0.0833333333333333
 40
0.0833333333333333
 40
0.0833333333333333
 40
0.1666666666666667
 40
0.1666666666666667
 40
0.1666666666666667
 40
0.1666666666666667
 40
0.25
 40
0.25
 40
0.25
 40
0.25
 40
0.3333333333333333
 40
0.3333333333333333
 40
0.3333333333333333
 40
0.3333333333333333
 40
0.4166666666666667
 40
0.4166666666666667
 40
0.4166666666666667
 40
0.4166666666666667
 40
0.5
 40
0.5
 40
0.5
 40
0.5
 40
0.5833333333333334
 40
0.5833333333333334
 40
0.5833333333333334
 40
0.5833333333333334
 40
0.6666666666666666
 40
0.6666666666666666
 40
0.6666666666666666
 40
0.6666666666666666
 40
0.75
 40
0.75
 40
0.75
 40
0.75
 40
0.8333333333333334
 40
0.8333333333333334
 40
0.8333333333333334
 40
0.8333333333333334
 40
1.0
 40
1.0
 40
1.0
 40
1.0
 10
-13.71252
 20
34.76594
 30
0.0
 10
-13.71252
 20
34.76594
 30
0.0
 10
-13.71252
 20
35.01867
 30
0.0
 10
-13.71252
 20
35.01867
 30
0.0
 10
-13.71252
 20
35.01867
 30
0.0
 10
-13.812
 20
34.82986
 30
0.0
 10
-13.96186
 20
34.73546
 30
0.0
 10
-14.1621
 20
34.73546
 30
0.0
 10
-14.1621
 20
34.73546
 30
0.0
 10
-14.32466
 20
34.73546
 30
0.0
 10
-14.45251
 20
34.7943
 30
0.0
 10
-14.54564
 20
34.91241
 30
0.0
 10
-14.54564
 20
34.91241
 30
0.0
 10
-14.63877
 20
35.03052
 30
0.0
 10
-14.68534
 20
35.19181
 30
0.0
 10
-14.68534
 20
35.39628
 30
0.0
 10
-14.68534
 20
35.39628
 30
0.0
 10
-14.68534
 20
35.6198
 30
0.0
 10
-14.63242
 20
35.79972
 30
0.0
 10
-14.52701
 20
35.93603
 30
0.0
 10
-14.52701
 20
35.93603
 30
0.0
 10
-14.42118
 20
36.07192
 30
0.0
 10
-14.28233
 20
36.14008
 30
0.0
 10
-14.11003
 20
36.14008
 30
0.0
 10
-14.11003
 20
36.14008
 30
0.0
 10
-13.95043
 20
36.14008
 30
0.0
 10
-13.81751
 20
36.07912
 30
0.0
 10
-13.71252
 20
35.95678
 30
0.0
 10
-13.71252
 20
35.95678
 30
0.0
 10
-13.71252
 20
35.95678
 30
0.0
 10
-13.71252
 20
36.72428
 30
0.0
 10
-13.71252
 20
36.72428
 30
0.0
 10
-13.71252
 20
36.72428
 30
0.0
 10
-13.71252
 20
36.72428
 30
0.0
 10
-13.46868
 20
36.72428
 30
0.0
 10
-13.46868
 20
36.72428
 30
0.0
 10
-13.46868
 20
36.72428
 30
0.0
 10
-13.46868
 20
36.72428
 30
0.0
 10
-13.46868
 20
34.76594
 30
0.0
 10
-13.46868
 20
34.76594
 30
0.0
 10
-13.46868
 20
34.76594
 30
0.0
 10
-13.46868
 20
34.76594
 30
0.0
 10
-13.71252
 20
34.76594
 30
0.0
 10
-13.71252
 20
34.76594
 30
0.0
  0
SPLINE
  5
64
330
1F
100
AcDbEntity
  8
Layer 1
100
AcDbSpline
210
0.0
220
0.0
230
1.0
 70
    11
 71
     3
 72
    28
 73
    24
 74
     0
 42
0.0000000001
 43
0.0000000001
 12
1.0
 22
0.0
 32
0.0
 13
1.0
 23
0.0
 33
0.0
 40
0.0
 40
0.0
 40
0.0
 40
0.0
 40
0.1428571428571428
 40
0.1428571428571428
 40
0.1428571428571428
 40
0.1428571428571428
 40
0.2857142857142857
 40
0.2857142857142857
 40
0.2857142857142857
 40
0.2857142857142857
 40
0.4285714285714285
 40
0.4285714285714285
 40
0.4285714285714285
 40
0.4285714285714285
 40
0.5714285714285714
 40
0.5714285714285714
 40
0.5714285714285714
 40
0.5714285714285714
 40
0.7142857142857143
 40
0.7142857142857143
 40
0.7142857142857143
 40
0.7142857142857143
 40
1.0
 40
1.0
 40
1.0
 40
1.0
 10
-13.71252
 20
35.78998
 30
0.0
 10
-13.8391
 20
35.90132
 30
0.0
 10
-13.9589
 20
35.9572
 30
0.0
 10
-14.07235
 20
35.9572
 30
0.0
 10
-14.07235
 20
35.9572
 30
0.0
 10
-14.18411
 20
35.9572
 30
0.0
 10
-14.27047
 20
35.91063
 30
0.0
 10
-14.33186
 20
35.81708
 30
0.0
 10
-14.33186
 20
35.81708
 30
0.0
 10
-14.39324
 20
35.72394
 30
0.0
 10
-14.42372
 20
35.59186
 30
0.0
 10
-14.42372
 20
35.42084
 30
0.0
 10
-14.42372
 20
35.42084
 30
0.0
 10
-14.42372
 20
35.1063
 30
0.0
 10
-14.31958
 20
34.94882
 30
0.0
 10
-14.11088
 20
34.94882
 30
0.0
 10
-14.11088
 20
34.94882
 30
0.0
 10
-13.97541
 20
34.94882
 30
0.0
 10
-13.84248
 20
35.0229
 30
0.0
 10
-13.71252
 20
35.17065
 30
0.0
 10
-13.71252
 20
35.17065
 30
0.0
 10
-13.71252
 20
35.17065
 30
0.0
 10
-13.71252
 20
35.78998
 30
0.0
 10
-13.71252
 20
35.78998
 30
0.0
  0
SPLINE
  5
65
330
1F
100
AcDbEntity
  8
Layer 1
100
AcDbSpline
210
0.0
220
0.0
230
1.0
 70
    11
 71
     3
 72
    48
 73
    44
 74
     0
 42
0.0000000001
 43
0.0000000001
 12
1.0
 22
0.0
 32
0.0
 13
1.0
 23
0.0
 33
0.0
 40
0.0
 40
0.0
 40
0.0
 40
0.0
 40
0.0833333333333333
 40
0.0833333333333333
 40
0.0833333333333333
 40
0.0833333333333333
 40
0.1666666666666667
 40
0.1666666666666667
 40
0.1666666666666667
 40
0.1666666666666667
 40
0.25
 40
0.25
 40
0.25
 40
0.25
 40
0.3333333333333333
 40
0.3333333333333333
 40
0.3333333333333333
 40
0.3333333333333333
 40
0.4166666666666667
 40
0.4166666666666667
 40
0.4166666666666667
 40
0.4166666666666667
 40
0.5
 40
0.5
 40
0.5
 40
0.5
 40
0.5833333333333334
 40
0.5833333333333334
 40
0.5833333333333334
 40
0.5833333333333334
 40
0.6666666666666666
 40
0.6666666666666666
 40
0.6666666666666666
 40
0.6666666666666666
 40
0.75
 40
0.75
 40
0.75
 40
0.75
 40
0.8333333333333334
 40
0.8333333333333334
 40
0.8333333333333334
 40
0.8333333333333334
 40
1.0
 40
1.0
 40
1.0
 40
1.0
 10
-12.98015
 20
34.27572
 30
0.0
 10
-12.98015
 20
34.27572
 30
0.0
 10
-12.98015
 20
36.11214
 30
0.0
 10
-12.98015
 20
36.11214
 30
0.0
 10
-12.98015
 20
36.11214
 30
0.0
 10
-12.98015
 20
36.11214
 30
0.0
 10
-12.73631
 20
36.11214
 30
0.0
 10
-12.73631
 20
36.11214
 30
0.0
 10
-12.73631
 20
36.11214
 30
0.0
 10
-12.73631
 20
36.11214
 30
0.0
 10
-12.73631
 20
35.85772
 30
0.0
 10
-12.73631
 20
35.85772
 30
0.0
 10
-12.73631
 20
35.85772
 30
0.0
 10
-12.6364
 20
36.0461
 30
0.0
 10
-12.48612
 20
36.14008
 30
0.0
 10
-12.28588
 20
36.14008
 30
0.0
 10
-12.28588
 20
36.14008
 30
0.0
 10
-12.12375
 20
36.14008
 30
0.0
 10
-11.99632
 20
36.08124
 30
0.0
 10
-11.90319
 20
35.96313
 30
0.0
 10
-11.90319
 20
35.96313
 30
0.0
 10
-11.81006
 20
35.84502
 30
0.0
 10
-11.76349
 20
35.68373
 30
0.0
 10
-11.76349
 20
35.47926
 30
0.0
 10
-11.76349
 20
35.47926
 30
0.0
 10
-11.76349
 20
35.25658
 30
0.0
 10
-11.81641
 20
35.07667
 30
0.0
 10
-11.92182
 20
34.94035
 30
0.0
 10
-11.92182
 20
34.94035
 30
0.0
 10
-12.02723
 20
34.80362
 30
0.0
 10
-12.16608
 20
34.73546
 30
0.0
 10
-12.33795
 20
34.73546
 30
0.0
 10
-12.33795
 20
34.73546
 30
0.0
 10
-12.49755
 20
34.73546
 30
0.0
 10
-12.63048
 20
34.79642
 30
0.0
 10
-12.73631
 20
34.91876
 30
0.0
 10
-12.73631
 20
34.91876
 30
0.0
 10
-12.73631
 20
34.91876
 30
0.0
 10
-12.73631
 20
34.27572
 30
0.0
 10
-12.73631
 20
34.27572
 30
0.0
 10
-12.73631
 20
34.27572
 30
0.0
 10
-12.73631
 20
34.27572
 30
0.0
 10
-12.98015
 20
34.27572
 30
0.0
 10
-12.98015
 20
34.27572
 30
0.0
  0
SPLINE
  5
66
330
1F
100
AcDbEntity
  8
Layer 1
100
AcDbSpline
210
0.0
220
0.0
230
1.0
 70
    11
 71
     3
 72
    28
 73
    24
 74
     0
 42
0.0000000001
 43
0.0000000001
 12
1.0
 22
0.0
 32
0.0
 13
1.0
 23
0.0
 33
0.0
 40
0.0
 40
0.0
 40
0.0
 40
0.0
 40
0.1428571428571428
 40
0.1428571428571428
 40
0.1428571428571428
 40
0.1428571428571428
 40
0.2857142857142857
 40
0.2857142857142857
 40
0.2857142857142857
 40
0.2857142857142857
 40
0.4285714285714285
 40
0.4285714285714285
 40
0.4285714285714285
 40
0.4285714285714285
 40
0.5714285714285714
 40
0.5714285714285714
 40
0.5714285714285714
 40
0.5714285714285714
 40
0.7142857142857143
 40
0.7142857142857143
 40
0.7142857142857143
 40
0.7142857142857143
 40
1.0
 40
1.0
 40
1.0
 40
1.0
 10
-12.73631
 20
35.08683
 30
0.0
 10
-12.61058
 20
34.97464
 30
0.0
 10
-12.49078
 20
34.91834
 30
0.0
 10
-12.3769
 20
34.91834
 30
0.0
 10
-12.3769
 20
34.91834
 30
0.0
 10
-12.26472
 20
34.91834
 30
0.0
 10
-12.17793
 20
34.96533
 30
0.0
 10
-12.11697
 20
35.05889
 30
0.0
 10
-12.11697
 20
35.05889
 30
0.0
 10
-12.05559
 20
35.15244
 30
0.0
 10
-12.02511
 20
35.2841
 30
0.0
 10
-12.02511
 20
35.45428
 30
0.0
 10
-12.02511
 20
35.45428
 30
0.0
 10
-12.02511
 20
35.76924
 30
0.0
 10
-12.12925
 20
35.92672
 30
0.0
 10
-12.33753
 20
35.92672
 30
0.0
 10
-12.33753
 20
35.92672
 30
0.0
 10
-12.47384
 20
35.92672
 30
0.0
 10
-12.60677
 20
35.85306
 30
0.0
 10
-12.73631
 20
35.70532
 30
0.0
 10
-12.73631
 20
35.70532
 30
0.0
 10
-12.73631
 20
35.70532
 30
0.0
 10
-12.73631
 20
35.08683
 30
0.0
 10
-12.73631
 20
35.08683
 30
0.0
  0
SPLINE
  5
67
330
1F
100
AcDbEntity
  8
Layer 1
100
AcDbSpline
210
0.0
220
0.0
230
1.0
 70
    11
 71
     3
 72
    48
 73
    44
 74
     0
 42
0.0000000001
 43
0.0000000001
 12
1.0
 22
0.0
 32
0.0
 13
1.0
 23
0.0
 33
0.0
 40
0.0
 40
0.0
 40
0.0
 40
0.0
 40
0.0833333333333333
 40
0.0833333333333333
 40
0.0833333333333333
 40
0.0833333333333333
 40
0.1666666666666667
 40
0.1666666666666667
 40
0.1666666666666667
 40
0.1666666666666667
 40
0.25
 40
0.25
 40
0.25
 40
0.25
 40
0.3333333333333333
 40
0.3333333333333333
 40
0.3333333333333333
 40
0.3333333333333333
 40
0.4166666666666667
 40
0.4166666666666667
 40
0.4166666666666667
 40
0.4166666666666667
 40
0.5
 40
0.5
 40
0.5
 40
0.5
 40
0.5833333333333334
 40
0.5833333333333334
 40
0.5833333333333334
 40
0.5833333333333334
 40
0.6666666666666666
 40
0.6666666666666666
 40
0.6666666666666666
 40
0.6666666666666666
 40
0.75
 40
0.75
 40
0.75
 40
0.75
 40
0.8333333333333334
 40
0.8333333333333334
 40
0.8333333333333334
 40
0.8333333333333334
 40
1.0
 40
1.0
 40
1.0
 40
1.0
 10
-11.38164
 20
34.7507
 30
0.0
 10
-11.38164
 20
34.7507
 30
0.0
 10
-11.38164
 20
36.72428
 30
0.0
 10
-11.38164
 20
36.72428
 30
0.0
 10
-11.38164
 20
36.72428
 30
0.0
 10
-11.38164
 20
36.72428
 30
0.0
 10
-11.1378
 20
36.72428
 30
0.0
 10
-11.1378
 20
36.72428
 30
0.0
 10
-11.1378
 20
36.72428
 30
0.0
 10
-11.1378
 20
36.72428
 30
0.0
 10
-11.1378
 20
35.85772
 30
0.0
 10
-11.1378
 20
35.85772
 30
0.0
 10
-11.1378
 20
35.85772
 30
0.0
 10
-11.03789
 20
36.0461
 30
0.0
 10
-10.88761
 20
36.14008
 30
0.0
 10
-10.68737
 20
36.14008
 30
0.0
 10
-10.68737
 20
36.14008
 30
0.0
 10
-10.52524
 20
36.14008
 30
0.0
 10
-10.39781
 20
36.08124
 30
0.0
 10
-10.30468
 20
35.96313
 30
0.0
 10
-10.30468
 20
35.96313
 30
0.0
 10
-10.21155
 20
35.84502
 30
0.0
 10
-10.16498
 20
35.68373
 30
0.0
 10
-10.16498
 20
35.47926
 30
0.0
 10
-10.16498
 20
35.47926
 30
0.0
 10
-10.16498
 20
35.25658
 30
0.0
 10
-10.2179
 20
35.07667
 30
0.0
 10
-10.32331
 20
34.94035
 30
0.0
 10
-10.32331
 20
34.94035
 30
0.0
 10
-10.42872
 20
34.80362
 30
0.0
 10
-10.56757
 20
34.73546
 30
0.0
 10
-10.73944
 20
34.73546
 30
0.0
 10
-10.73944
 20
34.73546
 30
0.0
 10
-10.89904
 20
34.73546
 30
0.0
 10
-11.03197
 20
34.79642
 30
0.0
 10
-11.1378
 20
34.91876
 30
0.0
 10
-11.1378
 20
34.91876
 30
0.0
 10
-11.1378
 20
34.91876
 30
0.0
 10
-11.16743
 20
34.7507
 30
0.0
 10
-11.16743
 20
34.7507
 30
0.0
 10
-11.16743
 20
34.7507
 30
0.0
 10
-11.16743
 20
34.7507
 30
0.0
 10
-11.38164
 20
34.7507
 30
0.0
 10
-11.38164
 20
34.7507
 30
0.0
  0
SPLINE
  5
68
330
1F
100
AcDbEntity
  8
Layer 1
100
AcDbSpline
210
0.0
220
0.0
230
1.0
 70
    11
 71
     3
 72
    28
 73
    24
 74
     0
 42
0.0000000001
 43
0.0000000001
 12
1.0
 22
0.0
 32
0.0
 13
1.0
 23
0.0
 33
0.0
 40
0.0
 40
0.0
 40
0.0
 40
0.0
 40
0.1428571428571428
 40
0.1428571428571428
 40
0.1428571428571428
 40
0.1428571428571428
 40
0.2857142857142857
 40
0.2857142857142857
 40
0.2857142857142857
 40
0.2857142857142857
 40
0.4285714285714285
 40
0.4285714285714285
 40
0.4285714285714285
 40
0.4285714285714285
 40
0.5714285714285714
 40
0.5714285714285714
 40
0.5714285714285714
 40
0.5714285714285714
 40
0.7142857142857143
 40
0.7142857142857143
 40
0.7142857142857143
 40
0.7142857142857143
 40
1.0
 40
1.0
 40
1.0
 40
1.0
 10
-11.1378
 20
35.08683
 30
0.0
 10
-11.01207
 20
34.97464
 30
0.0
 10
-10.89227
 20
34.91834
 30
0.0
 10
-10.77839
 20
34.91834
 30
0.0
 10
-10.77839
 20
34.91834
 30
0.0
 10
-10.66621
 20
34.91834
 30
0.0
 10
-10.57942
 20
34.96533
 30
0.0
 10
-10.51846
 20
35.05889
 30
0.0
 10
-10.51846
 20
35.05889
 30
0.0
 10
-10.45708
 20
35.15244
 30
0.0
 10
-10.4266
 20
35.2841
 30
0.0
 10
-10.4266
 20
35.45428
 30
0.0
 10
-10.4266
 20
35.45428
 30
0.0
 10
-10.4266
 20
35.76924
 30
0.0
 10
-10.53074
 20
35.92672
 30
0.0
 10
-10.73902
 20
35.92672
 30
0.0
 10
-10.73902
 20
35.92672
 30
0.0
 10
-10.87533
 20
35.92672
 30
0.0
 10
-11.00826
 20
35.85306
 30
0.0
 10
-11.1378
 20
35.70532
 30
0.0
 10
-11.1378
 20
35.70532
 30
0.0
 10
-11.1378
 20
35.70532
 30
0.0
 10
-11.1378
 20
35.08683
 30
0.0
 10
-11.1378
 20
35.08683
 30
0.0
  0
SPLINE
  5
69
330
1F
100
AcDbEntity
  8
Layer 1
100
AcDbSpline
210
0.0
220
0.0
230
1.0
 70
    11
 71
     3
 72
    84
 73
    80
 74
     0
 42
0.0000000001
 43
0.0000000001
 12
1.0
 22
0.0
 32
0.0
 13
1.0
 23
0.0
 33
0.0
 40
0.0
 40
0.0
 40
0.0
 40
0.0
 40
0.0476190476190476
 40
0.0476190476190476
 40
0.0476190476190476
 40
0.0476190476190476
 40
0.0952380952380952
 40
0.0952380952380952
 40
0.0952380952380952
 40
0.0952380952380952
 40
0.1428571428571428
 40
0.1428571428571428
 40
0.1428571428571428
 40
0.1428571428571428
 40
0.1904761904761905
 40
0.1904761904761905
 40
0.1904761904761905
 40
0.1904761904761905
 40
0.2380952380952381
 40
0.2380952380952381
 40
0.2380952380952381
 40
0.2380952380952381
 40
0.2857142857142857
 40
0.2857142857142857
 40
0.2857142857142857
 40
0.2857142857142857
 40
0.3333333333333333
 40
0.3333333333333333
 40
0.3333333333333333
 40
0.3333333333333333
 40
0.3809523809523809
 40
0.3809523809523809
 40
0.3809523809523809
 40
0.3809523809523809
 40
0.4285714285714285
 40
0.4285714285714285
 40
0.4285714285714285
 40
0.4285714285714285
 40
0.4761904761904762
 40
0.4761904761904762
 40
0.4761904761904762
 40
0.4761904761904762
 40
0.5238095238095238
 40
0.5238095238095238
 40
0.5238095238095238
 40
0.5238095238095238
 40
0.5714285714285714
 40
0.5714285714285714
 40
0.5714285714285714
 40
0.5714285714285714
 40
0.6190476190476191
 40
0.6190476190476191
 40
0.6190476190476191
 40
0.6190476190476191
 40
0.6666666666666666
 40
0.6666666666666666
 40
0.6666666666666666
 40
0.6666666666666666
 40
0.7142857142857143
 40
0.7142857142857143
 40
0.7142857142857143
 40
0.7142857142857143
 40
0.7619047619047619
 40
0.7619047619047619
 40
0.7619047619047619
 40
0.7619047619047619
 40
0.8095238095238095
 40
0.8095238095238095
 40
0.8095238095238095
 40
0.8095238095238095
 40
0.8571428571428571
 40
0.8571428571428571
 40
0.8571428571428571
 40
0.8571428571428571
 40
0.9047619047619048
 40
0.9047619047619048
 40
0.9047619047619048
 40
0.9047619047619048
 40
1.0
 40
1.0
 40
1.0
 40
1.0
 10
-9.78313
 20
34.76594
 30
0.0
 10
-9.78313
 20
34.76594
 30
0.0
 10
-9.78313
 20
36.11214
 30
0.0
 10
-9.78313
 20
36.11214
 30
0.0
 10
-9.78313
 20
36.11214
 30
0.0
 10
-9.78313
 20
36.11214
 30
0.0
 10
-9.53929
 20
36.11214
 30
0.0
 10
-9.53929
 20
36.11214
 30
0.0
 10
-9.53929
 20
36.11214
 30
0.0
 10
-9.53929
 20
36.11214
 30
0.0
 10
-9.53929
 20
35.85772
 30
0.0
 10
-9.53929
 20
35.85772
 30
0.0
 10
-9.53929
 20
35.85772
 30
0.0
 10
-9.42033
 20
36.0461
 30
0.0
 10
-9.26793
 20
36.14008
 30
0.0
 10
-9.08124
 20
36.14008
 30
0.0
 10
-9.08124
 20
36.14008
 30
0.0
 10
-8.90133
 20
36.14008
 30
0.0
 10
-8.77898
 20
36.0461
 30
0.0
 10
-8.71379
 20
35.85772
 30
0.0
 10
-8.71379
 20
35.85772
 30
0.0
 10
-8.59822
 20
36.04779
 30
0.0
 10
-8.44751
 20
36.14262
 30
0.0
 10
-8.26252
 20
36.14262
 30
0.0
 10
-8.26252
 20
36.14262
 30
0.0
 10
-8.14441
 20
36.14262
 30
0.0
 10
-8.05254
 20
36.10791
 30
0.0
 10
-7.98693
 20
36.03806
 30
0.0
 10
-7.98693
 20
36.03806
 30
0.0
 10
-7.92131
 20
35.96821
 30
0.0
 10
-7.88829
 20
35.87042
 30
0.0
 10
-7.88829
 20
35.74469
 30
0.0
 10
-7.88829
 20
35.74469
 30
0.0
 10
-7.88829
 20
35.74469
 30
0.0
 10
-7.88829
 20
34.76594
 30
0.0
 10
-7.88829
 20
34.76594
 30
0.0
 10
-7.88829
 20
34.76594
 30
0.0
 10
-7.88829
 20
34.76594
 30
0.0
 10
-8.13213
 20
34.76594
 30
0.0
 10
-8.13213
 20
34.76594
 30
0.0
 10
-8.13213
 20
34.76594
 30
0.0
 10
-8.13213
 20
34.76594
 30
0.0
 10
-8.13213
 20
35.70447
 30
0.0
 10
-8.13213
 20
35.70447
 30
0.0
 10
-8.13213
 20
35.70447
 30
0.0
 10
-8.13213
 20
35.85772
 30
0.0
 10
-8.19309
 20
35.93434
 30
0.0
 10
-8.31501
 20
35.93434
 30
0.0
 10
-8.31501
 20
35.93434
 30
0.0
 10
-8.44159
 20
35.93434
 30
0.0
 10
-8.57451
 20
35.84502
 30
0.0
 10
-8.71379
 20
35.66595
 30
0.0
 10
-8.71379
 20
35.66595
 30
0.0
 10
-8.71379
 20
35.66595
 30
0.0
 10
-8.71379
 20
34.76594
 30
0.0
 10
-8.71379
 20
34.76594
 30
0.0
 10
-8.71379
 20
34.76594
 30
0.0
 10
-8.71379
 20
34.76594
 30
0.0
 10
-8.95763
 20
34.76594
 30
0.0
 10
-8.95763
 20
34.76594
 30
0.0
 10
-8.95763
 20
34.76594
 30
0.0
 10
-8.95763
 20
34.76594
 30
0.0
 10
-8.95763
 20
35.70532
 30
0.0
 10
-8.95763
 20
35.70532
 30
0.0
 10
-8.95763
 20
35.70532
 30
0.0
 10
-8.95763
 20
35.85983
 30
0.0
 10
-9.01944
 20
35.93688
 30
0.0
 10
-9.14347
 20
35.93688
 30
0.0
 10
-9.14347
 20
35.93688
 30
0.0
 10
-9.26666
 20
35.93688
 30
0.0
 10
-9.39874
 20
35.84713
 30
0.0
 10
-9.53929
 20
35.66722
 30
0.0
 10
-9.53929
 20
35.66722
 30
0.0
 10
-9.53929
 20
35.66722
 30
0.0
 10
-9.53929
 20
34.76594
 30
0.0
 10
-9.53929
 20
34.76594
 30
0.0
 10
-9.53929
 20
34.76594
 30
0.0
 10
-9.53929
 20
34.76594
 30
0.0
 10
-9.78313
 20
34.76594
 30
0.0
 10
-9.78313
 20
34.76594
 30
0.0
  0
SPLINE
  5
6A
330
1F
100
AcDbEntity
  8
Layer 1
100
AcDbSpline
210
0.0
220
0.0
230
1.0
 70
    11
 71
     3
 72
    60
 73
    56
 74
     0
 42
0.0000000001
 43
0.0000000001
 12
1.0
 22
0.0
 32
0.0
 13
1.0
 23
0.0
 33
0.0
 40
0.0
 40
0.0
 40
0.0
 40
0.0
 40
0.0666666666666667
 40
0.0666666666666667
 40
0.0666666666666667
 40
0.0666666666666667
 40
0.1333333333333333
 40
0.1333333333333333
 40
0.1333333333333333
 40
0.1333333333333333
 40
0.2
 40
0.2
 40
0.2
 40
0.2
 40
0.2666666666666667
 40
0.2666666666666667
 40
0.2666666666666667
 40
0.2666666666666667
 40
0.3333333333333333
 40
0.3333333333333333
 40
0.3333333333333333
 40
0.3333333333333333
 40
0.4
 40
0.4
 40
0.4
 40
0.4
 40
0.4666666666666667
 40
0.4666666666666667
 40
0.4666666666666667
 40
0.4666666666666667
 40
0.5333333333333333
 40
0.5333333333333333
 40
0.5333333333333333
 40
0.5333333333333333
 40
0.6
 40
0.6
 40
0.6
 40
0.6
 40
0.6666666666666666
 40
0.6666666666666666
 40
0.6666666666666666
 40
0.6666666666666666
 40
0.7333333333333333
 40
0.7333333333333333
 40
0.7333333333333333
 40
0.7333333333333333
 40
0.8
 40
0.8
 40
0.8
 40
0.8
 40
0.8666666666666667
 40
0.8666666666666667
 40
0.8666666666666667
 40
0.8666666666666667
 40
1.0
 40
1.0
 40
1.0
 40
1.0
 10
-6.4769
 20
34.80658
 30
0.0
 10
-6.6348
 20
34.75917
 30
0.0
 10
-6.77112
 20
34.73546
 30
0.0
 10
-6.88584
 20
34.73546
 30
0.0
 10
-6.88584
 20
34.73546
 30
0.0
 10
-7.06787
 20
34.73546
 30
0.0
 10
-7.21858
 20
34.80277
 30
0.0
 10
-7.33838
 20
34.93697
 30
0.0
 10
-7.33838
 20
34.93697
 30
0.0
 10
-7.45819
 20
35.07159
 30
0.0
 10
-7.5183
 20
35.24134
 30
0.0
 10
-7.5183
 20
35.44581
 30
0.0
 10
-7.5183
 20
35.44581
 30
0.0
 10
-7.5183
 20
35.66425
 30
0.0
 10
-7.45903
 20
35.83486
 30
0.0
 10
-7.3405
 20
35.95678
 30
0.0
 10
-7.3405
 20
35.95678
 30
0.0
 10
-7.22197
 20
36.07912
 30
0.0
 10
-7.05644
 20
36.14008
 30
0.0
 10
-6.84393
 20
36.14008
 30
0.0
 10
-6.84393
 20
36.14008
 30
0.0
 10
-6.73937
 20
36.14008
 30
0.0
 10
-6.62168
 20
36.12569
 30
0.0
 10
-6.49214
 20
36.0969
 30
0.0
 10
-6.49214
 20
36.0969
 30
0.0
 10
-6.49214
 20
36.0969
 30
0.0
 10
-6.49214
 20
35.89116
 30
0.0
 10
-6.49214
 20
35.89116
 30
0.0
 10
-6.49214
 20
35.89116
 30
0.0
 10
-6.62972
 20
35.9318
 30
0.0
 10
-6.74191
 20
35.95212
 30
0.0
 10
-6.82827
 20
35.95212
 30
0.0
 10
-6.82827
 20
35.95212
 30
0.0
 10
-6.95357
 20
35.95212
 30
0.0
 10
-7.0539
 20
35.90513
 30
0.0
 10
-7.12883
 20
35.81157
 30
0.0
 10
-7.12883
 20
35.81157
 30
0.0
 10
-7.20376
 20
35.71802
 30
0.0
 10
-7.24144
 20
35.59313
 30
0.0
 10
-7.24144
 20
35.43735
 30
0.0
 10
-7.24144
 20
35.43735
 30
0.0
 10
-7.24144
 20
35.28622
 30
0.0
 10
-7.20249
 20
35.1643
 30
0.0
 10
-7.12502
 20
35.07074
 30
0.0
 10
-7.12502
 20
35.07074
 30
0.0
 10
-7.04755
 20
34.97761
 30
0.0
 10
-6.94638
 20
34.93104
 30
0.0
 10
-6.82065
 20
34.93104
 30
0.0
 10
-6.82065
 20
34.93104
 30
0.0
 10
-6.70931
 20
34.93104
 30
0.0
 10
-6.59501
 20
34.95983
 30
0.0
 10
-6.4769
 20
35.0174
 30
0.0
 10
-6.4769
 20
35.0174
 30
0.0
 10
-6.4769
 20
35.0174
 30
0.0
 10
-6.4769
 20
34.80658
 30
0.0
 10
-6.4769
 20
34.80658
 30
0.0
  0
SPLINE
  5
6B
330
1F
100
AcDbEntity
  8
Layer 1
100
AcDbSpline
210
0.0
220
0.0
230
1.0
 70
    11
 71
     3
 72
    72
 73
    68
 74
     0
 42
0.0000000001
 43
0.0000000001
 12
1.0
 22
0.0
 32
0.0
 13
1.0
 23
0.0
 33
0.0
 40
0.0
 40
0.0
 40
0.0
 40
0.0
 40
0.0555555555555556
 40
0.0555555555555556
 40
0.0555555555555556
 40
0.0555555555555556
 40
0.1111111111111111
 40
0.1111111111111111
 40
0.1111111111111111
 40
0.1111111111111111
 40
0.1666666666666667
 40
0.1666666666666667
 40
0.1666666666666667
 40
0.1666666666666667
 40
0.2222222222222222
 40
0.2222222222222222
 40
0.2222222222222222
 40
0.2222222222222222
 40
0.2777777777777778
 40
0.2777777777777778
 40
0.2777777777777778
 40
0.2777777777777778
 40
0.3333333333333333
 40
0.3333333333333333
 40
0.3333333333333333
 40
0.3333333333333333
 40
0.3888888888888889
 40
0.3888888888888889
 40
0.3888888888888889
 40
0.3888888888888889
 40
0.4444444444444444
 40
0.4444444444444444
 40
0.4444444444444444
 40
0.4444444444444444
 40
0.5
 40
0.5
 40
0.5
 40
0.5
 40
0.5555555555555556
 40
0.5555555555555556
 40
0.5555555555555556
 40
0.5555555555555556
 40
0.6111111111111112
 40
0.6111111111111112
 40
0.6111111111111112
 40
0.6111111111111112
 40
0.6666666666666666
 40
0.6666666666666666
 40
0.6666666666666666
 40
0.6666666666666666
 40
0.7222222222222222
 40
0.7222222222222222
 40
0.7222222222222222
 40
0.7222222222222222
 40
0.7777777777777778
 40
0.7777777777777778
 40
0.7777777777777778
 40
0.7777777777777778
 40
0.8333333333333334
 40
0.8333333333333334
 40
0.8333333333333334
 40
0.8333333333333334
 40
0.8888888888888888
 40
0.8888888888888888
 40
0.8888888888888888
 40
0.8888888888888888
 40
1.0
 40
1.0
 40
1.0
 40
1.0
 10
-5.50874
 20
34.76636
 30
0.0
 10
-5.58409
 20
34.74562
 30
0.0
 10
-5.64971
 20
34.73546
 30
0.0
 10
-5.70517
 20
34.73546
 30
0.0
 10
-5.70517
 20
34.73546
 30
0.0
 10
-5.82963
 20
34.73546
 30
0.0
 10
-5.92657
 20
34.77102
 30
0.0
 10
-5.996
 20
34.84214
 30
0.0
 10
-5.996
 20
34.84214
 30
0.0
 10
-6.06585
 20
34.91326
 30
0.0
 10
-6.10056
 20
35.0119
 30
0.0
 10
-6.10056
 20
35.13847
 30
0.0
 10
-6.10056
 20
35.13847
 30
0.0
 10
-6.10056
 20
35.13847
 30
0.0
 10
-6.10056
 20
35.92926
 30
0.0
 10
-6.10056
 20
35.92926
 30
0.0
 10
-6.10056
 20
35.92926
 30
0.0
 10
-6.10056
 20
35.92926
 30
0.0
 10
-6.26905
 20
35.92926
 30
0.0
 10
-6.26905
 20
35.92926
 30
0.0
 10
-6.26905
 20
35.92926
 30
0.0
 10
-6.26905
 20
35.92926
 30
0.0
 10
-6.26905
 20
36.11214
 30
0.0
 10
-6.26905
 20
36.11214
 30
0.0
 10
-6.26905
 20
36.11214
 30
0.0
 10
-6.26905
 20
36.11214
 30
0.0
 10
-6.10056
 20
36.11214
 30
0.0
 10
-6.10056
 20
36.11214
 30
0.0
 10
-6.10056
 20
36.11214
 30
0.0
 10
-6.10056
 20
36.11214
 30
0.0
 10
-6.10056
 20
36.35556
 30
0.0
 10
-6.10056
 20
36.35556
 30
0.0
 10
-6.10056
 20
36.35556
 30
0.0
 10
-6.10056
 20
36.35556
 30
0.0
 10
-5.85672
 20
36.37884
 30
0.0
 10
-5.85672
 20
36.37884
 30
0.0
 10
-5.85672
 20
36.37884
 30
0.0
 10
-5.85672
 20
36.37884
 30
0.0
 10
-5.85672
 20
36.11214
 30
0.0
 10
-5.85672
 20
36.11214
 30
0.0
 10
-5.85672
 20
36.11214
 30
0.0
 10
-5.85672
 20
36.11214
 30
0.0
 10
-5.50366
 20
36.11214
 30
0.0
 10
-5.50366
 20
36.11214
 30
0.0
 10
-5.50366
 20
36.11214
 30
0.0
 10
-5.50366
 20
36.11214
 30
0.0
 10
-5.50366
 20
35.92926
 30
0.0
 10
-5.50366
 20
35.92926
 30
0.0
 10
-5.50366
 20
35.92926
 30
0.0
 10
-5.50366
 20
35.92926
 30
0.0
 10
-5.85672
 20
35.92926
 30
0.0
 10
-5.85672
 20
35.92926
 30
0.0
 10
-5.85672
 20
35.92926
 30
0.0
 10
-5.85672
 20
35.92926
 30
0.0
 10
-5.85672
 20
35.1825
 30
0.0
 10
-5.85672
 20
35.1825
 30
0.0
 10
-5.85672
 20
35.1825
 30
0.0
 10
-5.85672
 20
35.00639
 30
0.0
 10
-5.7801
 20
34.91834
 30
0.0
 10
-5.62727
 20
34.91834
 30
0.0
 10
-5.62727
 20
34.91834
 30
0.0
 10
-5.59468
 20
34.91834
 30
0.0
 10
-5.55531
 20
34.92384
 30
0.0
 10
-5.50874
 20
34.93443
 30
0.0
 10
-5.50874
 20
34.93443
 30
0.0
 10
-5.50874
 20
34.93443
 30
0.0
 10
-5.50874
 20
34.76636
 30
0.0
 10
-5.50874
 20
34.76636
 30
0.0
  0
SPLINE
  5
6C
330
1F
100
AcDbEntity
  8
Layer 1
100
AcDbSpline
210
0.0
220
0.0
230
1.0
 70
    11
 71
     3
 72
    20
 73
    16
 74
     0
 42
0.0000000001
 43
0.0000000001
 12
1.0
 22
0.0
 32
0.0
 13
1.0
 23
0.0
 33
0.0
 40
0.0
 40
0.0
 40
0.0
 40
0.0
 40
0.2
 40
0.2
 40
0.2
 40
0.2
 40
0.4
 40
0.4
 40
0.4
 40
0.4
 40
0.6
 40
0.6
 40
0.6
 40
0.6
 40
1.0
 40
1.0
 40
1.0
 40
1.0
 10
-5.29792
 20
34.58306
 30
0.0
 10
-5.29792
 20
34.58306
 30
0.0
 10
-5.29792
 20
34.76594
 30
0.0
 10
-5.29792
 20
34.76594
 30
0.0
 10
-5.29792
 20
34.76594
 30
0.0
 10
-5.29792
 20
34.76594
 30
0.0
 10
-4.24128
 20
34.76594
 30
0.0
 10
-4.24128
 20
34.76594
 30
0.0
 10
-4.24128
 20
34.76594
 30
0.0
 10
-4.24128
 20
34.76594
 30
0.0
 10
-4.24128
 20
34.58306
 30
0.0
 10
-4.24128
 20
34.58306
 30
0.0
 10
-4.24128
 20
34.58306
 30
0.0
 10
-4.24128
 20
34.58306
 30
0.0
 10
-5.29792
 20
34.58306
 30
0.0
 10
-5.29792
 20
34.58306
 30
0.0
  0
SPLINE
  5
6D
330
1F
100
AcDbEntity
  8
Layer 1
100
AcDbSpline
210
0.0
220
0.0
230
1.0
 70
    11
 71
     3
 72
    48
 73
    44
 74
     0
 42
0.0000000001
 43
0.0000000001
 12
1.0
 22
0.0
 32
0.0
 13
1.0
 23
0.0
 33
0.0
 40
0.0
 40
0.0
 40
0.0
 40
0.0
 40
0.0833333333333333
 40
0.0833333333333333
 40
0.0833333333333333
 40
0.0833333333333333
 40
0.1666666666666667
 40
0.1666666666666667
 40
0.1666666666666667
 40
0.1666666666666667
 40
0.25
 40
0.25
 40
0.25
 40
0.25
 40
0.3333333333333333
 40
0.3333333333333333
 40
0.3333333333333333
 40
0.3333333333333333
 40
0.4166666666666667
 40
0.4166666666666667
 40
0.4166666666666667
 40
0.4166666666666667
 40
0.5
 40
0.5
 40
0.5
 40
0.5
 40
0.5833333333333334
 40
0.5833333333333334
 40
0.5833333333333334
 40
0.5833333333333334
 40
0.6666666666666666
 40
0.6666666666666666
 40
0.6666666666666666
 40
0.6666666666666666
 40
0.75
 40
0.75
 40
0.75
 40
0.75
 40
0.8333333333333334
 40
0.8333333333333334
 40
0.8333333333333334
 40
0.8333333333333334
 40
1.0
 40
1.0
 40
1.0
 40
1.0
 10
-3.89076
 20
34.27572
 30
0.0
 10
-3.89076
 20
34.27572
 30
0.0
 10
-3.89076
 20
36.11214
 30
0.0
 10
-3.89076
 20
36.11214
 30
0.0
 10
-3.89076
 20
36.11214
 30
0.0
 10
-3.89076
 20
36.11214
 30
0.0
 10
-3.64692
 20
36.11214
 30
0.0
 10
-3.64692
 20
36.11214
 30
0.0
 10
-3.64692
 20
36.11214
 30
0.0
 10
-3.64692
 20
36.11214
 30
0.0
 10
-3.64692
 20
35.85772
 30
0.0
 10
-3.64692
 20
35.85772
 30
0.0
 10
-3.64692
 20
35.85772
 30
0.0
 10
-3.54701
 20
36.0461
 30
0.0
 10
-3.39673
 20
36.14008
 30
0.0
 10
-3.19649
 20
36.14008
 30
0.0
 10
-3.19649
 20
36.14008
 30
0.0
 10
-3.03436
 20
36.14008
 30
0.0
 10
-2.90693
 20
36.08124
 30
0.0
 10
-2.8138
 20
35.96313
 30
0.0
 10
-2.8138
 20
35.96313
 30
0.0
 10
-2.72067
 20
35.84502
 30
0.0
 10
-2.6741
 20
35.68373
 30
0.0
 10
-2.6741
 20
35.47926
 30
0.0
 10
-2.6741
 20
35.47926
 30
0.0
 10
-2.6741
 20
35.25658
 30
0.0
 10
-2.72702
 20
35.07667
 30
0.0
 10
-2.83243
 20
34.94035
 30
0.0
 10
-2.83243
 20
34.94035
 30
0.0
 10
-2.93784
 20
34.80362
 30
0.0
 10
-3.07669
 20
34.73546
 30
0.0
 10
-3.24856
 20
34.73546
 30
0.0
 10
-3.24856
 20
34.73546
 30
0.0
 10
-3.40816
 20
34.73546
 30
0.0
 10
-3.54109
 20
34.79642
 30
0.0
 10
-3.64692
 20
34.91876
 30
0.0
 10
-3.64692
 20
34.91876
 30
0.0
 10
-3.64692
 20
34.91876
 30
0.0
 10
-3.64692
 20
34.27572
 30
0.0
 10
-3.64692
 20
34.27572
 30
0.0
 10
-3.64692
 20
34.27572
 30
0.0
 10
-3.64692
 20
34.27572
 30
0.0
 10
-3.89076
 20
34.27572
 30
0.0
 10
-3.89076
 20
34.27572
 30
0.0
  0
SPLINE
  5
6E
330
1F
100
AcDbEntity
  8
Layer 1
100
AcDbSpline
210
0.0
220
0.0
230
1.0
 70
    11
 71
     3
 72
    28
 73
    24
 74
     0
 42
0.0000000001
 43
0.0000000001
 12
1.0
 22
0.0
 32
0.0
 13
1.0
 23
0.0
 33
0.0
 40
0.0
 40
0.0
 40
0.0
 40
0.0
 40
0.1428571428571428
 40
0.1428571428571428
 40
0.1428571428571428
 40
0.1428571428571428
 40
0.2857142857142857
 40
0.2857142857142857
 40
0.2857142857142857
 40
0.2857142857142857
 40
0.4285714285714285
 40
0.4285714285714285
 40
0.4285714285714285
 40
0.4285714285714285
 40
0.5714285714285714
 40
0.5714285714285714
 40
0.5714285714285714
 40
0.5714285714285714
 40
0.7142857142857143
 40
0.7142857142857143
 40
0.7142857142857143
 40
0.7142857142857143
 40
1.0
 40
1.0
 40
1.0
 40
1.0
 10
-3.64692
 20
35.08683
 30
0.0
 10
-3.52119
 20
34.97464
 30
0.0
 10
-3.40139
 20
34.91834
 30
0.0
 10
-3.28751
 20
34.91834
 30
0.0
 10
-3.28751
 20
34.91834
 30
0.0
 10
-3.17533
 20
34.91834
 30
0.0
 10
-3.08854
 20
34.96533
 30
0.0
 10
-3.02758
 20
35.05889
 30
0.0
 10
-3.02758
 20
35.05889
 30
0.0
 10
-2.9662
 20
35.15244
 30
0.0
 10
-2.93572
 20
35.2841
 30
0.0
 10
-2.93572
 20
35.45428
 30
0.0
 10
-2.93572
 20
35.45428
 30
0.0
 10
-2.93572
 20
35.76924
 30
0.0
 10
-3.03986
 20
35.92672
 30
0.0
 10
-3.24814
 20
35.92672
 30
0.0
 10
-3.24814
 20
35.92672
 30
0.0
 10
-3.38445
 20
35.92672
 30
0.0
 10
-3.51738
 20
35.85306
 30
0.0
 10
-3.64692
 20
35.70532
 30
0.0
 10
-3.64692
 20
35.70532
 30
0.0
 10
-3.64692
 20
35.70532
 30
0.0
 10
-3.64692
 20
35.08683
 30
0.0
 10
-3.64692
 20
35.08683
 30
0.0
  0
SPLINE
  5
6F
330
1F
100
AcDbEntity
  8
Layer 1
100
AcDbSpline
210
0.0
220
0.0
230
1.0
 70
    11
 71
     3
 72
    44
 73
    40
 74
     0
 42
0.0000000001
 43
0.0000000001
 12
1.0
 22
0.0
 32
0.0
 13
1.0
 23
0.0
 33
0.0
 40
0.0
 40
0.0
 40
0.0
 40
0.0
 40
0.0909090909090909
 40
0.0909090909090909
 40
0.0909090909090909
 40
0.0909090909090909
 40
0.1818181818181818
 40
0.1818181818181818
 40
0.1818181818181818
 40
0.1818181818181818
 40
0.2727272727272727
 40
0.2727272727272727
 40
0.2727272727272727
 40
0.2727272727272727
 40
0.3636363636363636
 40
0.3636363636363636
 40
0.3636363636363636
 40
0.3636363636363636
 40
0.4545454545454545
 40
0.4545454545454545
 40
0.4545454545454545
 40
0.4545454545454545
 40
0.5454545454545454
 40
0.5454545454545454
 40
0.5454545454545454
 40
0.5454545454545454
 40
0.6363636363636364
 40
0.6363636363636364
 40
0.6363636363636364
 40
0.6363636363636364
 40
0.7272727272727273
 40
0.7272727272727273
 40
0.7272727272727273
 40
0.7272727272727273
 40
0.8181818181818182
 40
0.8181818181818182
 40
0.8181818181818182
 40
0.8181818181818182
 40
1.0
 40
1.0
 40
1.0
 40
1.0
 10
-2.29225
 20
34.76594
 30
0.0
 10
-2.29225
 20
34.76594
 30
0.0
 10
-2.29225
 20
36.11214
 30
0.0
 10
-2.29225
 20
36.11214
 30
0.0
 10
-2.29225
 20
36.11214
 30
0.0
 10
-2.29225
 20
36.11214
 30
0.0
 10
-2.04841
 20
36.11214
 30
0.0
 10
-2.04841
 20
36.11214
 30
0.0
 10
-2.04841
 20
36.11214
 30
0.0
 10
-2.04841
 20
36.11214
 30
0.0
 10
-2.04841
 20
35.85772
 30
0.0
 10
-2.04841
 20
35.85772
 30
0.0
 10
-2.04841
 20
35.85772
 30
0.0
 10
-1.95147
 20
36.0461
 30
0.0
 10
-1.81092
 20
36.14008
 30
0.0
 10
-1.62635
 20
36.14008
 30
0.0
 10
-1.62635
 20
36.14008
 30
0.0
 10
-1.60137
 20
36.14008
 30
0.0
 10
-1.57512
 20
36.13796
 30
0.0
 10
-1.54803
 20
36.13373
 30
0.0
 10
-1.54803
 20
36.13373
 30
0.0
 10
-1.54803
 20
36.13373
 30
0.0
 10
-1.54803
 20
35.90555
 30
0.0
 10
-1.54803
 20
35.90555
 30
0.0
 10
-1.54803
 20
35.90555
 30
0.0
 10
-1.59036
 20
35.91952
 30
0.0
 10
-1.62762
 20
35.92672
 30
0.0
 10
-1.65979
 20
35.92672
 30
0.0
 10
-1.65979
 20
35.92672
 30
0.0
 10
-1.81473
 20
35.92672
 30
0.0
 10
-1.94427
 20
35.83528
 30
0.0
 10
-2.04841
 20
35.65198
 30
0.0
 10
-2.04841
 20
35.65198
 30
0.0
 10
-2.04841
 20
35.65198
 30
0.0
 10
-2.04841
 20
34.76594
 30
0.0
 10
-2.04841
 20
34.76594
 30
0.0
 10
-2.04841
 20
34.76594
 30
0.0
 10
-2.04841
 20
34.76594
 30
0.0
 10
-2.29225
 20
34.76594
 30
0.0
 10
-2.29225
 20
34.76594
 30
0.0
  0
SPLINE
  5
70
330
1F
100
AcDbEntity
  8
Layer 1
100
AcDbSpline
210
0.0
220
0.0
230
1.0
 70
    11
 71
     3
 72
    20
 73
    16
 74
     0
 42
0.0000000001
 43
0.0000000001
 12
1.0
 22
0.0
 32
0.0
 13
1.0
 23
0.0
 33
0.0
 40
0.0
 40
0.0
 40
0.0
 40
0.0
 40
0.2
 40
0.2
 40
0.2
 40
0.2
 40
0.4
 40
0.4
 40
0.4
 40
0.4
 40
0.6
 40
0.6
 40
0.6
 40
0.6
 40
1.0
 40
1.0
 40
1.0
 40
1.0
 10
-1.25297
 20
34.76594
 30
0.0
 10
-1.25297
 20
34.76594
 30
0.0
 10
-1.25297
 20
36.11214
 30
0.0
 10
-1.25297
 20
36.11214
 30
0.0
 10
-1.25297
 20
36.11214
 30
0.0
 10
-1.25297
 20
36.11214
 30
0.0
 10
-1.00913
 20
36.11214
 30
0.0
 10
-1.00913
 20
36.11214
 30
0.0
 10
-1.00913
 20
36.11214
 30
0.0
 10
-1.00913
 20
36.11214
 30
0.0
 10
-1.00913
 20
34.76594
 30
0.0
 10
-1.00913
 20
34.76594
 30
0.0
 10
-1.00913
 20
34.76594
 30
0.0
 10
-1.00913
 20
34.76594
 30
0.0
 10
-1.25297
 20
34.76594
 30
0.0
 10
-1.25297
 20
34.76594
 30
0.0
  0
SPLINE
  5
71
330
1F
100
AcDbEntity
  8
Layer 1
100
AcDbSpline
210
0.0
220
0.0
230
1.0
 70
    11
 71
     3
 72
    20
 73
    16
 74
     0
 42
0.0000000001
 43
0.0000000001
 12
1.0
 22
0.0
 32
0.0
 13
1.0
 23
0.0
 33
0.0
 40
0.0
 40
0.0
 40
0.0
 40
0.0
 40
0.2
 40
0.2
 40
0.2
 40
0.2
 40
0.4
 40
0.4
 40
0.4
 40
0.4
 40
0.6
 40
0.6
 40
0.6
 40
0.6
 40
1.0
 40
1.0
 40
1.0
 40
1.0
 10
-1.25297
 20
36.35852
 30
0.0
 10
-1.25297
 20
36.35852
 30
0.0
 10
-1.25297
 20
36.60236
 30
0.0
 10
-1.25297
 20
36.60236
 30
0.0
 10
-1.25297
 20
36.60236
 30
0.0
 10
-1.25297
 20
36.60236
 30
0.0
 10
-1.00913
 20
36.60236
 30
0.0
 10
-1.00913
 20
36.60236
 30
0.0
 10
-1.00913
 20
36.60236
 30
0.0
 10
-1.00913
 20
36.60236
 30
0.0
 10
-1.00913
 20
36.35852
 30
0.0
 10
-1.00913
 20
36.35852
 30
0.0
 10
-1.00913
 20
36.35852
 30
0.0
 10
-1.00913
 20
36.35852
 30
0.0
 10
-1.25297
 20
36.35852
 30
0.0
 10
-1.25297
 20
36.35852
 30
0.0
  0
SPLINE
  5
72
330
1F
100
AcDbEntity
  8
Layer 1
100
AcDbSpline
210
0.0
220
0.0
230
1.0
 70
    11
 71
     3
 72
    60
 73
    56
 74
     0
 42
0.0000000001
 43
0.0000000001
 12
1.0
 22
0.0
 32
0.0
 13
1.0
 23
0.0
 33
0.0
 40
0.0
 40
0.0
 40
0.0
 40
0.0
 40
0.0666666666666667
 40
0.0666666666666667
 40
0.0666666666666667
 40
0.0666666666666667
 40
0.1333333333333333
 40
0.1333333333333333
 40
0.1333333333333333
 40
0.1333333333333333
 40
0.2
 40
0.2
 40
0.2
 40
0.2
 40
0.2666666666666667
 40
0.2666666666666667
 40
0.2666666666666667
 40
0.2666666666666667
 40
0.3333333333333333
 40
0.3333333333333333
 40
0.3333333333333333
 40
0.3333333333333333
 40
0.4
 40
0.4
 40
0.4
 40
0.4
 40
0.4666666666666667
 40
0.4666666666666667
 40
0.4666666666666667
 40
0.4666666666666667
 40
0.5333333333333333
 40
0.5333333333333333
 40
0.5333333333333333
 40
0.5333333333333333
 40
0.6
 40
0.6
 40
0.6
 40
0.6
 40
0.6666666666666666
 40
0.6666666666666666
 40
0.6666666666666666
 40
0.6666666666666666
 40
0.7333333333333333
 40
0.7333333333333333
 40
0.7333333333333333
 40
0.7333333333333333
 40
0.8
 40
0.8
 40
0.8
 40
0.8
 40
0.8666666666666667
 40
0.8666666666666667
 40
0.8666666666666667
 40
0.8666666666666667
 40
1.0
 40
1.0
 40
1.0
 40
1.0
 10
-0.51891
 20
34.76594
 30
0.0
 10
-0.51891
 20
34.76594
 30
0.0
 10
-0.51891
 20
36.11214
 30
0.0
 10
-0.51891
 20
36.11214
 30
0.0
 10
-0.51891
 20
36.11214
 30
0.0
 10
-0.51891
 20
36.11214
 30
0.0
 10
-0.27507
 20
36.11214
 30
0.0
 10
-0.27507
 20
36.11214
 30
0.0
 10
-0.27507
 20
36.11214
 30
0.0
 10
-0.27507
 20
36.11214
 30
0.0
 10
-0.27507
 20
35.85772
 30
0.0
 10
-0.27507
 20
35.85772
 30
0.0
 10
-0.27507
 20
35.85772
 30
0.0
 10
-0.14595
 20
36.0461
 30
0.0
 10
0.01237
 20
36.14008
 30
0.0
 10
0.19949
 20
36.14008
 30
0.0
 10
0.19949
 20
36.14008
 30
0.0
 10
0.31717
 20
36.14008
 30
0.0
 10
0.41073
 20
36.10325
 30
0.0
 10
0.47973
 20
36.02917
 30
0.0
 10
0.47973
 20
36.02917
 30
0.0
 10
0.54874
 20
35.95551
 30
0.0
 10
0.58345
 20
35.85602
 30
0.0
 10
0.58345
 20
35.73156
 30
0.0
 10
0.58345
 20
35.73156
 30
0.0
 10
0.58345
 20
35.73156
 30
0.0
 10
0.58345
 20
34.76594
 30
0.0
 10
0.58345
 20
34.76594
 30
0.0
 10
0.58345
 20
34.76594
 30
0.0
 10
0.58345
 20
34.76594
 30
0.0
 10
0.33961
 20
34.76594
 30
0.0
 10
0.33961
 20
34.76594
 30
0.0
 10
0.33961
 20
34.76594
 30
0.0
 10
0.33961
 20
34.76594
 30
0.0
 10
0.33961
 20
35.65198
 30
0.0
 10
0.33961
 20
35.65198
 30
0.0
 10
0.33961
 20
35.65198
 30
0.0
 10
0.33961
 20
35.75188
 30
0.0
 10
0.32479
 20
35.823
 30
0.0
 10
0.29558
 20
35.86534
 30
0.0
 10
0.29558
 20
35.86534
 30
0.0
 10
0.26595
 20
35.90809
 30
0.0
 10
0.21727
 20
35.92926
 30
0.0
 10
0.14911
 20
35.92926
 30
0.0
 10
0.14911
 20
35.92926
 30
0.0
 10
-0.00075
 20
35.92926
 30
0.0
 10
-0.14214
 20
35.83147
 30
0.0
 10
-0.27507
 20
35.63589
 30
0.0
 10
-0.27507
 20
35.63589
 30
0.0
 10
-0.27507
 20
35.63589
 30
0.0
 10
-0.27507
 20
34.76594
 30
0.0
 10
-0.27507
 20
34.76594
 30
0.0
 10
-0.27507
 20
34.76594
 30
0.0
 10
-0.27507
 20
34.76594
 30
0.0
 10
-0.51891
 20
34.76594
 30
0.0
 10
-0.51891
 20
34.76594
 30
0.0
  0
SPLINE
  5
73
330
1F
100
AcDbEntity
  8
Layer 1
100
AcDbSpline
210
0.0
220
0.0
230
1.0
 70
    11
 71
     3
 72
    72
 73
    68
 74
     0
 42
0.0000000001
 43
0.0000000001
 12
1.0
 22
0.0
 32
0.0
 13
1.0
 23
0.0
 33
0.0
 40
0.0
 40
0.0
 40
0.0
 40
0.0
 40
0.0555555555555556
 40
0.0555555555555556
 40
0.0555555555555556
 40
0.0555555555555556
 40
0.1111111111111111
 40
0.1111111111111111
 40
0.1111111111111111
 40
0.1111111111111111
 40
0.1666666666666667
 40
0.1666666666666667
 40
0.1666666666666667
 40
0.1666666666666667
 40
0.2222222222222222
 40
0.2222222222222222
 40
0.2222222222222222
 40
0.2222222222222222
 40
0.2777777777777778
 40
0.2777777777777778
 40
0.2777777777777778
 40
0.2777777777777778
 40
0.3333333333333333
 40
0.3333333333333333
 40
0.3333333333333333
 40
0.3333333333333333
 40
0.3888888888888889
 40
0.3888888888888889
 40
0.3888888888888889
 40
0.3888888888888889
 40
0.4444444444444444
 40
0.4444444444444444
 40
0.4444444444444444
 40
0.4444444444444444
 40
0.5
 40
0.5
 40
0.5
 40
0.5
 40
0.5555555555555556
 40
0.5555555555555556
 40
0.5555555555555556
 40
0.5555555555555556
 40
0.6111111111111112
 40
0.6111111111111112
 40
0.6111111111111112
 40
0.6111111111111112
 40
0.6666666666666666
 40
0.6666666666666666
 40
0.6666666666666666
 40
0.6666666666666666
 40
0.7222222222222222
 40
0.7222222222222222
 40
0.7222222222222222
 40
0.7222222222222222
 40
0.7777777777777778
 40
0.7777777777777778
 40
0.7777777777777778
 40
0.7777777777777778
 40
0.8333333333333334
 40
0.8333333333333334
 40
0.8333333333333334
 40
0.8333333333333334
 40
0.8888888888888888
 40
0.8888888888888888
 40
0.8888888888888888
 40
0.8888888888888888
 40
1.0
 40
1.0
 40
1.0
 40
1.0
 10
1.65956
 20
34.76636
 30
0.0
 10
1.58421
 20
34.74562
 30
0.0
 10
1.51859
 20
34.73546
 30
0.0
 10
1.46313
 20
34.73546
 30
0.0
 10
1.46313
 20
34.73546
 30
0.0
 10
1.33867
 20
34.73546
 30
0.0
 10
1.24173
 20
34.77102
 30
0.0
 10
1.1723
 20
34.84214
 30
0.0
 10
1.1723
 20
34.84214
 30
0.0
 10
1.10245
 20
34.91326
 30
0.0
 10
1.06774
 20
35.0119
 30
0.0
 10
1.06774
 20
35.13847
 30
0.0
 10
1.06774
 20
35.13847
 30
0.0
 10
1.06774
 20
35.13847
 30
0.0
 10
1.06774
 20
35.92926
 30
0.0
 10
1.06774
 20
35.92926
 30
0.0
 10
1.06774
 20
35.92926
 30
0.0
 10
1.06774
 20
35.92926
 30
0.0
 10
0.89925
 20
35.92926
 30
0.0
 10
0.89925
 20
35.92926
 30
0.0
 10
0.89925
 20
35.92926
 30
0.0
 10
0.89925
 20
35.92926
 30
0.0
 10
0.89925
 20
36.11214
 30
0.0
 10
0.89925
 20
36.11214
 30
0.0
 10
0.89925
 20
36.11214
 30
0.0
 10
0.89925
 20
36.11214
 30
0.0
 10
1.06774
 20
36.11214
 30
0.0
 10
1.06774
 20
36.11214
 30
0.0
 10
1.06774
 20
36.11214
 30
0.0
 10
1.06774
 20
36.11214
 30
0.0
 10
1.06774
 20
36.35556
 30
0.0
 10
1.06774
 20
36.35556
 30
0.0
 10
1.06774
 20
36.35556
 30
0.0
 10
1.06774
 20
36.35556
 30
0.0
 10
1.31158
 20
36.37884
 30
0.0
 10
1.31158
 20
36.37884
 30
0.0
 10
1.31158
 20
36.37884
 30
0.0
 10
1.31158
 20
36.37884
 30
0.0
 10
1.31158
 20
36.11214
 30
0.0
 10
1.31158
 20
36.11214
 30
0.0
 10
1.31158
 20
36.11214
 30
0.0
 10
1.31158
 20
36.11214
 30
0.0
 10
1.66464
 20
36.11214
 30
0.0
 10
1.66464
 20
36.11214
 30
0.0
 10
1.66464
 20
36.11214
 30
0.0
 10
1.66464
 20
36.11214
 30
0.0
 10
1.66464
 20
35.92926
 30
0.0
 10
1.66464
 20
35.92926
 30
0.0
 10
1.66464
 20
35.92926
 30
0.0
 10
1.66464
 20
35.92926
 30
0.0
 10
1.31158
 20
35.92926
 30
0.0
 10
1.31158
 20
35.92926
 30
0.0
 10
1.31158
 20
35.92926
 30
0.0
 10
1.31158
 20
35.92926
 30
0.0
 10
1.31158
 20
35.1825
 30
0.0
 10
1.31158
 20
35.1825
 30
0.0
 10
1.31158
 20
35.1825
 30
0.0
 10
1.31158
 20
35.00639
 30
0.0
 10
1.3882
 20
34.91834
 30
0.0
 10
1.54103
 20
34.91834
 30
0.0
 10
1.54103
 20
34.91834
 30
0.0
 10
1.57362
 20
34.91834
 30
0.0
 10
1.61299
 20
34.92384
 30
0.0
 10
1.65956
 20
34.93443
 30
0.0
 10
1.65956
 20
34.93443
 30
0.0
 10
1.65956
 20
34.93443
 30
0.0
 10
1.65956
 20
34.76636
 30
0.0
 10
1.65956
 20
34.76636
 30
0.0
  0
SPLINE
  5
74
330
1F
100
AcDbEntity
  8
Layer 1
100
AcDbSpline
210
0.0
220
0.0
230
1.0
 70
    11
 71
     3
 72
    52
 73
    48
 74
     0
 42
0.0000000001
 43
0.0000000001
 12
1.0
 22
0.0
 32
0.0
 13
1.0
 23
0.0
 33
0.0
 40
0.0
 40
0.0
 40
0.0
 40
0.0
 40
0.0769230769230769
 40
0.0769230769230769
 40
0.0769230769230769
 40
0.0769230769230769
 40
0.1538461538461539
 40
0.1538461538461539
 40
0.1538461538461539
 40
0.1538461538461539
 40
0.2307692307692308
 40
0.2307692307692308
 40
0.2307692307692308
 40
0.2307692307692308
 40
0.3076923076923077
 40
0.3076923076923077
 40
0.3076923076923077
 40
0.3076923076923077
 40
0.3846153846153846
 40
0.3846153846153846
 40
0.3846153846153846
 40
0.3846153846153846
 40
0.4615384615384616
 40
0.4615384615384616
 40
0.4615384615384616
 40
0.4615384615384616
 40
0.5384615384615384
 40
0.5384615384615384
 40
0.5384615384615384
 40
0.5384615384615384
 40
0.6153846153846154
 40
0.6153846153846154
 40
0.6153846153846154
 40
0.6153846153846154
 40
0.6923076923076923
 40
0.6923076923076923
 40
0.6923076923076923
 40
0.6923076923076923
 40
0.7692307692307693
 40
0.7692307692307693
 40
0.7692307692307693
 40
0.7692307692307693
 40
0.8461538461538461
 40
0.8461538461538461
 40
0.8461538461538461
 40
0.8461538461538461
 40
1.0
 40
1.0
 40
1.0
 40
1.0
 10
2.9956
 20
34.80912
 30
0.0
 10
2.83177
 20
34.76001
 30
0.0
 10
2.69165
 20
34.73546
 30
0.0
 10
2.57481
 20
34.73546
 30
0.0
 10
2.57481
 20
34.73546
 30
0.0
 10
2.37542
 20
34.73546
 30
0.0
 10
2.21328
 20
34.8015
 30
0.0
 10
2.0884
 20
34.93316
 30
0.0
 10
2.0884
 20
34.93316
 30
0.0
 10
1.96351
 20
35.06481
 30
0.0
 10
1.90086
 20
35.23542
 30
0.0
 10
1.90086
 20
35.44539
 30
0.0
 10
1.90086
 20
35.44539
 30
0.0
 10
1.90086
 20
35.64901
 30
0.0
 10
1.95589
 20
35.81623
 30
0.0
 10
2.06638
 20
35.94704
 30
0.0
 10
2.06638
 20
35.94704
 30
0.0
 10
2.17687
 20
36.07743
 30
0.0
 10
2.31827
 20
36.14262
 30
0.0
 10
2.49056
 20
36.14262
 30
0.0
 10
2.49056
 20
36.14262
 30
0.0
 10
2.65355
 20
36.14262
 30
0.0
 10
2.7797
 20
36.08462
 30
0.0
 10
2.8686
 20
35.96863
 30
0.0
 10
2.8686
 20
35.96863
 30
0.0
 10
2.9575
 20
35.85264
 30
0.0
 10
3.00195
 20
35.68838
 30
0.0
 10
3.00195
 20
35.47545
 30
0.0
 10
3.00195
 20
35.47545
 30
0.0
 10
3.00195
 20
35.47545
 30
0.0
 10
3.00068
 20
35.40094
 30
0.0
 10
3.00068
 20
35.40094
 30
0.0
 10
3.00068
 20
35.40094
 30
0.0
 10
3.00068
 20
35.40094
 30
0.0
 10
2.14978
 20
35.40094
 30
0.0
 10
2.14978
 20
35.40094
 30
0.0
 10
2.14978
 20
35.40094
 30
0.0
 10
2.18534
 20
35.07921
 30
0.0
 10
2.3424
 20
34.91834
 30
0.0
 10
2.62053
 20
34.91834
 30
0.0
 10
2.62053
 20
34.91834
 30
0.0
 10
2.72255
 20
34.91834
 30
0.0
 10
2.84743
 20
34.94713
 30
0.0
 10
2.9956
 20
35.0047
 30
0.0
 10
2.9956
 20
35.0047
 30
0.0
 10
2.9956
 20
35.0047
 30
0.0
 10
2.9956
 20
34.80912
 30
0.0
 10
2.9956
 20
34.80912
 30
0.0
  0
SPLINE
  5
75
330
1F
100
AcDbEntity
  8
Layer 1
100
AcDbSpline
210
0.0
220
0.0
230
1.0
 70
    11
 71
     3
 72
    16
 73
    12
 74
     0
 42
0.0000000001
 43
0.0000000001
 12
1.0
 22
0.0
 32
0.0
 13
1.0
 23
0.0
 33
0.0
 40
0.0
 40
0.0
 40
0.0
 40
0.0
 40
0.25
 40
0.25
 40
0.25
 40
0.25
 40
0.5
 40
0.5
 40
0.5
 40
0.5
 40
1.0
 40
1.0
 40
1.0
 40
1.0
 10
2.16248
 20
35.58382
 30
0.0
 10
2.16248
 20
35.58382
 30
0.0
 10
2.75684
 20
35.58382
 30
0.0
 10
2.75684
 20
35.58382
 30
0.0
 10
2.75684
 20
35.58382
 30
0.0
 10
2.75684
 20
35.83443
 30
0.0
 10
2.66328
 20
35.95974
 30
0.0
 10
2.47659
 20
35.95974
 30
0.0
 10
2.47659
 20
35.95974
 30
0.0
 10
2.28863
 20
35.95974
 30
0.0
 10
2.18407
 20
35.83443
 30
0.0
 10
2.16248
 20
35.58382
 30
0.0
  0
SPLINE
  5
76
330
1F
100
AcDbEntity
  8
Layer 1
100
AcDbSpline
210
0.0
220
0.0
230
1.0
 70
    11
 71
     3
 72
    44
 73
    40
 74
     0
 42
0.0000000001
 43
0.0000000001
 12
1.0
 22
0.0
 32
0.0
 13
1.0
 23
0.0
 33
0.0
 40
0.0
 40
0.0
 40
0.0
 40
0.0
 40
0.0909090909090909
 40
0.0909090909090909
 40
0.0909090909090909
 40
0.0909090909090909
 40
0.1818181818181818
 40
0.1818181818181818
 40
0.1818181818181818
 40
0.1818181818181818
 40
0.2727272727272727
 40
0.2727272727272727
 40
0.2727272727272727
 40
0.2727272727272727
 40
0.3636363636363636
 40
0.3636363636363636
 40
0.3636363636363636
 40
0.3636363636363636
 40
0.4545454545454545
 40
0.4545454545454545
 40
0.4545454545454545
 40
0.4545454545454545
 40
0.5454545454545454
 40
0.5454545454545454
 40
0.5454545454545454
 40
0.5454545454545454
 40
0.6363636363636364
 40
0.6363636363636364
 40
0.6363636363636364
 40
0.6363636363636364
 40
0.7272727272727273
 40
0.7272727272727273
 40
0.7272727272727273
 40
0.7272727272727273
 40
0.8181818181818182
 40
0.8181818181818182
 40
0.8181818181818182
 40
0.8181818181818182
 40
1.0
 40
1.0
 40
1.0
 40
1.0
 10
3.42274
 20
34.76594
 30
0.0
 10
3.42274
 20
34.76594
 30
0.0
 10
3.42274
 20
36.11214
 30
0.0
 10
3.42274
 20
36.11214
 30
0.0
 10
3.42274
 20
36.11214
 30
0.0
 10
3.42274
 20
36.11214
 30
0.0
 10
3.66658
 20
36.11214
 30
0.0
 10
3.66658
 20
36.11214
 30
0.0
 10
3.66658
 20
36.11214
 30
0.0
 10
3.66658
 20
36.11214
 30
0.0
 10
3.66658
 20
35.85772
 30
0.0
 10
3.66658
 20
35.85772
 30
0.0
 10
3.66658
 20
35.85772
 30
0.0
 10
3.76352
 20
36.0461
 30
0.0
 10
3.90407
 20
36.14008
 30
0.0
 10
4.08864
 20
36.14008
 30
0.0
 10
4.08864
 20
36.14008
 30
0.0
 10
4.11362
 20
36.14008
 30
0.0
 10
4.13987
 20
36.13796
 30
0.0
 10
4.16696
 20
36.13373
 30
0.0
 10
4.16696
 20
36.13373
 30
0.0
 10
4.16696
 20
36.13373
 30
0.0
 10
4.16696
 20
35.90555
 30
0.0
 10
4.16696
 20
35.90555
 30
0.0
 10
4.16696
 20
35.90555
 30
0.0
 10
4.12463
 20
35.91952
 30
0.0
 10
4.08737
 20
35.92672
 30
0.0
 10
4.0552
 20
35.92672
 30
0.0
 10
4.0552
 20
35.92672
 30
0.0
 10
3.90026
 20
35.92672
 30
0.0
 10
3.77072
 20
35.83528
 30
0.0
 10
3.66658
 20
35.65198
 30
0.0
 10
3.66658
 20
35.65198
 30
0.0
 10
3.66658
 20
35.65198
 30
0.0
 10
3.66658
 20
34.76594
 30
0.0
 10
3.66658
 20
34.76594
 30
0.0
 10
3.66658
 20
34.76594
 30
0.0
 10
3.66658
 20
34.76594
 30
0.0
 10
3.42274
 20
34.76594
 30
0.0
 10
3.42274
 20
34.76594
 30
0.0
  0
SPLINE
  5
77
330
1F
100
AcDbEntity
  8
Layer 1
100
AcDbSpline
210
0.0
220
0.0
230
1.0
 70
    11
 71
     3
 72
    20
 73
    16
 74
     0
 42
0.0000000001
 43
0.0000000001
 12
1.0
 22
0.0
 32
0.0
 13
1.0
 23
0.0
 33
0.0
 40
0.0
 40
0.0
 40
0.0
 40
0.0
 40
0.2
 40
0.2
 40
0.2
 40
0.2
 40
0.4
 40
0.4
 40
0.4
 40
0.4
 40
0.6
 40
0.6
 40
0.6
 40
0.6
 40
1.0
 40
1.0
 40
1.0
 40
1.0
 10
4.32486
 20
34.58306
 30
0.0
 10
4.32486
 20
34.58306
 30
0.0
 10
4.32486
 20
34.76594
 30
0.0
 10
4.32486
 20
34.76594
 30
0.0
 10
4.32486
 20
34.76594
 30
0.0
 10
4.32486
 20
34.76594
 30
0.0
 10
5.3815
 20
34.76594
 30
0.0
 10
5.3815
 20
34.76594
 30
0.0
 10
5.3815
 20
34.76594
 30
0.0
 10
5.3815
 20
34.76594
 30
0.0
 10
5.3815
 20
34.58306
 30
0.0
 10
5.3815
 20
34.58306
 30
0.0
 10
5.3815
 20
34.58306
 30
0.0
 10
5.3815
 20
34.58306
 30
0.0
 10
4.32486
 20
34.58306
 30
0.0
 10
4.32486
 20
34.58306
 30
0.0
  0
SPLINE
  5
78
330
1F
100
AcDbEntity
  8
Layer 1
100
AcDbSpline
210
0.0
220
0.0
230
1.0
 70
    11
 71
     3
 72
    80
 73
    76
 74
     0
 42
0.0000000001
 43
0.0000000001
 12
1.0
 22
0.0
 32
0.0
 13
1.0
 23
0.0
 33
0.0
 40
0.0
 40
0.0
 40
0.0
 40
0.0
 40
0.05
 40
0.05
 40
0.05
 40
0.05
 40
0.1
 40
0.1
 40
0.1
 40
0.1
 40
0.15
 40
0.15
 40
0.15
 40
0.15
 40
0.2
 40
0.2
 40
0.2
 40
0.2
 40
0.25
 40
0.25
 40
0.25
 40
0.25
 40
0.3
 40
0.3
 40
0.3
 40
0.3
 40
0.35
 40
0.35
 40
0.35
 40
0.35
 40
0.4
 40
0.4
 40
0.4
 40
0.4
 40
0.45
 40
0.45
 40
0.45
 40
0.45
 40
0.5
 40
0.5
 40
0.5
 40
0.5
 40
0.55
 40
0.55
 40
0.55
 40
0.55
 40
0.6
 40
0.6
 40
0.6
 40
0.6
 40
0.65
 40
0.65
 40
0.65
 40
0.65
 40
0.7
 40
0.7
 40
0.7
 40
0.7
 40
0.75
 40
0.75
 40
0.75
 40
0.75
 40
0.8
 40
0.8
 40
0.8
 40
0.8
 40
0.85
 40
0.85
 40
0.85
 40
0.85
 40
0.9
 40
0.9
 40
0.9
 40
0.9
 40
1.0
 40
1.0
 40
1.0
 40
1.0
 10
6.42586
 20
34.93739
 30
0.0
 10
6.27939
 20
34.80277
 30
0.0
 10
6.13842
 20
34.73546
 30
0.0
 10
6.00295
 20
34.73546
 30
0.0
 10
6.00295
 20
34.73546
 30
0.0
 10
5.89162
 20
34.73546
 30
0.0
 10
5.79891
 20
34.77017
 30
0.0
 10
5.72567
 20
34.84002
 30
0.0
 10
5.72567
 20
34.84002
 30
0.0
 10
5.65201
 20
34.90987
 30
0.0
 10
5.61518
 20
34.99793
 30
0.0
 10
5.61518
 20
35.10418
 30
0.0
 10
5.61518
 20
35.10418
 30
0.0
 10
5.61518
 20
35.25108
 30
0.0
 10
5.67699
 20
35.36411
 30
0.0
 10
5.8006
 20
35.44285
 30
0.0
 10
5.8006
 20
35.44285
 30
0.0
 10
5.92421
 20
35.52159
 30
0.0
 10
6.10159
 20
35.56096
 30
0.0
 10
6.33273
 20
35.56096
 30
0.0
 10
6.33273
 20
35.56096
 30
0.0
 10
6.33273
 20
35.56096
 30
0.0
 10
6.38988
 20
35.56096
 30
0.0
 10
6.38988
 20
35.56096
 30
0.0
 10
6.38988
 20
35.56096
 30
0.0
 10
6.38988
 20
35.56096
 30
0.0
 10
6.38988
 20
35.7231
 30
0.0
 10
6.38988
 20
35.7231
 30
0.0
 10
6.38988
 20
35.7231
 30
0.0
 10
6.38988
 20
35.87931
 30
0.0
 10
6.3086
 20
35.9572
 30
0.0
 10
6.14562
 20
35.9572
 30
0.0
 10
6.14562
 20
35.9572
 30
0.0
 10
6.01946
 20
35.9572
 30
0.0
 10
5.88146
 20
35.91741
 30
0.0
 10
5.73202
 20
35.83782
 30
0.0
 10
5.73202
 20
35.83782
 30
0.0
 10
5.73202
 20
35.83782
 30
0.0
 10
5.73202
 20
36.03848
 30
0.0
 10
5.73202
 20
36.03848
 30
0.0
 10
5.73202
 20
36.03848
 30
0.0
 10
5.89627
 20
36.10621
 30
0.0
 10
6.05121
 20
36.14008
 30
0.0
 10
6.19642
 20
36.14008
 30
0.0
 10
6.19642
 20
36.14008
 30
0.0
 10
6.34585
 20
36.14008
 30
0.0
 10
6.45634
 20
36.10621
 30
0.0
 10
6.52704
 20
36.03806
 30
0.0
 10
6.52704
 20
36.03806
 30
0.0
 10
6.59816
 20
35.9699
 30
0.0
 10
6.63372
 20
35.86491
 30
0.0
 10
6.63372
 20
35.7231
 30
0.0
 10
6.63372
 20
35.7231
 30
0.0
 10
6.63372
 20
35.7231
 30
0.0
 10
6.63372
 20
35.11477
 30
0.0
 10
6.63372
 20
35.11477
 30
0.0
 10
6.63372
 20
35.11477
 30
0.0
 10
6.63372
 20
34.97549
 30
0.0
 10
6.67648
 20
34.90564
 30
0.0
 10
6.76241
 20
34.90564
 30
0.0
 10
6.76241
 20
34.90564
 30
0.0
 10
6.773
 20
34.90564
 30
0.0
 10
6.78866
 20
34.90733
 30
0.0
 10
6.8094
 20
34.91072
 30
0.0
 10
6.8094
 20
34.91072
 30
0.0
 10
6.8094
 20
34.91072
 30
0.0
 10
6.82676
 20
34.77525
 30
0.0
 10
6.82676
 20
34.77525
 30
0.0
 10
6.82676
 20
34.77525
 30
0.0
 10
6.7713
 20
34.74858
 30
0.0
 10
6.71034
 20
34.73546
 30
0.0
 10
6.64346
 20
34.73546
 30
0.0
 10
6.64346
 20
34.73546
 30
0.0
 10
6.52958
 20
34.73546
 30
0.0
 10
6.45719
 20
34.80277
 30
0.0
 10
6.42586
 20
34.93739
 30
0.0
  0
SPLINE
  5
79
330
1F
100
AcDbEntity
  8
Layer 1
100
AcDbSpline
210
0.0
220
0.0
230
1.0
 70
    11
 71
     3
 72
    32
 73
    28
 74
     0
 42
0.0000000001
 43
0.0000000001
 12
1.0
 22
0.0
 32
0.0
 13
1.0
 23
0.0
 33
0.0
 40
0.0
 40
0.0
 40
0.0
 40
0.0
 40
0.125
 40
0.125
 40
0.125
 40
0.125
 40
0.25
 40
0.25
 40
0.25
 40
0.25
 40
0.375
 40
0.375
 40
0.375
 40
0.375
 40
0.5
 40
0.5
 40
0.5
 40
0.5
 40
0.625
 40
0.625
 40
0.625
 40
0.625
 40
0.75
 40
0.75
 40
0.75
 40
0.75
 40
1.0
 40
1.0
 40
1.0
 40
1.0
 10
6.38988
 20
35.07032
 30
0.0
 10
6.38988
 20
35.07032
 30
0.0
 10
6.38988
 20
35.41618
 30
0.0
 10
6.38988
 20
35.41618
 30
0.0
 10
6.38988
 20
35.41618
 30
0.0
 10
6.38988
 20
35.41618
 30
0.0
 10
6.31156
 20
35.41872
 30
0.0
 10
6.31156
 20
35.41872
 30
0.0
 10
6.31156
 20
35.41872
 30
0.0
 10
6.1761
 20
35.41872
 30
0.0
 10
6.06688
 20
35.39374
 30
0.0
 10
5.98348
 20
35.34379
 30
0.0
 10
5.98348
 20
35.34379
 30
0.0
 10
5.90051
 20
35.29341
 30
0.0
 10
5.85902
 20
35.22695
 30
0.0
 10
5.85902
 20
35.14398
 30
0.0
 10
5.85902
 20
35.14398
 30
0.0
 10
5.85902
 20
35.08598
 30
0.0
 10
5.87976
 20
35.03687
 30
0.0
 10
5.92083
 20
34.99666
 30
0.0
 10
5.92083
 20
34.99666
 30
0.0
 10
5.96231
 20
34.95644
 30
0.0
 10
6.01269
 20
34.93612
 30
0.0
 10
6.07238
 20
34.93612
 30
0.0
 10
6.07238
 20
34.93612
 30
0.0
 10
6.17398
 20
34.93612
 30
0.0
 10
6.27981
 20
34.98099
 30
0.0
 10
6.38988
 20
35.07032
 30
0.0
  0
SPLINE
  5
7A
330
1F
100
AcDbEntity
  8
Layer 1
100
AcDbSpline
210
0.0
220
0.0
230
1.0
 70
    11
 71
     3
 72
    60
 73
    56
 74
     0
 42
0.0000000001
 43
0.0000000001
 12
1.0
 22
0.0
 32
0.0
 13
1.0
 23
0.0
 33
0.0
 40
0.0
 40
0.0
 40
0.0
 40
0.0
 40
0.0666666666666667
 40
0.0666666666666667
 40
0.0666666666666667
 40
0.0666666666666667
 40
0.1333333333333333
 40
0.1333333333333333
 40
0.1333333333333333
 40
0.1333333333333333
 40
0.2
 40
0.2
 40
0.2
 40
0.2
 40
0.2666666666666667
 40
0.2666666666666667
 40
0.2666666666666667
 40
0.2666666666666667
 40
0.3333333333333333
 40
0.3333333333333333
 40
0.3333333333333333
 40
0.3333333333333333
 40
0.4
 40
0.4
 40
0.4
 40
0.4
 40
0.4666666666666667
 40
0.4666666666666667
 40
0.4666666666666667
 40
0.4666666666666667
 40
0.5333333333333333
 40
0.5333333333333333
 40
0.5333333333333333
 40
0.5333333333333333
 40
0.6
 40
0.6
 40
0.6
 40
0.6
 40
0.6666666666666666
 40
0.6666666666666666
 40
0.6666666666666666
 40
0.6666666666666666
 40
0.7333333333333333
 40
0.7333333333333333
 40
0.7333333333333333
 40
0.7333333333333333
 40
0.8
 40
0.8
 40
0.8
 40
0.8
 40
0.8666666666666667
 40
0.8666666666666667
 40
0.8666666666666667
 40
0.8666666666666667
 40
1.0
 40
1.0
 40
1.0
 40
1.0
 10
7.13452
 20
34.76594
 30
0.0
 10
7.13452
 20
34.76594
 30
0.0
 10
7.13452
 20
36.11214
 30
0.0
 10
7.13452
 20
36.11214
 30
0.0
 10
7.13452
 20
36.11214
 30
0.0
 10
7.13452
 20
36.11214
 30
0.0
 10
7.37836
 20
36.11214
 30
0.0
 10
7.37836
 20
36.11214
 30
0.0
 10
7.37836
 20
36.11214
 30
0.0
 10
7.37836
 20
36.11214
 30
0.0
 10
7.37836
 20
35.85772
 30
0.0
 10
7.37836
 20
35.85772
 30
0.0
 10
7.37836
 20
35.85772
 30
0.0
 10
7.50748
 20
36.0461
 30
0.0
 10
7.6658
 20
36.14008
 30
0.0
 10
7.85292
 20
36.14008
 30
0.0
 10
7.85292
 20
36.14008
 30
0.0
 10
7.9706
 20
36.14008
 30
0.0
 10
8.06416
 20
36.10325
 30
0.0
 10
8.13316
 20
36.02917
 30
0.0
 10
8.13316
 20
36.02917
 30
0.0
 10
8.20217
 20
35.95551
 30
0.0
 10
8.23688
 20
35.85602
 30
0.0
 10
8.23688
 20
35.73156
 30
0.0
 10
8.23688
 20
35.73156
 30
0.0
 10
8.23688
 20
35.73156
 30
0.0
 10
8.23688
 20
34.76594
 30
0.0
 10
8.23688
 20
34.76594
 30
0.0
 10
8.23688
 20
34.76594
 30
0.0
 10
8.23688
 20
34.76594
 30
0.0
 10
7.99304
 20
34.76594
 30
0.0
 10
7.99304
 20
34.76594
 30
0.0
 10
7.99304
 20
34.76594
 30
0.0
 10
7.99304
 20
34.76594
 30
0.0
 10
7.99304
 20
35.65198
 30
0.0
 10
7.99304
 20
35.65198
 30
0.0
 10
7.99304
 20
35.65198
 30
0.0
 10
7.99304
 20
35.75188
 30
0.0
 10
7.97822
 20
35.823
 30
0.0
 10
7.94901
 20
35.86534
 30
0.0
 10
7.94901
 20
35.86534
 30
0.0
 10
7.91938
 20
35.90809
 30
0.0
 10
7.8707
 20
35.92926
 30
0.0
 10
7.80254
 20
35.92926
 30
0.0
 10
7.80254
 20
35.92926
 30
0.0
 10
7.65268
 20
35.92926
 30
0.0
 10
7.51129
 20
35.83147
 30
0.0
 10
7.37836
 20
35.63589
 30
0.0
 10
7.37836
 20
35.63589
 30
0.0
 10
7.37836
 20
35.63589
 30
0.0
 10
7.37836
 20
34.76594
 30
0.0
 10
7.37836
 20
34.76594
 30
0.0
 10
7.37836
 20
34.76594
 30
0.0
 10
7.37836
 20
34.76594
 30
0.0
 10
7.13452
 20
34.76594
 30
0.0
 10
7.13452
 20
34.76594
 30
0.0
  0
SPLINE
  5
7B
330
1F
100
AcDbEntity
  8
Layer 1
100
AcDbSpline
210
0.0
220
0.0
230
1.0
 70
    11
 71
     3
 72
    36
 73
    32
 74
     0
 42
0.0000000001
 43
0.0000000001
 12
1.0
 22
0.0
 32
0.0
 13
1.0
 23
0.0
 33
0.0
 40
0.0
 40
0.0
 40
0.0
 40
0.0
 40
0.1111111111111111
 40
0.1111111111111111
 40
0.1111111111111111
 40
0.1111111111111111
 40
0.2222222222222222
 40
0.2222222222222222
 40
0.2222222222222222
 40
0.2222222222222222
 40
0.3333333333333333
 40
0.3333333333333333
 40
0.3333333333333333
 40
0.3333333333333333
 40
0.4444444444444444
 40
0.4444444444444444
 40
0.4444444444444444
 40
0.4444444444444444
 40
0.5555555555555556
 40
0.5555555555555556
 40
0.5555555555555556
 40
0.5555555555555556
 40
0.6666666666666666
 40
0.6666666666666666
 40
0.6666666666666666
 40
0.6666666666666666
 40
0.7777777777777778
 40
0.7777777777777778
 40
0.7777777777777778
 40
0.7777777777777778
 40
1.0
 40
1.0
 40
1.0
 40
1.0
 10
8.7906
 20
34.27572
 30
0.0
 10
8.7906
 20
34.27572
 30
0.0
 10
9.00904
 20
34.76425
 30
0.0
 10
9.00904
 20
34.76425
 30
0.0
 10
9.00904
 20
34.76425
 30
0.0
 10
9.00904
 20
34.76425
 30
0.0
 10
8.48749
 20
36.11214
 30
0.0
 10
8.48749
 20
36.11214
 30
0.0
 10
8.48749
 20
36.11214
 30
0.0
 10
8.48749
 20
36.11214
 30
0.0
 10
8.74911
 20
36.11214
 30
0.0
 10
8.74911
 20
36.11214
 30
0.0
 10
8.74911
 20
36.11214
 30
0.0
 10
8.74911
 20
36.11214
 30
0.0
 10
9.13688
 20
35.09275
 30
0.0
 10
9.13688
 20
35.09275
 30
0.0
 10
9.13688
 20
35.09275
 30
0.0
 10
9.13688
 20
35.09275
 30
0.0
 10
9.55048
 20
36.11214
 30
0.0
 10
9.55048
 20
36.11214
 30
0.0
 10
9.55048
 20
36.11214
 30
0.0
 10
9.55048
 20
36.11214
 30
0.0
 10
9.78035
 20
36.11214
 30
0.0
 10
9.78035
 20
36.11214
 30
0.0
 10
9.78035
 20
36.11214
 30
0.0
 10
9.78035
 20
36.11214
 30
0.0
 10
9.0446
 20
34.27572
 30
0.0
 10
9.0446
 20
34.27572
 30
0.0
 10
9.0446
 20
34.27572
 30
0.0
 10
9.0446
 20
34.27572
 30
0.0
 10
8.7906
 20
34.27572
 30
0.0
 10
8.7906
 20
34.27572
 30
0.0
  0
SPLINE
  5
7C
330
1F
100
AcDbEntity
  8
Layer 1
100
AcDbSpline
210
0.0
220
0.0
230
1.0
 70
    11
 71
     3
 72
    60
 73
    56
 74
     0
 42
0.0000000001
 43
0.0000000001
 12
1.0
 22
0.0
 32
0.0
 13
1.0
 23
0.0
 33
0.0
 40
0.0
 40
0.0
 40
0.0
 40
0.0
 40
0.0666666666666667
 40
0.0666666666666667
 40
0.0666666666666667
 40
0.0666666666666667
 40
0.1333333333333333
 40
0.1333333333333333
 40
0.1333333333333333
 40
0.1333333333333333
 40
0.2
 40
0.2
 40
0.2
 40
0.2
 40
0.2666666666666667
 40
0.2666666666666667
 40
0.2666666666666667
 40
0.2666666666666667
 40
0.3333333333333333
 40
0.3333333333333333
 40
0.3333333333333333
 40
0.3333333333333333
 40
0.4
 40
0.4
 40
0.4
 40
0.4
 40
0.4666666666666667
 40
0.4666666666666667
 40
0.4666666666666667
 40
0.4666666666666667
 40
0.5333333333333333
 40
0.5333333333333333
 40
0.5333333333333333
 40
0.5333333333333333
 40
0.6
 40
0.6
 40
0.6
 40
0.6
 40
0.6666666666666666
 40
0.6666666666666666
 40
0.6666666666666666
 40
0.6666666666666666
 40
0.7333333333333333
 40
0.7333333333333333
 40
0.7333333333333333
 40
0.7333333333333333
 40
0.8
 40
0.8
 40
0.8
 40
0.8
 40
0.8666666666666667
 40
0.8666666666666667
 40
0.8666666666666667
 40
0.8666666666666667
 40
1.0
 40
1.0
 40
1.0
 40
1.0
 10
10.97288
 20
34.80658
 30
0.0
 10
10.81498
 20
34.75917
 30
0.0
 10
10.67866
 20
34.73546
 30
0.0
 10
10.56394
 20
34.73546
 30
0.0
 10
10.56394
 20
34.73546
 30
0.0
 10
10.38191
 20
34.73546
 30
0.0
 10
10.2312
 20
34.80277
 30
0.0
 10
10.1114
 20
34.93697
 30
0.0
 10
10.1114
 20
34.93697
 30
0.0
 10
9.99159
 20
35.07159
 30
0.0
 10
9.93148
 20
35.24134
 30
0.0
 10
9.93148
 20
35.44581
 30
0.0
 10
9.93148
 20
35.44581
 30
0.0
 10
9.93148
 20
35.66425
 30
0.0
 10
9.99075
 20
35.83486
 30
0.0
 10
10.10928
 20
35.95678
 30
0.0
 10
10.10928
 20
35.95678
 30
0.0
 10
10.22781
 20
36.07912
 30
0.0
 10
10.39334
 20
36.14008
 30
0.0
 10
10.60585
 20
36.14008
 30
0.0
 10
10.60585
 20
36.14008
 30
0.0
 10
10.71041
 20
36.14008
 30
0.0
 10
10.8281
 20
36.12569
 30
0.0
 10
10.95764
 20
36.0969
 30
0.0
 10
10.95764
 20
36.0969
 30
0.0
 10
10.95764
 20
36.0969
 30
0.0
 10
10.95764
 20
35.89116
 30
0.0
 10
10.95764
 20
35.89116
 30
0.0
 10
10.95764
 20
35.89116
 30
0.0
 10
10.82006
 20
35.9318
 30
0.0
 10
10.70787
 20
35.95212
 30
0.0
 10
10.62151
 20
35.95212
 30
0.0
 10
10.62151
 20
35.95212
 30
0.0
 10
10.49621
 20
35.95212
 30
0.0
 10
10.39588
 20
35.90513
 30
0.0
 10
10.32095
 20
35.81157
 30
0.0
 10
10.32095
 20
35.81157
 30
0.0
 10
10.24602
 20
35.71802
 30
0.0
 10
10.20834
 20
35.59313
 30
0.0
 10
10.20834
 20
35.43735
 30
0.0
 10
10.20834
 20
35.43735
 30
0.0
 10
10.20834
 20
35.28622
 30
0.0
 10
10.24729
 20
35.1643
 30
0.0
 10
10.32476
 20
35.07074
 30
0.0
 10
10.32476
 20
35.07074
 30
0.0
 10
10.40223
 20
34.97761
 30
0.0
 10
10.5034
 20
34.93104
 30
0.0
 10
10.62913
 20
34.93104
 30
0.0
 10
10.62913
 20
34.93104
 30
0.0
 10
10.74047
 20
34.93104
 30
0.0
 10
10.85477
 20
34.95983
 30
0.0
 10
10.97288
 20
35.0174
 30
0.0
 10
10.97288
 20
35.0174
 30
0.0
 10
10.97288
 20
35.0174
 30
0.0
 10
10.97288
 20
34.80658
 30
0.0
 10
10.97288
 20
34.80658
 30
0.0
  0
SPLINE
  5
7D
330
1F
100
AcDbEntity
  8
Layer 1
100
AcDbSpline
210
0.0
220
0.0
230
1.0
 70
    11
 71
     3
 72
    60
 73
    56
 74
     0
 42
0.0000000001
 43
0.0000000001
 12
1.0
 22
0.0
 32
0.0
 13
1.0
 23
0.0
 33
0.0
 40
0.0
 40
0.0
 40
0.0
 40
0.0
 40
0.0666666666666667
 40
0.0666666666666667
 40
0.0666666666666667
 40
0.0666666666666667
 40
0.1333333333333333
 40
0.1333333333333333
 40
0.1333333333333333
 40
0.1333333333333333
 40
0.2
 40
0.2
 40
0.2
 40
0.2
 40
0.2666666666666667
 40
0.2666666666666667
 40
0.2666666666666667
 40
0.2666666666666667
 40
0.3333333333333333
 40
0.3333333333333333
 40
0.3333333333333333
 40
0.3333333333333333
 40
0.4
 40
0.4
 40
0.4
 40
0.4
 40
0.4666666666666667
 40
0.4666666666666667
 40
0.4666666666666667
 40
0.4666666666666667
 40
0.5333333333333333
 40
0.5333333333333333
 40
0.5333333333333333
 40
0.5333333333333333
 40
0.6
 40
0.6
 40
0.6
 40
0.6
 40
0.6666666666666666
 40
0.6666666666666666
 40
0.6666666666666666
 40
0.6666666666666666
 40
0.7333333333333333
 40
0.7333333333333333
 40
0.7333333333333333
 40
0.7333333333333333
 40
0.8
 40
0.8
 40
0.8
 40
0.8
 40
0.8666666666666667
 40
0.8666666666666667
 40
0.8666666666666667
 40
0.8666666666666667
 40
1.0
 40
1.0
 40
1.0
 40
1.0
 10
12.18234
 20
34.76594
 30
0.0
 10
12.18234
 20
34.76594
 30
0.0
 10
12.18234
 20
35.01909
 30
0.0
 10
12.18234
 20
35.01909
 30
0.0
 10
12.18234
 20
35.01909
 30
0.0
 10
12.05238
 20
34.82986
 30
0.0
 10
11.89447
 20
34.73546
 30
0.0
 10
11.70905
 20
34.73546
 30
0.0
 10
11.70905
 20
34.73546
 30
0.0
 10
11.59137
 20
34.73546
 30
0.0
 10
11.49781
 20
34.77229
 30
0.0
 10
11.42838
 20
34.84637
 30
0.0
 10
11.42838
 20
34.84637
 30
0.0
 10
11.35853
 20
34.92046
 30
0.0
 10
11.32382
 20
35.01994
 30
0.0
 10
11.32382
 20
35.14567
 30
0.0
 10
11.32382
 20
35.14567
 30
0.0
 10
11.32382
 20
35.14567
 30
0.0
 10
11.32382
 20
36.11214
 30
0.0
 10
11.32382
 20
36.11214
 30
0.0
 10
11.32382
 20
36.11214
 30
0.0
 10
11.32382
 20
36.11214
 30
0.0
 10
11.56766
 20
36.11214
 30
0.0
 10
11.56766
 20
36.11214
 30
0.0
 10
11.56766
 20
36.11214
 30
0.0
 10
11.56766
 20
36.11214
 30
0.0
 10
11.56766
 20
35.22526
 30
0.0
 10
11.56766
 20
35.22526
 30
0.0
 10
11.56766
 20
35.22526
 30
0.0
 10
11.56766
 20
35.12408
 30
0.0
 10
11.58248
 20
35.05254
 30
0.0
 10
11.61169
 20
35.0102
 30
0.0
 10
11.61169
 20
35.0102
 30
0.0
 10
11.64132
 20
34.96745
 30
0.0
 10
11.69043
 20
34.94628
 30
0.0
 10
11.75943
 20
34.94628
 30
0.0
 10
11.75943
 20
34.94628
 30
0.0
 10
11.90844
 20
34.94628
 30
0.0
 10
12.04984
 20
35.04407
 30
0.0
 10
12.18234
 20
35.24007
 30
0.0
 10
12.18234
 20
35.24007
 30
0.0
 10
12.18234
 20
35.24007
 30
0.0
 10
12.18234
 20
36.11214
 30
0.0
 10
12.18234
 20
36.11214
 30
0.0
 10
12.18234
 20
36.11214
 30
0.0
 10
12.18234
 20
36.11214
 30
0.0
 10
12.42618
 20
36.11214
 30
0.0
 10
12.42618
 20
36.11214
 30
0.0
 10
12.42618
 20
36.11214
 30
0.0
 10
12.42618
 20
36.11214
 30
0.0
 10
12.42618
 20
34.76594
 30
0.0
 10
12.42618
 20
34.76594
 30
0.0
 10
12.42618
 20
34.76594
 30
0.0
 10
12.42618
 20
34.76594
 30
0.0
 10
12.18234
 20
34.76594
 30
0.0
 10
12.18234
 20
34.76594
 30
0.0
  0
SPLINE
  5
7E
330
1F
100
AcDbEntity
  8
Layer 1
100
AcDbSpline
210
0.0
220
0.0
230
1.0
 70
    11
 71
     3
 72
    48
 73
    44
 74
     0
 42
0.0000000001
 43
0.0000000001
 12
1.0
 22
0.0
 32
0.0
 13
1.0
 23
0.0
 33
0.0
 40
0.0
 40
0.0
 40
0.0
 40
0.0
 40
0.0833333333333333
 40
0.0833333333333333
 40
0.0833333333333333
 40
0.0833333333333333
 40
0.1666666666666667
 40
0.1666666666666667
 40
0.1666666666666667
 40
0.1666666666666667
 40
0.25
 40
0.25
 40
0.25
 40
0.25
 40
0.3333333333333333
 40
0.3333333333333333
 40
0.3333333333333333
 40
0.3333333333333333
 40
0.4166666666666667
 40
0.4166666666666667
 40
0.4166666666666667
 40
0.4166666666666667
 40
0.5
 40
0.5
 40
0.5
 40
0.5
 40
0.5833333333333334
 40
0.5833333333333334
 40
0.5833333333333334
 40
0.5833333333333334
 40
0.6666666666666666
 40
0.6666666666666666
 40
0.6666666666666666
 40
0.6666666666666666
 40
0.75
 40
0.75
 40
0.75
 40
0.75
 40
0.8333333333333334
 40
0.8333333333333334
 40
0.8333333333333334
 40
0.8333333333333334
 40
1.0
 40
1.0
 40
1.0
 40
1.0
 10
12.91555
 20
34.7507
 30
0.0
 10
12.91555
 20
34.7507
 30
0.0
 10
12.91555
 20
36.72428
 30
0.0
 10
12.91555
 20
36.72428
 30
0.0
 10
12.91555
 20
36.72428
 30
0.0
 10
12.91555
 20
36.72428
 30
0.0
 10
13.15939
 20
36.72428
 30
0.0
 10
13.15939
 20
36.72428
 30
0.0
 10
13.15939
 20
36.72428
 30
0.0
 10
13.15939
 20
36.72428
 30
0.0
 10
13.15939
 20
35.85772
 30
0.0
 10
13.15939
 20
35.85772
 30
0.0
 10
13.15939
 20
35.85772
 30
0.0
 10
13.2593
 20
36.0461
 30
0.0
 10
13.40958
 20
36.14008
 30
0.0
 10
13.60982
 20
36.14008
 30
0.0
 10
13.60982
 20
36.14008
 30
0.0
 10
13.77195
 20
36.14008
 30
0.0
 10
13.89938
 20
36.08124
 30
0.0
 10
13.99251
 20
35.96313
 30
0.0
 10
13.99251
 20
35.96313
 30
0.0
 10
14.08564
 20
35.84502
 30
0.0
 10
14.13221
 20
35.68373
 30
0.0
 10
14.13221
 20
35.47926
 30
0.0
 10
14.13221
 20
35.47926
 30
0.0
 10
14.13221
 20
35.25658
 30
0.0
 10
14.07929
 20
35.07667
 30
0.0
 10
13.97388
 20
34.94035
 30
0.0
 10
13.97388
 20
34.94035
 30
0.0
 10
13.86847
 20
34.80362
 30
0.0
 10
13.72962
 20
34.73546
 30
0.0
 10
13.55775
 20
34.73546
 30
0.0
 10
13.55775
 20
34.73546
 30
0.0
 10
13.39815
 20
34.73546
 30
0.0
 10
13.26522
 20
34.79642
 30
0.0
 10
13.15939
 20
34.91876
 30
0.0
 10
13.15939
 20
34.91876
 30
0.0
 10
13.15939
 20
34.91876
 30
0.0
 10
13.12976
 20
34.7507
 30
0.0
 10
13.12976
 20
34.7507
 30
0.0
 10
13.12976
 20
34.7507
 30
0.0
 10
13.12976
 20
34.7507
 30
0.0
 10
12.91555
 20
34.7507
 30
0.0
 10
12.91555
 20
34.7507
 30
0.0
  0
SPLINE
  5
7F
330
1F
100
AcDbEntity
  8
Layer 1
100
AcDbSpline
210
0.0
220
0.0
230
1.0
 70
    11
 71
     3
 72
    28
 73
    24
 74
     0
 42
0.0000000001
 43
0.0000000001
 12
1.0
 22
0.0
 32
0.0
 13
1.0
 23
0.0
 33
0.0
 40
0.0
 40
0.0
 40
0.0
 40
0.0
 40
0.1428571428571428
 40
0.1428571428571428
 40
0.1428571428571428
 40
0.1428571428571428
 40
0.2857142857142857
 40
0.2857142857142857
 40
0.2857142857142857
 40
0.2857142857142857
 40
0.4285714285714285
 40
0.4285714285714285
 40
0.4285714285714285
 40
0.4285714285714285
 40
0.5714285714285714
 40
0.5714285714285714
 40
0.5714285714285714
 40
0.5714285714285714
 40
0.7142857142857143
 40
0.7142857142857143
 40
0.7142857142857143
 40
0.7142857142857143
 40
1.0
 40
1.0
 40
1.0
 40
1.0
 10
13.15939
 20
35.08683
 30
0.0
 10
13.28512
 20
34.97464
 30
0.0
 10
13.40492
 20
34.91834
 30
0.0
 10
13.5188
 20
34.91834
 30
0.0
 10
13.5188
 20
34.91834
 30
0.0
 10
13.63098
 20
34.91834
 30
0.0
 10
13.71777
 20
34.96533
 30
0.0
 10
13.77873
 20
35.05889
 30
0.0
 10
13.77873
 20
35.05889
 30
0.0
 10
13.84011
 20
35.15244
 30
0.0
 10
13.87059
 20
35.2841
 30
0.0
 10
13.87059
 20
35.45428
 30
0.0
 10
13.87059
 20
35.45428
 30
0.0
 10
13.87059
 20
35.76924
 30
0.0
 10
13.76645
 20
35.92672
 30
0.0
 10
13.55817
 20
35.92672
 30
0.0
 10
13.55817
 20
35.92672
 30
0.0
 10
13.42186
 20
35.92672
 30
0.0
 10
13.28893
 20
35.85306
 30
0.0
 10
13.15939
 20
35.70532
 30
0.0
 10
13.15939
 20
35.70532
 30
0.0
 10
13.15939
 20
35.70532
 30
0.0
 10
13.15939
 20
35.08683
 30
0.0
 10
13.15939
 20
35.08683
 30
0.0
  0
SPLINE
  5
80
330
1F
100
AcDbEntity
  8
Layer 1
100
AcDbSpline
210
0.0
220
0.0
230
1.0
 70
    11
 71
     3
 72
    20
 73
    16
 74
     0
 42
0.0000000001
 43
0.0000000001
 12
1.0
 22
0.0
 32
0.0
 13
1.0
 23
0.0
 33
0.0
 40
0.0
 40
0.0
 40
0.0
 40
0.0
 40
0.2
 40
0.2
 40
0.2
 40
0.2
 40
0.4
 40
0.4
 40
0.4
 40
0.4
 40
0.6
 40
0.6
 40
0.6
 40
0.6
 40
1.0
 40
1.0
 40
1.0
 40
1.0
 10
14.51406
 20
34.76594
 30
0.0
 10
14.51406
 20
34.76594
 30
0.0
 10
14.51406
 20
36.11214
 30
0.0
 10
14.51406
 20
36.11214
 30
0.0
 10
14.51406
 20
36.11214
 30
0.0
 10
14.51406
 20
36.11214
 30
0.0
 10
14.7579
 20
36.11214
 30
0.0
 10
14.7579
 20
36.11214
 30
0.0
 10
14.7579
 20
36.11214
 30
0.0
 10
14.7579
 20
36.11214
 30
0.0
 10
14.7579
 20
34.76594
 30
0.0
 10
14.7579
 20
34.76594
 30
0.0
 10
14.7579
 20
34.76594
 30
0.0
 10
14.7579
 20
34.76594
 30
0.0
 10
14.51406
 20
34.76594
 30
0.0
 10
14.51406
 20
34.76594
 30
0.0
  0
SPLINE
  5
81
330
1F
100
AcDbEntity
  8
Layer 1
100
AcDbSpline
210
0.0
220
0.0
230
1.0
 70
    11
 71
     3
 72
    20
 73
    16
 74
     0
 42
0.0000000001
 43
0.0000000001
 12
1.0
 22
0.0
 32
0.0
 13
1.0
 23
0.0
 33
0.0
 40
0.0
 40
0.0
 40
0.0
 40
0.0
 40
0.2
 40
0.2
 40
0.2
 40
0.2
 40
0.4
 40
0.4
 40
0.4
 40
0.4
 40
0.6
 40
0.6
 40
0.6
 40
0.6
 40
1.0
 40
1.0
 40
1.0
 40
1.0
 10
14.51406
 20
36.35852
 30
0.0
 10
14.51406
 20
36.35852
 30
0.0
 10
14.51406
 20
36.60236
 30
0.0
 10
14.51406
 20
36.60236
 30
0.0
 10
14.51406
 20
36.60236
 30
0.0
 10
14.51406
 20
36.60236
 30
0.0
 10
14.7579
 20
36.60236
 30
0.0
 10
14.7579
 20
36.60236
 30
0.0
 10
14.7579
 20
36.60236
 30
0.0
 10
14.7579
 20
36.60236
 30
0.0
 10
14.7579
 20
36.35852
 30
0.0
 10
14.7579
 20
36.35852
 30
0.0
 10
14.7579
 20
36.35852
 30
0.0
 10
14.7579
 20
36.35852
 30
0.0
 10
14.51406
 20
36.35852
 30
0.0
 10
14.51406
 20
36.35852
 30
0.0
  0
SPLINE
  5
82
330
1F
100
AcDbEntity
  8
Layer 1
100
AcDbSpline
210
0.0
220
0.0
230
1.0
 70
    11
 71
     3
 72
    60
 73
    56
 74
     0
 42
0.0000000001
 43
0.0000000001
 12
1.0
 22
0.0
 32
0.0
 13
1.0
 23
0.0
 33
0.0
 40
0.0
 40
0.0
 40
0.0
 40
0.0
 40
0.0666666666666667
 40
0.0666666666666667
 40
0.0666666666666667
 40
0.0666666666666667
 40
0.1333333333333333
 40
0.1333333333333333
 40
0.1333333333333333
 40
0.1333333333333333
 40
0.2
 40
0.2
 40
0.2
 40
0.2
 40
0.2666666666666667
 40
0.2666666666666667
 40
0.2666666666666667
 40
0.2666666666666667
 40
0.3333333333333333
 40
0.3333333333333333
 40
0.3333333333333333
 40
0.3333333333333333
 40
0.4
 40
0.4
 40
0.4
 40
0.4
 40
0.4666666666666667
 40
0.4666666666666667
 40
0.4666666666666667
 40
0.4666666666666667
 40
0.5333333333333333
 40
0.5333333333333333
 40
0.5333333333333333
 40
0.5333333333333333
 40
0.6
 40
0.6
 40
0.6
 40
0.6
 40
0.6666666666666666
 40
0.6666666666666666
 40
0.6666666666666666
 40
0.6666666666666666
 40
0.7333333333333333
 40
0.7333333333333333
 40
0.7333333333333333
 40
0.7333333333333333
 40
0.8
 40
0.8
 40
0.8
 40
0.8
 40
0.8666666666666667
 40
0.8666666666666667
 40
0.8666666666666667
 40
0.8666666666666667
 40
1.0
 40
1.0
 40
1.0
 40
1.0
 10
16.18284
 20
34.80658
 30
0.0
 10
16.02494
 20
34.75917
 30
0.0
 10
15.88862
 20
34.73546
 30
0.0
 10
15.7739
 20
34.73546
 30
0.0
 10
15.7739
 20
34.73546
 30
0.0
 10
15.59187
 20
34.73546
 30
0.0
 10
15.44116
 20
34.80277
 30
0.0
 10
15.32136
 20
34.93697
 30
0.0
 10
15.32136
 20
34.93697
 30
0.0
 10
15.20155
 20
35.07159
 30
0.0
 10
15.14144
 20
35.24134
 30
0.0
 10
15.14144
 20
35.44581
 30
0.0
 10
15.14144
 20
35.44581
 30
0.0
 10
15.14144
 20
35.66425
 30
0.0
 10
15.20071
 20
35.83486
 30
0.0
 10
15.31924
 20
35.95678
 30
0.0
 10
15.31924
 20
35.95678
 30
0.0
 10
15.43777
 20
36.07912
 30
0.0
 10
15.6033
 20
36.14008
 30
0.0
 10
15.81581
 20
36.14008
 30
0.0
 10
15.81581
 20
36.14008
 30
0.0
 10
15.92037
 20
36.14008
 30
0.0
 10
16.03806
 20
36.12569
 30
0.0
 10
16.1676
 20
36.0969
 30
0.0
 10
16.1676
 20
36.0969
 30
0.0
 10
16.1676
 20
36.0969
 30
0.0
 10
16.1676
 20
35.89116
 30
0.0
 10
16.1676
 20
35.89116
 30
0.0
 10
16.1676
 20
35.89116
 30
0.0
 10
16.03002
 20
35.9318
 30
0.0
 10
15.91783
 20
35.95212
 30
0.0
 10
15.83147
 20
35.95212
 30
0.0
 10
15.83147
 20
35.95212
 30
0.0
 10
15.70617
 20
35.95212
 30
0.0
 10
15.60584
 20
35.90513
 30
0.0
 10
15.53091
 20
35.81157
 30
0.0
 10
15.53091
 20
35.81157
 30
0.0
 10
15.45598
 20
35.71802
 30
0.0
 10
15.4183
 20
35.59313
 30
0.0
 10
15.4183
 20
35.43735
 30
0.0
 10
15.4183
 20
35.43735
 30
0.0
 10
15.4183
 20
35.28622
 30
0.0
 10
15.45725
 20
35.1643
 30
0.0
 10
15.53472
 20
35.07074
 30
0.0
 10
15.53472
 20
35.07074
 30
0.0
 10
15.61219
 20
34.97761
 30
0.0
 10
15.71336
 20
34.93104
 30
0.0
 10
15.83909
 20
34.93104
 30
0.0
 10
15.83909
 20
34.93104
 30
0.0
 10
15.95043
 20
34.93104
 30
0.0
 10
16.06473
 20
34.95983
 30
0.0
 10
16.18284
 20
35.0174
 30
0.0
 10
16.18284
 20
35.0174
 30
0.0
 10
16.18284
 20
35.0174
 30
0.0
 10
16.18284
 20
34.80658
 30
0.0
 10
16.18284
 20
34.80658
 30
0.0
  0
SPLINE
  5
83
330
1F
100
AcDbEntity
  8
Layer 1
100
AcDbSpline
210
0.0
220
0.0
230
1.0
 70
    11
 71
     3
 72
    20
 73
    16
 74
     0
 42
0.0000000001
 43
0.0000000001
 12
1.0
 22
0.0
 32
0.0
 13
1.0
 23
0.0
 33
0.0
 40
0.0
 40
0.0
 40
0.0
 40
0.0
 40
0.2
 40
0.2
 40
0.2
 40
0.2
 40
0.4
 40
0.4
 40
0.4
 40
0.4
 40
0.6
 40
0.6
 40
0.6
 40
0.6
 40
1.0
 40
1.0
 40
1.0
 40
1.0
 10
16.41186
 20
34.58306
 30
0.0
 10
16.41186
 20
34.58306
 30
0.0
 10
16.41186
 20
34.76594
 30
0.0
 10
16.41186
 20
34.76594
 30
0.0
 10
16.41186
 20
34.76594
 30
0.0
 10
16.41186
 20
34.76594
 30
0.0
 10
17.4685
 20
34.76594
 30
0.0
 10
17.4685
 20
34.76594
 30
0.0
 10
17.4685
 20
34.76594
 30
0.0
 10
17.4685
 20
34.76594
 30
0.0
 10
17.4685
 20
34.58306
 30
0.0
 10
17.4685
 20
34.58306
 30
0.0
 10
17.4685
 20
34.58306
 30
0.0
 10
17.4685
 20
34.58306
 30
0.0
 10
16.41186
 20
34.58306
 30
0.0
 10
16.41186
 20
34.58306
 30
0.0
  0
SPLINE
  5
84
330
1F
100
AcDbEntity
  8
Layer 1
100
AcDbSpline
210
0.0
220
0.0
230
1.0
 70
    11
 71
     3
 72
    32
 73
    28
 74
     0
 42
0.0000000001
 43
0.0000000001
 12
1.0
 22
0.0
 32
0.0
 13
1.0
 23
0.0
 33
0.0
 40
0.0
 40
0.0
 40
0.0
 40
0.0
 40
0.125
 40
0.125
 40
0.125
 40
0.125
 40
0.25
 40
0.25
 40
0.25
 40
0.25
 40
0.375
 40
0.375
 40
0.375
 40
0.375
 40
0.5
 40
0.5
 40
0.5
 40
0.5
 40
0.625
 40
0.625
 40
0.625
 40
0.625
 40
0.75
 40
0.75
 40
0.75
 40
0.75
 40
1.0
 40
1.0
 40
1.0
 40
1.0
 10
18.09927
 20
34.76594
 30
0.0
 10
18.09927
 20
34.76594
 30
0.0
 10
17.59804
 20
36.11214
 30
0.0
 10
17.59804
 20
36.11214
 30
0.0
 10
17.59804
 20
36.11214
 30
0.0
 10
17.59804
 20
36.11214
 30
0.0
 10
17.84188
 20
36.11214
 30
0.0
 10
17.84188
 20
36.11214
 30
0.0
 10
17.84188
 20
36.11214
 30
0.0
 10
17.84188
 20
36.11214
 30
0.0
 10
18.23262
 20
35.06608
 30
0.0
 10
18.23262
 20
35.06608
 30
0.0
 10
18.23262
 20
35.06608
 30
0.0
 10
18.23262
 20
35.06608
 30
0.0
 10
18.64621
 20
36.11214
 30
0.0
 10
18.64621
 20
36.11214
 30
0.0
 10
18.64621
 20
36.11214
 30
0.0
 10
18.64621
 20
36.11214
 30
0.0
 10
18.87566
 20
36.11214
 30
0.0
 10
18.87566
 20
36.11214
 30
0.0
 10
18.87566
 20
36.11214
 30
0.0
 10
18.87566
 20
36.11214
 30
0.0
 10
18.34353
 20
34.76594
 30
0.0
 10
18.34353
 20
34.76594
 30
0.0
 10
18.34353
 20
34.76594
 30
0.0
 10
18.34353
 20
34.76594
 30
0.0
 10
18.09927
 20
34.76594
 30
0.0
 10
18.09927
 20
34.76594
 30
0.0
  0
SPLINE
  5
85
330
1F
100
AcDbEntity
  8
Layer 1
100
AcDbSpline
210
0.0
220
0.0
230
1.0
 70
    11
 71
     3
 72
    36
 73
    32
 74
     0
 42
0.0000000001
 43
0.0000000001
 12
1.0
 22
0.0
 32
0.0
 13
1.0
 23
0.0
 33
0.0
 40
0.0
 40
0.0
 40
0.0
 40
0.0
 40
0.1111111111111111
 40
0.1111111111111111
 40
0.1111111111111111
 40
0.1111111111111111
 40
0.2222222222222222
 40
0.2222222222222222
 40
0.2222222222222222
 40
0.2222222222222222
 40
0.3333333333333333
 40
0.3333333333333333
 40
0.3333333333333333
 40
0.3333333333333333
 40
0.4444444444444444
 40
0.4444444444444444
 40
0.4444444444444444
 40
0.4444444444444444
 40
0.5555555555555556
 40
0.5555555555555556
 40
0.5555555555555556
 40
0.5555555555555556
 40
0.6666666666666666
 40
0.6666666666666666
 40
0.6666666666666666
 40
0.6666666666666666
 40
0.7777777777777778
 40
0.7777777777777778
 40
0.7777777777777778
 40
0.7777777777777778
 40
1.0
 40
1.0
 40
1.0
 40
1.0
 10
19.21306
 20
34.27572
 30
0.0
 10
19.21306
 20
34.27572
 30
0.0
 10
19.4315
 20
34.76425
 30
0.0
 10
19.4315
 20
34.76425
 30
0.0
 10
19.4315
 20
34.76425
 30
0.0
 10
19.4315
 20
34.76425
 30
0.0
 10
18.90995
 20
36.11214
 30
0.0
 10
18.90995
 20
36.11214
 30
0.0
 10
18.90995
 20
36.11214
 30
0.0
 10
18.90995
 20
36.11214
 30
0.0
 10
19.17157
 20
36.11214
 30
0.0
 10
19.17157
 20
36.11214
 30
0.0
 10
19.17157
 20
36.11214
 30
0.0
 10
19.17157
 20
36.11214
 30
0.0
 10
19.55934
 20
35.09275
 30
0.0
 10
19.55934
 20
35.09275
 30
0.0
 10
19.55934
 20
35.09275
 30
0.0
 10
19.55934
 20
35.09275
 30
0.0
 10
19.97294
 20
36.11214
 30
0.0
 10
19.97294
 20
36.11214
 30
0.0
 10
19.97294
 20
36.11214
 30
0.0
 10
19.97294
 20
36.11214
 30
0.0
 10
20.20281
 20
36.11214
 30
0.0
 10
20.20281
 20
36.11214
 30
0.0
 10
20.20281
 20
36.11214
 30
0.0
 10
20.20281
 20
36.11214
 30
0.0
 10
19.46706
 20
34.27572
 30
0.0
 10
19.46706
 20
34.27572
 30
0.0
 10
19.46706
 20
34.27572
 30
0.0
 10
19.46706
 20
34.27572
 30
0.0
 10
19.21306
 20
34.27572
 30
0.0
 10
19.21306
 20
34.27572
 30
0.0
  0
SPLINE
  5
86
330
1F
100
AcDbEntity
  8
Layer 1
100
AcDbSpline
210
0.0
220
0.0
230
1.0
 70
    11
 71
     3
 72
    48
 73
    44
 74
     0
 42
0.0000000001
 43
0.0000000001
 12
1.0
 22
0.0
 32
0.0
 13
1.0
 23
0.0
 33
0.0
 40
0.0
 40
0.0
 40
0.0
 40
0.0
 40
0.0833333333333333
 40
0.0833333333333333
 40
0.0833333333333333
 40
0.0833333333333333
 40
0.1666666666666667
 40
0.1666666666666667
 40
0.1666666666666667
 40
0.1666666666666667
 40
0.25
 40
0.25
 40
0.25
 40
0.25
 40
0.3333333333333333
 40
0.3333333333333333
 40
0.3333333333333333
 40
0.3333333333333333
 40
0.4166666666666667
 40
0.4166666666666667
 40
0.4166666666666667
 40
0.4166666666666667
 40
0.5
 40
0.5
 40
0.5
 40
0.5
 40
0.5833333333333334
 40
0.5833333333333334
 40
0.5833333333333334
 40
0.5833333333333334
 40
0.6666666666666666
 40
0.6666666666666666
 40
0.6666666666666666
 40
0.6666666666666666
 40
0.75
 40
0.75
 40
0.75
 40
0.75
 40
0.8333333333333334
 40
0.8333333333333334
 40
0.8333333333333334
 40
0.8333333333333334
 40
1.0
 40
1.0
 40
1.0
 40
1.0
 10
20.46062
 20
34.27572
 30
0.0
 10
20.46062
 20
34.27572
 30
0.0
 10
20.46062
 20
36.11214
 30
0.0
 10
20.46062
 20
36.11214
 30
0.0
 10
20.46062
 20
36.11214
 30
0.0
 10
20.46062
 20
36.11214
 30
0.0
 10
20.70446
 20
36.11214
 30
0.0
 10
20.70446
 20
36.11214
 30
0.0
 10
20.70446
 20
36.11214
 30
0.0
 10
20.70446
 20
36.11214
 30
0.0
 10
20.70446
 20
35.85772
 30
0.0
 10
20.70446
 20
35.85772
 30
0.0
 10
20.70446
 20
35.85772
 30
0.0
 10
20.80437
 20
36.0461
 30
0.0
 10
20.95465
 20
36.14008
 30
0.0
 10
21.15489
 20
36.14008
 30
0.0
 10
21.15489
 20
36.14008
 30
0.0
 10
21.31702
 20
36.14008
 30
0.0
 10
21.44445
 20
36.08124
 30
0.0
 10
21.53758
 20
35.96313
 30
0.0
 10
21.53758
 20
35.96313
 30
0.0
 10
21.63071
 20
35.84502
 30
0.0
 10
21.67728
 20
35.68373
 30
0.0
 10
21.67728
 20
35.47926
 30
0.0
 10
21.67728
 20
35.47926
 30
0.0
 10
21.67728
 20
35.25658
 30
0.0
 10
21.62436
 20
35.07667
 30
0.0
 10
21.51895
 20
34.94035
 30
0.0
 10
21.51895
 20
34.94035
 30
0.0
 10
21.41354
 20
34.80362
 30
0.0
 10
21.27469
 20
34.73546
 30
0.0
 10
21.10282
 20
34.73546
 30
0.0
 10
21.10282
 20
34.73546
 30
0.0
 10
20.94322
 20
34.73546
 30
0.0
 10
20.81029
 20
34.79642
 30
0.0
 10
20.70446
 20
34.91876
 30
0.0
 10
20.70446
 20
34.91876
 30
0.0
 10
20.70446
 20
34.91876
 30
0.0
 10
20.70446
 20
34.27572
 30
0.0
 10
20.70446
 20
34.27572
 30
0.0
 10
20.70446
 20
34.27572
 30
0.0
 10
20.70446
 20
34.27572
 30
0.0
 10
20.46062
 20
34.27572
 30
0.0
 10
20.46062
 20
34.27572
 30
0.0
  0
SPLINE
  5
87
330
1F
100
AcDbEntity
  8
Layer 1
100
AcDbSpline
210
0.0
220
0.0
230
1.0
 70
    11
 71
     3
 72
    28
 73
    24
 74
     0
 42
0.0000000001
 43
0.0000000001
 12
1.0
 22
0.0
 32
0.0
 13
1.0
 23
0.0
 33
0.0
 40
0.0
 40
0.0
 40
0.0
 40
0.0
 40
0.1428571428571428
 40
0.1428571428571428
 40
0.1428571428571428
 40
0.1428571428571428
 40
0.2857142857142857
 40
0.2857142857142857
 40
0.2857142857142857
 40
0.2857142857142857
 40
0.4285714285714285
 40
0.4285714285714285
 40
0.4285714285714285
 40
0.4285714285714285
 40
0.5714285714285714
 40
0.5714285714285714
 40
0.5714285714285714
 40
0.5714285714285714
 40
0.7142857142857143
 40
0.7142857142857143
 40
0.7142857142857143
 40
0.7142857142857143
 40
1.0
 40
1.0
 40
1.0
 40
1.0
 10
20.70446
 20
35.08683
 30
0.0
 10
20.83019
 20
34.97464
 30
0.0
 10
20.94999
 20
34.91834
 30
0.0
 10
21.06387
 20
34.91834
 30
0.0
 10
21.06387
 20
34.91834
 30
0.0
 10
21.17605
 20
34.91834
 30
0.0
 10
21.26284
 20
34.96533
 30
0.0
 10
21.3238
 20
35.05889
 30
0.0
 10
21.3238
 20
35.05889
 30
0.0
 10
21.38518
 20
35.15244
 30
0.0
 10
21.41566
 20
35.2841
 30
0.0
 10
21.41566
 20
35.45428
 30
0.0
 10
21.41566
 20
35.45428
 30
0.0
 10
21.41566
 20
35.76924
 30
0.0
 10
21.31152
 20
35.92672
 30
0.0
 10
21.10324
 20
35.92672
 30
0.0
 10
21.10324
 20
35.92672
 30
0.0
 10
20.96693
 20
35.92672
 30
0.0
 10
20.834
 20
35.85306
 30
0.0
 10
20.70446
 20
35.70532
 30
0.0
 10
20.70446
 20
35.70532
 30
0.0
 10
20.70446
 20
35.70532
 30
0.0
 10
20.70446
 20
35.08683
 30
0.0
 10
20.70446
 20
35.08683
 30
0.0
  0
SPLINE
  5
88
330
1F
100
AcDbEntity
  8
Layer 1
100
AcDbSpline
210
0.0
220
0.0
230
1.0
 70
    11
 71
     3
 72
    52
 73
    48
 74
     0
 42
0.0000000001
 43
0.0000000001
 12
1.0
 22
0.0
 32
0.0
 13
1.0
 23
0.0
 33
0.0
 40
0.0
 40
0.0
 40
0.0
 40
0.0
 40
0.0769230769230769
 40
0.0769230769230769
 40
0.0769230769230769
 40
0.0769230769230769
 40
0.1538461538461539
 40
0.1538461538461539
 40
0.1538461538461539
 40
0.1538461538461539
 40
0.2307692307692308
 40
0.2307692307692308
 40
0.2307692307692308
 40
0.2307692307692308
 40
0.3076923076923077
 40
0.3076923076923077
 40
0.3076923076923077
 40
0.3076923076923077
 40
0.3846153846153846
 40
0.3846153846153846
 40
0.3846153846153846
 40
0.3846153846153846
 40
0.4615384615384616
 40
0.4615384615384616
 40
0.4615384615384616
 40
0.4615384615384616
 40
0.5384615384615384
 40
0.5384615384615384
 40
0.5384615384615384
 40
0.5384615384615384
 40
0.6153846153846154
 40
0.6153846153846154
 40
0.6153846153846154
 40
0.6153846153846154
 40
0.6923076923076923
 40
0.6923076923076923
 40
0.6923076923076923
 40
0.6923076923076923
 40
0.7692307692307693
 40
0.7692307692307693
 40
0.7692307692307693
 40
0.7692307692307693
 40
0.8461538461538461
 40
0.8461538461538461
 40
0.8461538461538461
 40
0.8461538461538461
 40
1.0
 40
1.0
 40
1.0
 40
1.0
 10
23.04719
 20
34.80912
 30
0.0
 10
22.88336
 20
34.76001
 30
0.0
 10
22.74324
 20
34.73546
 30
0.0
 10
22.6264
 20
34.73546
 30
0.0
 10
22.6264
 20
34.73546
 30
0.0
 10
22.42701
 20
34.73546
 30
0.0
 10
22.26487
 20
34.8015
 30
0.0
 10
22.13999
 20
34.93316
 30
0.0
 10
22.13999
 20
34.93316
 30
0.0
 10
22.0151
 20
35.06481
 30
0.0
 10
21.95245
 20
35.23542
 30
0.0
 10
21.95245
 20
35.44539
 30
0.0
 10
21.95245
 20
35.44539
 30
0.0
 10
21.95245
 20
35.64901
 30
0.0
 10
22.00748
 20
35.81623
 30
0.0
 10
22.11797
 20
35.94704
 30
0.0
 10
22.11797
 20
35.94704
 30
0.0
 10
22.22846
 20
36.07743
 30
0.0
 10
22.36986
 20
36.14262
 30
0.0
 10
22.54215
 20
36.14262
 30
0.0
 10
22.54215
 20
36.14262
 30
0.0
 10
22.70514
 20
36.14262
 30
0.0
 10
22.83129
 20
36.08462
 30
0.0
 10
22.92019
 20
35.96863
 30
0.0
 10
22.92019
 20
35.96863
 30
0.0
 10
23.00909
 20
35.85264
 30
0.0
 10
23.05354
 20
35.68838
 30
0.0
 10
23.05354
 20
35.47545
 30
0.0
 10
23.05354
 20
35.47545
 30
0.0
 10
23.05354
 20
35.47545
 30
0.0
 10
23.05227
 20
35.40094
 30
0.0
 10
23.05227
 20
35.40094
 30
0.0
 10
23.05227
 20
35.40094
 30
0.0
 10
23.05227
 20
35.40094
 30
0.0
 10
22.20137
 20
35.40094
 30
0.0
 10
22.20137
 20
35.40094
 30
0.0
 10
22.20137
 20
35.40094
 30
0.0
 10
22.23693
 20
35.07921
 30
0.0
 10
22.39399
 20
34.91834
 30
0.0
 10
22.67212
 20
34.91834
 30
0.0
 10
22.67212
 20
34.91834
 30
0.0
 10
22.77414
 20
34.91834
 30
0.0
 10
22.89902
 20
34.94713
 30
0.0
 10
23.04719
 20
35.0047
 30
0.0
 10
23.04719
 20
35.0047
 30
0.0
 10
23.04719
 20
35.0047
 30
0.0
 10
23.04719
 20
34.80912
 30
0.0
 10
23.04719
 20
34.80912
 30
0.0
  0
SPLINE
  5
89
330
1F
100
AcDbEntity
  8
Layer 1
100
AcDbSpline
210
0.0
220
0.0
230
1.0
 70
    11
 71
     3
 72
    16
 73
    12
 74
     0
 42
0.0000000001
 43
0.0000000001
 12
1.0
 22
0.0
 32
0.0
 13
1.0
 23
0.0
 33
0.0
 40
0.0
 40
0.0
 40
0.0
 40
0.0
 40
0.25
 40
0.25
 40
0.25
 40
0.25
 40
0.5
 40
0.5
 40
0.5
 40
0.5
 40
1.0
 40
1.0
 40
1.0
 40
1.0
 10
22.21407
 20
35.58382
 30
0.0
 10
22.21407
 20
35.58382
 30
0.0
 10
22.80843
 20
35.58382
 30
0.0
 10
22.80843
 20
35.58382
 30
0.0
 10
22.80843
 20
35.58382
 30
0.0
 10
22.80843
 20
35.83443
 30
0.0
 10
22.71487
 20
35.95974
 30
0.0
 10
22.52818
 20
35.95974
 30
0.0
 10
22.52818
 20
35.95974
 30
0.0
 10
22.34022
 20
35.95974
 30
0.0
 10
22.23566
 20
35.83443
 30
0.0
 10
22.21407
 20
35.58382
 30
0.0
  0
SPLINE
  5
8A
330
1F
100
AcDbEntity
  8
Layer 1
100
AcDbSpline
210
0.0
220
0.0
230
1.0
 70
    11
 71
     3
 72
    44
 73
    40
 74
     0
 42
0.0000000001
 43
0.0000000001
 12
1.0
 22
0.0
 32
0.0
 13
1.0
 23
0.0
 33
0.0
 40
0.0
 40
0.0
 40
0.0
 40
0.0
 40
0.0909090909090909
 40
0.0909090909090909
 40
0.0909090909090909
 40
0.0909090909090909
 40
0.1818181818181818
 40
0.1818181818181818
 40
0.1818181818181818
 40
0.1818181818181818
 40
0.2727272727272727
 40
0.2727272727272727
 40
0.2727272727272727
 40
0.2727272727272727
 40
0.3636363636363636
 40
0.3636363636363636
 40
0.3636363636363636
 40
0.3636363636363636
 40
0.4545454545454545
 40
0.4545454545454545
 40
0.4545454545454545
 40
0.4545454545454545
 40
0.5454545454545454
 40
0.5454545454545454
 40
0.5454545454545454
 40
0.5454545454545454
 40
0.6363636363636364
 40
0.6363636363636364
 40
0.6363636363636364
 40
0.6363636363636364
 40
0.7272727272727273
 40
0.7272727272727273
 40
0.7272727272727273
 40
0.7272727272727273
 40
0.8181818181818182
 40
0.8181818181818182
 40
0.8181818181818182
 40
0.8181818181818182
 40
1.0
 40
1.0
 40
1.0
 40
1.0
 10
23.47433
 20
34.76594
 30
0.0
 10
23.47433
 20
34.76594
 30
0.0
 10
23.47433
 20
36.11214
 30
0.0
 10
23.47433
 20
36.11214
 30
0.0
 10
23.47433
 20
36.11214
 30
0.0
 10
23.47433
 20
36.11214
 30
0.0
 10
23.71817
 20
36.11214
 30
0.0
 10
23.71817
 20
36.11214
 30
0.0
 10
23.71817
 20
36.11214
 30
0.0
 10
23.71817
 20
36.11214
 30
0.0
 10
23.71817
 20
35.85772
 30
0.0
 10
23.71817
 20
35.85772
 30
0.0
 10
23.71817
 20
35.85772
 30
0.0
 10
23.81511
 20
36.0461
 30
0.0
 10
23.95566
 20
36.14008
 30
0.0
 10
24.14023
 20
36.14008
 30
0.0
 10
24.14023
 20
36.14008
 30
0.0
 10
24.16521
 20
36.14008
 30
0.0
 10
24.19146
 20
36.13796
 30
0.0
 10
24.21855
 20
36.13373
 30
0.0
 10
24.21855
 20
36.13373
 30
0.0
 10
24.21855
 20
36.13373
 30
0.0
 10
24.21855
 20
35.90555
 30
0.0
 10
24.21855
 20
35.90555
 30
0.0
 10
24.21855
 20
35.90555
 30
0.0
 10
24.17622
 20
35.91952
 30
0.0
 10
24.13896
 20
35.92672
 30
0.0
 10
24.10679
 20
35.92672
 30
0.0
 10
24.10679
 20
35.92672
 30
0.0
 10
23.95185
 20
35.92672
 30
0.0
 10
23.82231
 20
35.83528
 30
0.0
 10
23.71817
 20
35.65198
 30
0.0
 10
23.71817
 20
35.65198
 30
0.0
 10
23.71817
 20
35.65198
 30
0.0
 10
23.71817
 20
34.76594
 30
0.0
 10
23.71817
 20
34.76594
 30
0.0
 10
23.71817
 20
34.76594
 30
0.0
 10
23.71817
 20
34.76594
 30
0.0
 10
23.47433
 20
34.76594
 30
0.0
 10
23.47433
 20
34.76594
 30
0.0
  0
LWPOLYLINE
  5
8B
330
1F
100
AcDbEntity
  8
Layer 1
370
    53
100
AcDbPolyline
 90
        5
 70
     1
 43
0.0
 10
-17.50001
 20
-23.00001
 10
-13.50001
 20
-23.00001
 10
-13.50001
 20
-19.00001
 10
-17.50001
 20
-19.00001
 10
-17.50001
 20
-23.00001
  0
LWPOLYLINE
  5
8C
330
1F
100
AcDbEntity
  8
Layer 1
370
    53
100
AcDbPolyline
 90
        5
 70
     1
 43
0.0
 10
-17.50001
 20
-21.00001
 10
-15.50001
 20
-21.00001
 10
-15.50001
 20
-19.00001
 10
-17.50001
 20
-19.00001
 10
-17.50001
 20
-21.00001
  0
LWPOLYLINE
  5
8D
330
1F
100
AcDbEntity
  8
Layer 1
370
    53
100
AcDbPolyline
 90
        5
 70
     1
 43
0.0
 10
-15.50001
 20
-21.00001
 10
-13.50001
 20
-21.00001
 10
-13.50001
 20
-19.00001
 10
-15.50001
 20
-19.00001
 10
-15.50001
 20
-21.00001
  0
LWPOLYLINE
  5
8E
330
1F
100
AcDbEntity
  8
Layer 1
370
    53
100
AcDbPolyline
 90
        5
 70
     1
 43
0.0
 10
-17.50001
 20
-23.00001
 10
-15.50001
 20
-23.00001
 10
-15.50001
 20
-21.00001
 10
-17.50001
 20
-21.00001
 10
-17.50001
 20
-23.00001
  0
LWPOLYLINE
  5
8F
330
1F
100
AcDbEntity
  8
Layer 1
370
    53
100
AcDbPolyline
 90
        5
 70
     1
 43
0.0
 10
-15.50001
 20
-23.00001
 10
-13.50001
 20
-23.00001
 10
-13.50001
 20
-21.00001
 10
-15.50001
 20
-21.00001
 10
-15.50001
 20
-23.00001
  0
ELLIPSE
  5
90
330
1F
100
AcDbEntity
  8
Layer 1
370
    53
100
AcDbEllipse
 10
-16.5
 20
-20.0
 30
0.0
 11
0.0
 21
0.25
 31
0.0
210
0.0
220
0.0
230
1.0
 40
1.0
 41
0.0
 42
6.283185307179586
  0
ELLIPSE
  5
91
330
1F
100
AcDbEntity
  8
Layer 1
370
    53
100
AcDbEllipse
 10
-14.5
 20
-20.0
 30
0.0
 11
0.0
 21
0.25
 31
0.0
210
0.0
220
0.0
230
1.0
 40
1.0
 41
0.0
 42
6.283185307179586
  0
ELLIPSE
  5
92
330
1F
100
AcDbEntity
  8
Layer 1
370
    53
100
AcDbEllipse
 10
-16.5
 20
-22.0
 30
0.0
 11
0.0
 21
0.25
 31
0.0
210
0.0
220
0.0
230
1.0
 40
1.0
 41
0.0
 42
6.283185307179586
  0
ELLIPSE
  5
93
330
1F
100
AcDbEntity
  8
Layer 1
370
    53
100
AcDbEllipse
 10
-14.5
 20
-22.0
 30
0.0
 11
0.0
 21
0.25
 31
0.0
210
0.0
220
0.0
230
1.0
 40
1.0
 41
0.0
 42
6.283185307179586
  0
LWPOLYLINE
  5
94
330
1F
100
AcDbEntity
  8
Layer 1
370
    53
100
AcDbPolyline
 90
        5
 70
     1
 43
0.0
 10
13.5
 20
-23.00001
 10
17.5
 20
-23.00001
 10
17.5
 20
-19.00001
 10
13.5
 20
-19.00001
 10
13.5
 20
-23.00001
  0
LWPOLYLINE
  5
95
330
1F
100
AcDbEntity
  8
Layer 1
370
    53
100
AcDbPolyline
 90
        5
 70
     1
 43
0.0
 10
13.5
 20
-21.00001
 10
15.5
 20
-21.00001
 10
15.5
 20
-19.00001
 10
13.5
 20
-19.00001
 10
13.5
 20
-21.00001
  0
LWPOLYLINE
  5
96
330
1F
100
AcDbEntity
  8
Layer 1
370
    53
100
AcDbPolyline
 90
        5
 70
     1
 43
0.0
 10
15.5
 20
-21.00001
 10
17.5
 20
-21.00001
 10
17.5
 20
-19.00001
 10
15.5
 20
-19.00001
 10
15.5
 20
-21.00001
  0
LWPOLYLINE
  5
97
330
1F
100
AcDbEntity
  8
Layer 1
370
    53
100
AcDbPolyline
 90
        5
 70
     1
 43
0.0
 10
13.5
 20
-23.00001
 10
15.5
 20
-23.00001
 10
15.5
 20
-21.00001
 10
13.5
 20
-21.00001
 10
13.5
 20
-23.00001
  0
LWPOLYLINE
  5
98
330
1F
100
AcDbEntity
  8
Layer 1
370
    53
100
AcDbPolyline
 90
        5
 70
     1
 43
0.0
 10
15.5
 20
-23.00001
 10
17.5
 20
-23.00001
 10
17.5
 20
-21.00001
 10
15.5
 20
-21.00001
 10
15.5
 20
-23.00001
  0
ELLIPSE
  5
99
330
1F
100
AcDbEntity
  8
Layer 1
370
    53
100
AcDbEllipse
 10
14.50001
 20
-20.0
 30
0.0
 11
0.0
 21
0.25
 31
0.0
210
0.0
220
0.0
230
1.0
 40
1.0
 41
0.0
 42
6.283185307179586
  0
ELLIPSE
  5
9A
330
1F
100
AcDbEntity
  8
Layer 1
370
    53
100
AcDbEllipse
 10
16.50001
 20
-20.0
 30
0.0
 11
0.0
 21
0.25
 31
0.0
210
0.0
220
0.0
230
1.0
 40
1.0
 41
0.0
 42
6.283185307179586
  0
ELLIPSE
  5
9B
330
1F
100
AcDbEntity
  8
Layer 1
370
    53
100
AcDbEllipse
 10
14.50001
 20
-22.0
 30
0.0
 11
0.0
 21
0.25
 31
0.0
210
0.0
220
0.0
230
1.0
 40
1.0
 41
0.0
 42
6.283185307179586
  0
ELLIPSE
  5
9C
330
1F
100
AcDbEntity
  8
Layer 1
370
    53
100
AcDbEllipse
 10
16.50001
 20
-22.0
 30
0.0
 11
0.0
 21
0.25
 31
0.0
210
0.0
220
0.0
230
1.0
 40
1.0
 41
0.0
 42
6.283185307179586
  0
LWPOLYLINE
  5
9D
330
1F
100
AcDbEntity
  8
Layer 1
370
    53
100
AcDbPolyline
 90
        5
 70
     1
 43
0.0
 10
-17.5
 20
-23.00001
 10
17.5
 20
-23.00001
 10
17.5
 20
-19.00001
 10
-17.5
 20
-19.00001
 10
-17.5
 20
-23.00001
  0
LWPOLYLINE
  5
9E
330
1F
100
AcDbEntity
  8
Layer 1
370
    53
100
AcDbPolyline
 90
        5
 70
     1
 43
0.0
 10
-9.80001
 20
-20.80001
 10
-8.80001
 20
-20.80001
 10
-8.80001
 20
-19.80001
 10
-9.80001
 20
-19.80001
 10
-9.80001
 20
-20.80001
  0
SPLINE
  5
9F
330
1F
100
AcDbEntity
  8
Layer 1
100
AcDbSpline
210
0.0
220
0.0
230
1.0
 70
    11
 71
     3
 72
    60
 73
    56
 74
     0
 42
0.0000000001
 43
0.0000000001
 12
1.0
 22
0.0
 32
0.0
 13
1.0
 23
0.0
 33
0.0
 40
0.0
 40
0.0
 40
0.0
 40
0.0
 40
0.0666666666666667
 40
0.0666666666666667
 40
0.0666666666666667
 40
0.0666666666666667
 40
0.1333333333333333
 40
0.1333333333333333
 40
0.1333333333333333
 40
0.1333333333333333
 40
0.2
 40
0.2
 40
0.2
 40
0.2
 40
0.2666666666666667
 40
0.2666666666666667
 40
0.2666666666666667
 40
0.2666666666666667
 40
0.3333333333333333
 40
0.3333333333333333
 40
0.3333333333333333
 40
0.3333333333333333
 40
0.4
 40
0.4
 40
0.4
 40
0.4
 40
0.4666666666666667
 40
0.4666666666666667
 40
0.4666666666666667
 40
0.4666666666666667
 40
0.5333333333333333
 40
0.5333333333333333
 40
0.5333333333333333
 40
0.5333333333333333
 40
0.6
 40
0.6
 40
0.6
 40
0.6
 40
0.6666666666666666
 40
0.6666666666666666
 40
0.6666666666666666
 40
0.6666666666666666
 40
0.7333333333333333
 40
0.7333333333333333
 40
0.7333333333333333
 40
0.7333333333333333
 40
0.8
 40
0.8
 40
0.8
 40
0.8
 40
0.8666666666666667
 40
0.8666666666666667
 40
0.8666666666666667
 40
0.8666666666666667
 40
1.0
 40
1.0
 40
1.0
 40
1.0
 10
-9.49887
 20
-20.46067
 30
0.0
 10
-9.49887
 20
-20.46067
 30
0.0
 10
-9.49887
 20
-20.41848
 30
0.0
 10
-9.49887
 20
-20.41848
 30
0.0
 10
-9.49887
 20
-20.41848
 30
0.0
 10
-9.52054
 20
-20.45002
 30
0.0
 10
-9.54685
 20
-20.46575
 30
0.0
 10
-9.57776
 20
-20.46575
 30
0.0
 10
-9.57776
 20
-20.46575
 30
0.0
 10
-9.59737
 20
-20.46575
 30
0.0
 10
-9.61296
 20
-20.45961
 30
0.0
 10
-9.62453
 20
-20.44726
 30
0.0
 10
-9.62453
 20
-20.44726
 30
0.0
 10
-9.63617
 20
-20.43492
 30
0.0
 10
-9.64196
 20
-20.41834
 30
0.0
 10
-9.64196
 20
-20.39738
 30
0.0
 10
-9.64196
 20
-20.39738
 30
0.0
 10
-9.64196
 20
-20.39738
 30
0.0
 10
-9.64196
 20
-20.23631
 30
0.0
 10
-9.64196
 20
-20.23631
 30
0.0
 10
-9.64196
 20
-20.23631
 30
0.0
 10
-9.64196
 20
-20.23631
 30
0.0
 10
-9.60132
 20
-20.23631
 30
0.0
 10
-9.60132
 20
-20.23631
 30
0.0
 10
-9.60132
 20
-20.23631
 30
0.0
 10
-9.60132
 20
-20.23631
 30
0.0
 10
-9.60132
 20
-20.38412
 30
0.0
 10
-9.60132
 20
-20.38412
 30
0.0
 10
-9.60132
 20
-20.38412
 30
0.0
 10
-9.60132
 20
-20.40098
 30
0.0
 10
-9.59885
 20
-20.4129
 30
0.0
 10
-9.59398
 20
-20.41996
 30
0.0
 10
-9.59398
 20
-20.41996
 30
0.0
 10
-9.58904
 20
-20.42709
 30
0.0
 10
-9.58086
 20
-20.43061
 30
0.0
 10
-9.56936
 20
-20.43061
 30
0.0
 10
-9.56936
 20
-20.43061
 30
0.0
 10
-9.54452
 20
-20.43061
 30
0.0
 10
-9.52096
 20
-20.41432
 30
0.0
 10
-9.49887
 20
-20.38165
 30
0.0
 10
-9.49887
 20
-20.38165
 30
0.0
 10
-9.49887
 20
-20.38165
 30
0.0
 10
-9.49887
 20
-20.23631
 30
0.0
 10
-9.49887
 20
-20.23631
 30
0.0
 10
-9.49887
 20
-20.23631
 30
0.0
 10
-9.49887
 20
-20.23631
 30
0.0
 10
-9.45824
 20
-20.23631
 30
0.0
 10
-9.45824
 20
-20.23631
 30
0.0
 10
-9.45824
 20
-20.23631
 30
0.0
 10
-9.45824
 20
-20.23631
 30
0.0
 10
-9.45824
 20
-20.46067
 30
0.0
 10
-9.45824
 20
-20.46067
 30
0.0
 10
-9.45824
 20
-20.46067
 30
0.0
 10
-9.45824
 20
-20.46067
 30
0.0
 10
-9.49887
 20
-20.46067
 30
0.0
 10
-9.49887
 20
-20.46067
 30
0.0
  0
SPLINE
  5
A0
330
1F
100
AcDbEntity
  8
Layer 1
100
AcDbSpline
210
0.0
220
0.0
230
1.0
 70
    11
 71
     3
 72
    92
 73
    88
 74
     0
 42
0.0000000001
 43
0.0000000001
 12
1.0
 22
0.0
 32
0.0
 13
1.0
 23
0.0
 33
0.0
 40
0.0
 40
0.0
 40
0.0
 40
0.0
 40
0.0434782608695652
 40
0.0434782608695652
 40
0.0434782608695652
 40
0.0434782608695652
 40
0.0869565217391304
 40
0.0869565217391304
 40
0.0869565217391304
 40
0.0869565217391304
 40
0.1304347826086956
 40
0.1304347826086956
 40
0.1304347826086956
 40
0.1304347826086956
 40
0.1739130434782609
 40
0.1739130434782609
 40
0.1739130434782609
 40
0.1739130434782609
 40
0.2173913043478261
 40
0.2173913043478261
 40
0.2173913043478261
 40
0.2173913043478261
 40
0.2608695652173913
 40
0.2608695652173913
 40
0.2608695652173913
 40
0.2608695652173913
 40
0.3043478260869565
 40
0.3043478260869565
 40
0.3043478260869565
 40
0.3043478260869565
 40
0.3478260869565217
 40
0.3478260869565217
 40
0.3478260869565217
 40
0.3478260869565217
 40
0.391304347826087
 40
0.391304347826087
 40
0.391304347826087
 40
0.391304347826087
 40
0.4347826086956522
 40
0.4347826086956522
 40
0.4347826086956522
 40
0.4347826086956522
 40
0.4782608695652174
 40
0.4782608695652174
 40
0.4782608695652174
 40
0.4782608695652174
 40
0.5217391304347826
 40
0.5217391304347826
 40
0.5217391304347826
 40
0.5217391304347826
 40
0.5652173913043478
 40
0.5652173913043478
 40
0.5652173913043478
 40
0.5652173913043478
 40
0.6086956521739131
 40
0.6086956521739131
 40
0.6086956521739131
 40
0.6086956521739131
 40
0.6521739130434783
 40
0.6521739130434783
 40
0.6521739130434783
 40
0.6521739130434783
 40
0.6956521739130435
 40
0.6956521739130435
 40
0.6956521739130435
 40
0.6956521739130435
 40
0.7391304347826086
 40
0.7391304347826086
 40
0.7391304347826086
 40
0.7391304347826086
 40
0.782608695652174
 40
0.782608695652174
 40
0.782608695652174
 40
0.782608695652174
 40
0.8260869565217391
 40
0.8260869565217391
 40
0.8260869565217391
 40
0.8260869565217391
 40
0.8695652173913043
 40
0.8695652173913043
 40
0.8695652173913043
 40
0.8695652173913043
 40
0.9130434782608695
 40
0.9130434782608695
 40
0.9130434782608695
 40
0.9130434782608695
 40
1.0
 40
1.0
 40
1.0
 40
1.0
 10
-9.38471
 20
-20.45263
 30
0.0
 10
-9.38471
 20
-20.45263
 30
0.0
 10
-9.38471
 20
-20.41537
 30
0.0
 10
-9.38471
 20
-20.41537
 30
0.0
 10
-9.38471
 20
-20.41537
 30
0.0
 10
-9.35811
 20
-20.42864
 30
0.0
 10
-9.33504
 20
-20.43527
 30
0.0
 10
-9.31536
 20
-20.43527
 30
0.0
 10
-9.31536
 20
-20.43527
 30
0.0
 10
-9.30365
 20
-20.43527
 30
0.0
 10
-9.29391
 20
-20.4321
 30
0.0
 10
-9.28622
 20
-20.42575
 30
0.0
 10
-9.28622
 20
-20.42575
 30
0.0
 10
-9.27853
 20
-20.41947
 30
0.0
 10
-9.27465
 20
-20.41156
 30
0.0
 10
-9.27465
 20
-20.40204
 30
0.0
 10
-9.27465
 20
-20.40204
 30
0.0
 10
-9.27465
 20
-20.38814
 30
0.0
 10
-9.28544
 20
-20.37664
 30
0.0
 10
-9.30703
 20
-20.36754
 30
0.0
 10
-9.30703
 20
-20.36754
 30
0.0
 10
-9.30703
 20
-20.36754
 30
0.0
 10
-9.33081
 20
-20.35745
 30
0.0
 10
-9.33081
 20
-20.35745
 30
0.0
 10
-9.33081
 20
-20.35745
 30
0.0
 10
-9.36588
 20
-20.34291
 30
0.0
 10
-9.38344
 20
-20.32189
 30
0.0
 10
-9.38344
 20
-20.29458
 30
0.0
 10
-9.38344
 20
-20.29458
 30
0.0
 10
-9.38344
 20
-20.27504
 30
0.0
 10
-9.37653
 20
-20.25966
 30
0.0
 10
-9.3627
 20
-20.24844
 30
0.0
 10
-9.3627
 20
-20.24844
 30
0.0
 10
-9.34887
 20
-20.23722
 30
0.0
 10
-9.32989
 20
-20.23165
 30
0.0
 10
-9.30583
 20
-20.23165
 30
0.0
 10
-9.30583
 20
-20.23165
 30
0.0
 10
-9.29334
 20
-20.23165
 30
0.0
 10
-9.27782
 20
-20.23334
 30
0.0
 10
-9.25941
 20
-20.2368
 30
0.0
 10
-9.25941
 20
-20.2368
 30
0.0
 10
-9.25941
 20
-20.2368
 30
0.0
 10
-9.25094
 20
-20.23842
 30
0.0
 10
-9.25094
 20
-20.23842
 30
0.0
 10
-9.25094
 20
-20.23842
 30
0.0
 10
-9.25094
 20
-20.23842
 30
0.0
 10
-9.25094
 20
-20.27229
 30
0.0
 10
-9.25094
 20
-20.27229
 30
0.0
 10
-9.25094
 20
-20.27229
 30
0.0
 10
-9.27359
 20
-20.26551
 30
0.0
 10
-9.29165
 20
-20.26213
 30
0.0
 10
-9.30513
 20
-20.26213
 30
0.0
 10
-9.30513
 20
-20.26213
 30
0.0
 10
-9.31698
 20
-20.26213
 30
0.0
 10
-9.32636
 20
-20.26474
 30
0.0
 10
-9.33349
 20
-20.26989
 30
0.0
 10
-9.33349
 20
-20.26989
 30
0.0
 10
-9.34055
 20
-20.27504
 30
0.0
 10
-9.34407
 20
-20.28195
 30
0.0
 10
-9.34407
 20
-20.29063
 30
0.0
 10
-9.34407
 20
-20.29063
 30
0.0
 10
-9.34407
 20
-20.30284
 30
0.0
 10
-9.3342
 20
-20.31321
 30
0.0
 10
-9.31437
 20
-20.32161
 30
0.0
 10
-9.31437
 20
-20.32161
 30
0.0
 10
-9.31437
 20
-20.32161
 30
0.0
 10
-9.29483
 20
-20.32986
 30
0.0
 10
-9.29483
 20
-20.32986
 30
0.0
 10
-9.29483
 20
-20.32986
 30
0.0
 10
-9.27267
 20
-20.33917
 30
0.0
 10
-9.25701
 20
-20.34905
 30
0.0
 10
-9.24784
 20
-20.35942
 30
0.0
 10
-9.24784
 20
-20.35942
 30
0.0
 10
-9.23859
 20
-20.3698
 30
0.0
 10
-9.23401
 20
-20.38278
 30
0.0
 10
-9.23401
 20
-20.3983
 30
0.0
 10
-9.23401
 20
-20.3983
 30
0.0
 10
-9.23401
 20
-20.41798
 30
0.0
 10
-9.24177
 20
-20.43414
 30
0.0
 10
-9.25736
 20
-20.44677
 30
0.0
 10
-9.25736
 20
-20.44677
 30
0.0
 10
-9.27288
 20
-20.4594
 30
0.0
 10
-9.29278
 20
-20.46575
 30
0.0
 10
-9.31698
 20
-20.46575
 30
0.0
 10
-9.31698
 20
-20.46575
 30
0.0
 10
-9.33561
 20
-20.46575
 30
0.0
 10
-9.35811
 20
-20.46138
 30
0.0
 10
-9.38471
 20
-20.45263
 30
0.0
  0
SPLINE
  5
A1
330
1F
100
AcDbEntity
  8
Layer 1
100
AcDbSpline
210
0.0
220
0.0
230
1.0
 70
    11
 71
     3
 72
    48
 73
    44
 74
     0
 42
0.0000000001
 43
0.0000000001
 12
1.0
 22
0.0
 32
0.0
 13
1.0
 23
0.0
 33
0.0
 40
0.0
 40
0.0
 40
0.0
 40
0.0
 40
0.0833333333333333
 40
0.0833333333333333
 40
0.0833333333333333
 40
0.0833333333333333
 40
0.1666666666666667
 40
0.1666666666666667
 40
0.1666666666666667
 40
0.1666666666666667
 40
0.25
 40
0.25
 40
0.25
 40
0.25
 40
0.3333333333333333
 40
0.3333333333333333
 40
0.3333333333333333
 40
0.3333333333333333
 40
0.4166666666666667
 40
0.4166666666666667
 40
0.4166666666666667
 40
0.4166666666666667
 40
0.5
 40
0.5
 40
0.5
 40
0.5
 40
0.5833333333333334
 40
0.5833333333333334
 40
0.5833333333333334
 40
0.5833333333333334
 40
0.6666666666666666
 40
0.6666666666666666
 40
0.6666666666666666
 40
0.6666666666666666
 40
0.75
 40
0.75
 40
0.75
 40
0.75
 40
0.8333333333333334
 40
0.8333333333333334
 40
0.8333333333333334
 40
0.8333333333333334
 40
1.0
 40
1.0
 40
1.0
 40
1.0
 10
-9.16084
 20
-20.46321
 30
0.0
 10
-9.16084
 20
-20.46321
 30
0.0
 10
-9.16084
 20
-20.13428
 30
0.0
 10
-9.16084
 20
-20.13428
 30
0.0
 10
-9.16084
 20
-20.13428
 30
0.0
 10
-9.16084
 20
-20.13428
 30
0.0
 10
-9.1202
 20
-20.13428
 30
0.0
 10
-9.1202
 20
-20.13428
 30
0.0
 10
-9.1202
 20
-20.13428
 30
0.0
 10
-9.1202
 20
-20.13428
 30
0.0
 10
-9.1202
 20
-20.27871
 30
0.0
 10
-9.1202
 20
-20.27871
 30
0.0
 10
-9.1202
 20
-20.27871
 30
0.0
 10
-9.10355
 20
-20.24731
 30
0.0
 10
-9.0785
 20
-20.23165
 30
0.0
 10
-9.04513
 20
-20.23165
 30
0.0
 10
-9.04513
 20
-20.23165
 30
0.0
 10
-9.01811
 20
-20.23165
 30
0.0
 10
-8.99687
 20
-20.24146
 30
0.0
 10
-8.98135
 20
-20.26114
 30
0.0
 10
-8.98135
 20
-20.26114
 30
0.0
 10
-8.96583
 20
-20.28083
 30
0.0
 10
-8.95807
 20
-20.30771
 30
0.0
 10
-8.95807
 20
-20.34178
 30
0.0
 10
-8.95807
 20
-20.34178
 30
0.0
 10
-8.95807
 20
-20.3789
 30
0.0
 10
-8.96688
 20
-20.40888
 30
0.0
 10
-8.98445
 20
-20.4316
 30
0.0
 10
-8.98445
 20
-20.4316
 30
0.0
 10
-9.00202
 20
-20.45439
 30
0.0
 10
-9.02516
 20
-20.46575
 30
0.0
 10
-9.05381
 20
-20.46575
 30
0.0
 10
-9.05381
 20
-20.46575
 30
0.0
 10
-9.08041
 20
-20.46575
 30
0.0
 10
-9.10256
 20
-20.45559
 30
0.0
 10
-9.1202
 20
-20.4352
 30
0.0
 10
-9.1202
 20
-20.4352
 30
0.0
 10
-9.1202
 20
-20.4352
 30
0.0
 10
-9.12514
 20
-20.46321
 30
0.0
 10
-9.12514
 20
-20.46321
 30
0.0
 10
-9.12514
 20
-20.46321
 30
0.0
 10
-9.12514
 20
-20.46321
 30
0.0
 10
-9.16084
 20
-20.46321
 30
0.0
 10
-9.16084
 20
-20.46321
 30
0.0
  0
SPLINE
  5
A2
330
1F
100
AcDbEntity
  8
Layer 1
100
AcDbSpline
210
0.0
220
0.0
230
1.0
 70
    11
 71
     3
 72
    28
 73
    24
 74
     0
 42
0.0000000001
 43
0.0000000001
 12
1.0
 22
0.0
 32
0.0
 13
1.0
 23
0.0
 33
0.0
 40
0.0
 40
0.0
 40
0.0
 40
0.0
 40
0.1428571428571428
 40
0.1428571428571428
 40
0.1428571428571428
 40
0.1428571428571428
 40
0.2857142857142857
 40
0.2857142857142857
 40
0.2857142857142857
 40
0.2857142857142857
 40
0.4285714285714285
 40
0.4285714285714285
 40
0.4285714285714285
 40
0.4285714285714285
 40
0.5714285714285714
 40
0.5714285714285714
 40
0.5714285714285714
 40
0.5714285714285714
 40
0.7142857142857143
 40
0.7142857142857143
 40
0.7142857142857143
 40
0.7142857142857143
 40
1.0
 40
1.0
 40
1.0
 40
1.0
 10
-9.1202
 20
-20.40719
 30
0.0
 10
-9.09925
 20
-20.42589
 30
0.0
 10
-9.07928
 20
-20.43527
 30
0.0
 10
-9.0603
 20
-20.43527
 30
0.0
 10
-9.0603
 20
-20.43527
 30
0.0
 10
-9.0416
 20
-20.43527
 30
0.0
 10
-9.02714
 20
-20.42744
 30
0.0
 10
-9.01698
 20
-20.41185
 30
0.0
 10
-9.01698
 20
-20.41185
 30
0.0
 10
-9.00675
 20
-20.39625
 30
0.0
 10
-9.00167
 20
-20.37431
 30
0.0
 10
-9.00167
 20
-20.34595
 30
0.0
 10
-9.00167
 20
-20.34595
 30
0.0
 10
-9.00167
 20
-20.29345
 30
0.0
 10
-9.01902
 20
-20.26721
 30
0.0
 10
-9.05374
 20
-20.26721
 30
0.0
 10
-9.05374
 20
-20.26721
 30
0.0
 10
-9.07646
 20
-20.26721
 30
0.0
 10
-9.09861
 20
-20.27948
 30
0.0
 10
-9.1202
 20
-20.30411
 30
0.0
 10
-9.1202
 20
-20.30411
 30
0.0
 10
-9.1202
 20
-20.30411
 30
0.0
 10
-9.1202
 20
-20.40719
 30
0.0
 10
-9.1202
 20
-20.40719
 30
0.0
  0
LWPOLYLINE
  5
A3
330
1F
100
AcDbEntity
  8
Layer 1
370
    53
100
AcDbPolyline
 90
        5
 70
     1
 43
0.0
 10
-17.5
 20
-19.00001
 10
-13.5
 20
-19.00001
 10
-13.5
 20
25.99999
 10
-17.5
 20
25.99999
 10
-17.5
 20
-19.00001
  0
LWPOLYLINE
  5
A4
330
1F
100
AcDbEntity
  8
Layer 1
370
    53
100
AcDbPolyline
 90
        5
 70
     1
 43
0.0
 10
13.5
 20
-19.00001
 10
17.5
 20
-19.00001
 10
17.5
 20
25.99999
 10
13.5
 20
25.99999
 10
13.5
 20
-19.00001
  0
LWPOLYLINE
  5
A5
330
1F
100
AcDbEntity
  8
Layer 1
370
    53
100
AcDbPolyline
 90
        5
 70
     1
 43
0.0
 10
-17.5
 20
25.99999
 10
17.5
 20
25.99999
 10
17.5
 20
27.99999
 10
-17.5
 20
27.99999
 10
-17.5
 20
25.99999
  0
LWPOLYLINE
  5
A6
330
1F
100
AcDbEntity
  8
Layer 1
370
    53
100
AcDbPolyline
 90
        5
 70
     1
 43
0.0
 10
-17.5
 20
1.99999
 10
17.5
 20
1.99999
 10
17.5
 20
3.99999
 10
-17.5
 20
3.99999
 10
-17.5
 20
1.99999
  0
LWPOLYLINE
  5
A7
330
1F
100
AcDbEntity
  8
Layer 1
370
    53
100
AcDbPolyline
 90
        5
 70
     1
 43
0.0
 10
-20.0
 20
-1.50001
 10
-17.5
 20
-1.50001
 10
-17.5
 20
7.49999
 10
-20.0
 20
7.49999
 10
-20.0
 20
-1.50001
  0
LWPOLYLINE
  5
A8
330
1F
100
AcDbEntity
  8
Layer 1
370
    53
100
AcDbPolyline
 90
        5
 70
     1
 43
0.0
 10
-24.0
 20
0.49999
 10
-20.0
 20
0.49999
 10
-20.0
 20
5.49999
 10
-24.0
 20
5.49999
 10
-24.0
 20
0.49999
  0
LWPOLYLINE
  5
A9
330
1F
100
AcDbEntity
  8
Layer 1
370
    53
100
AcDbPolyline
 90
        5
 70
     1
 43
0.0
 10
17.5
 20
0.49999
 10
27.5
 20
0.49999
 10
27.5
 20
5.49999
 10
17.5
 20
5.49999
 10
17.5
 20
0.49999
  0
ENDSEC
  0
SECTION
  2
OBJECTS
  0
DICTIONARY
  5
C
330
0
100
AcDbDictionary
281
     1
  3
ACAD_GROUP
350
D
  3
ACAD_LAYOUT
350
1A
  3
ACAD_MATERIAL
350
3B
  3
ACAD_MLEADERSTYLE
350
CB
  3
ACAD_MLINESTYLE
350
17
  3
ACAD_PLOTSETTINGS
350
19
  3
ACAD_PLOTSTYLENAME
350
E
  3
ACAD_TABLESTYLE
350
CA
  3
ACAD_VISUALSTYLE
350
2A
  0
DICTIONARY
  5
D
102
{ACAD_REACTORS
330
C
102
}
330
C
100
AcDbDictionary
281
     1
  0
DICTIONARY
  5
1A
102
{ACAD_REACTORS
330
C
102
}
330
C
100
AcDbDictionary
281
     1
  3
Layout1
350
1E
  3
Layout2
350
26
  3
Model
350
22
  0
DICTIONARY
  5
3B
102
{ACAD_REACTORS
330
C
102
}
330
C
100
AcDbDictionary
281
     1
  3
ByBlock
350
3D
  3
ByLayer
350
3C
  3
Global
350
3E
  0
DICTIONARY
  5
CB
102
{ACAD_REACTORS
330
C
102
}
330
C
100
AcDbDictionary
281
     1
  0
DICTIONARY
  5
17
102
{ACAD_REACTORS
330
C
102
}
330
C
100
AcDbDictionary
281
     1
  3
Standard
350
18
  0
DICTIONARY
  5
19
102
{ACAD_REACTORS
330
C
102
}
330
C
100
AcDbDictionary
281
     1
  0
ACDBDICTIONARYWDFLT
  5
E
102
{ACAD_REACTORS
330
C
102
}
330
C
100
AcDbDictionary
281
     1
  3
Normal
350
F
100
AcDbDictionaryWithDefault
340
F
  0
DICTIONARY
  5
CA
102
{ACAD_REACTORS
330
C
102
}
330
C
100
AcDbDictionary
281
     1
  0
DICTIONARY
  5
2A
102
{ACAD_REACTORS
330
C
102
}
330
C
100
AcDbDictionary
281
     1
  3
2dWireframe
350
2F
  3
3D Hidden
350
31
  3
3dWireframe
350
30
  3
Basic
350
32
  3
Brighten
350
36
  3
ColorChange
350
3A
  3
Conceptual
350
34
  3
Dim
350
35
  3
Facepattern
350
39
  3
Flat
350
2B
  3
FlatWithEdges
350
2C
  3
Gouraud
350
2D
  3
GouraudWithEdges
350
2E
  3
Linepattern
350
38
  3
Realistic
350
33
  3
Thicken
350
37
  0
LAYOUT
  5
1E
102
{ACAD_REACTORS
330
1A
102
}
330
1A
100
AcDbPlotSettings
  1

  2
none_device
  4

  6

 40
0.0
 41
0.0
 42
0.0
 43
0.0
 44
0.0
 45
0.0
 46
0.0
 47
0.0
 48
0.0
 49
0.0
140
0.0
141
0.0
142
1.0
143
1.0
 70
   688
 72
     0
 73
     0
 74
     5
  7

 75
    16
 76
     0
 77
     2
 78
   300
147
1.0
148
0.0
149
0.0
100
AcDbLayout
  1
Layout1
 70
     1
 71
     1
 10
0.0
 20
0.0
 11
12.0
 21
9.0
 12
0.0
 22
0.0
 32
0.0
 14
1.000000000000000E+20
 24
1.000000000000000E+20
 34
1.000000000000000E+20
 15
-1.000000000000000E+20
 25
-1.000000000000000E+20
 35
-1.000000000000000E+20
146
0.0
 13
0.0
 23
0.0
 33
0.0
 16
1.0
 26
0.0
 36
0.0
 17
0.0
 27
1.0
 37
0.0
 76
     0
330
1B
  0
LAYOUT
  5
26
102
{ACAD_REACTORS
330
1A
102
}
330
1A
100
AcDbPlotSettings
  1

  2
none_device
  4

  6

 40
0.0
 41
0.0
 42
0.0
 43
0.0
 44
0.0
 45
0.0
 46
0.0
 47
0.0
 48
0.0
 49
0.0
140
0.0
141
0.0
142
1.0
143
1.0
 70
   688
 72
     0
 73
     0
 74
     5
  7

 75
    16
 76
     0
 77
     2
 78
   300
147
1.0
148
0.0
149
0.0
100
AcDbLayout
  1
Layout2
 70
     1
 71
     2
 10
0.0
 20
0.0
 11
0.0
 21
0.0
 12
0.0
 22
0.0
 32
0.0
 14
0.0
 24
0.0
 34
0.0
 15
0.0
 25
0.0
 35
0.0
146
0.0
 13
0.0
 23
0.0
 33
0.0
 16
1.0
 26
0.0
 36
0.0
 17
0.0
 27
1.0
 37
0.0
 76
     0
330
23
  0
LAYOUT
  5
22
102
{ACAD_REACTORS
330
1A
102
}
330
1A
100
AcDbPlotSettings
  1

  2
none_device
  4

  6

 40
0.0
 41
0.0
 42
0.0
 43
0.0
 44
0.0
 45
0.0
 46
0.0
 47
0.0
 48
0.0
 49
0.0
140
0.0
141
0.0
142
1.0
143
1.0
 70
  1712
 72
     0
 73
     0
 74
     0
  7

 75
     0
 76
     0
 77
     2
 78
   300
147
1.0
148
0.0
149
0.0
100
AcDbLayout
  1
Model
 70
     1
 71
     0
 10
0.0
 20
0.0
 11
12.0
 21
9.0
 12
0.0
 22
0.0
 32
0.0
 14
-27.21855
 24
-25.22646
 34
0.0
 15
31.22646
 25
36.72428
 35
0.0
146
0.0
 13
0.0
 23
0.0
 33
0.0
 16
1.0
 26
0.0
 36
0.0
 17
0.0
 27
1.0
 37
0.0
 76
     0
330
1F
331
29
  0
MATERIAL
  5
3D
102
{ACAD_REACTORS
330
3B
102
}
330
3B
100
AcDbMaterial
  1
ByBlock
 72
     1
 94
      127
  0
MATERIAL
  5
3C
102
{ACAD_REACTORS
330
3B
102
}
330
3B
100
AcDbMaterial
  1
ByLayer
 72
     1
 94
      127
  0
MATERIAL
  5
3E
102
{ACAD_REACTORS
330
3B
102
}
330
3B
100
AcDbMaterial
  1
Global
 72
     1
 94
      127
  0
MLINESTYLE
  5
18
102
{ACAD_REACTORS
330
17
102
}
330
17
100
AcDbMlineStyle
  2
Standard
 70
     0
  3

 62
   256
 51
90.0
 52
90.0
 71
     2
 49
0.5
 62
   256
  6
BYLAYER
 49
-0.5
 62
   256
  6
BYLAYER
  0
ACDBPLACEHOLDER
  5
F
102
{ACAD_REACTORS
330
E
102
}
330
E
  0
VISUALSTYLE
  5
2F
102
{ACAD_REACTORS
330
2A
102
}
102
{ACAD_XDICTIONARY
360
B2
102
}
330
2A
100
AcDbVisualStyle
  2
2dWireframe
 70
     4
 71
     0
 72
     2
 73
     0
 90
        0
 40
-0.6
 41
-30.0
 62
     5
 63
     7
421
 16777215
 74
     1
 91
        4
 64
     7
 65
   257
 75
     1
175
     1
 42
1.0
 92
        0
 66
   257
 43
1.0
 76
     1
 77
     6
 78
     2
 67
     7
 79
     5
170
     0
171
     0
290
     0
174
     0
 93
        1
 44
0.0
173
     0
291
     0
 45
0.0
  0
VISUALSTYLE
  5
31
102
{ACAD_REACTORS
330
2A
102
}
102
{ACAD_XDICTIONARY
360
B6
102
}
330
2A
100
AcDbVisualStyle
  2
3D Hidden
 70
     6
 71
     1
 72
     2
 73
     2
 90
        0
 40
-0.6
 41
-30.0
 62
     5
 63
     7
421
 16777215
 74
     2
 91
        2
 64
     7
 65
   257
 75
     2
175
     1
 42
40.0
 92
        0
 66
   257
 43
1.0
 76
     1
 77
     6
 78
     2
 67
     7
 79
     3
170
     0
171
     0
290
     0
174
     0
 93
        1
 44
0.0
173
     0
291
     0
 45
0.0
  0
VISUALSTYLE
  5
30
102
{ACAD_REACTORS
330
2A
102
}
102
{ACAD_XDICTIONARY
360
B4
102
}
330
2A
100
AcDbVisualStyle
  2
3dWireframe
 70
     5
 71
     0
 72
     2
 73
     0
 90
        0
 40
-0.6
 41
-30.0
 62
     5
 63
     7
421
 16777215
 74
     1
 91
        4
 64
     7
 65
   257
 75
     1
175
     1
 42
1.0
 92
        0
 66
   257
 43
1.0
 76
     1
 77
     6
 78
     2
 67
     7
 79
     5
170
     0
171
     0
290
     0
174
     0
 93
        1
 44
0.0
173
     0
291
     0
 45
0.0
  0
VISUALSTYLE
  5
32
102
{ACAD_REACTORS
330
2A
102
}
102
{ACAD_XDICTIONARY
360
B8
102
}
330
2A
100
AcDbVisualStyle
  2
Basic
 70
     7
 71
     1
 72
     0
 73
     1
 90
        0
 40
-0.6
 41
-30.0
 62
     5
 63
     7
421
 16777215
 74
     0
 91
        4
 64
     7
 65
   257
 75
     1
175
     1
 42
1.0
 92
        8
 66
     7
 43
1.0
 76
     1
 77
     6
 78
     2
 67
     7
 79
     5
170
     0
171
     0
290
     0
174
     0
 93
        1
 44
0.0
173
     0
291
     1
 45
0.0
  0
VISUALSTYLE
  5
36
102
{ACAD_REACTORS
330
2A
102
}
102
{ACAD_XDICTIONARY
360
C0
102
}
330
2A
100
AcDbVisualStyle
  2
Brighten
 70
    12
 71
     2
 72
     2
 73
     0
 90
        0
 40
-0.6
 41
-30.0
 62
     5
 63
     7
421
 16777215
 74
     1
 91
        4
 64
     7
 65
   257
 75
     1
175
     1
 42
1.0
 92
        8
 66
     7
 43
1.0
 76
     1
 77
     6
 78
     2
 67
     7
 79
     5
170
     0
171
     0
290
     0
174
     0
 93
        1
 44
50.0
173
     0
291
     1
 45
0.0
  0
VISUALSTYLE
  5
3A
102
{ACAD_REACTORS
330
2A
102
}
102
{ACAD_XDICTIONARY
360
C8
102
}
330
2A
100
AcDbVisualStyle
  2
ColorChange
 70
    16
 71
     2
 72
     2
 73
     3
 90
        0
 40
-0.6
 41
-30.0
 62
     5
 63
     8
421
  8421504
 74
     1
 91
        4
 64
     7
 65
   257
 75
     1
175
     1
 42
1.0
 92
        8
 66
     8
424
  8421504
 43
1.0
 76
     1
 77
     6
 78
     2
 67
     7
 79
     5
170
     0
171
     0
290
     0
174
     0
 93
        1
 44
0.0
173
     0
291
     1
 45
0.0
  0
VISUALSTYLE
  5
34
102
{ACAD_REACTORS
330
2A
102
}
102
{ACAD_XDICTIONARY
360
BC
102
}
330
2A
100
AcDbVisualStyle
  2
Conceptual
 70
     9
 71
     3
 72
     2
 73
     0
 90
        0
 40
-0.6
 41
-30.0
 62
     5
 63
     7
421
 16777215
 74
     2
 91
        2
 64
     7
 65
   257
 75
     1
175
     1
 42
40.0
 92
        8
 66
     7
 43
1.0
 76
     1
 77
     6
 78
     2
 67
     7
 79
     3
170
     0
171
     0
290
     0
174
     0
 93
        1
 44
0.0
173
     0
291
     0
 45
0.0
  0
VISUALSTYLE
  5
35
102
{ACAD_REACTORS
330
2A
102
}
102
{ACAD_XDICTIONARY
360
BE
102
}
330
2A
100
AcDbVisualStyle
  2
Dim
 70
    11
 71
     2
 72
     2
 73
     0
 90
        0
 40
-0.6
 41
-30.0
 62
     5
 63
     7
421
 16777215
 74
     1
 91
        4
 64
     7
 65
   257
 75
     1
175
     1
 42
1.0
 92
        8
 66
     7
 43
1.0
 76
     1
 77
     6
 78
     2
 67
     7
 79
     5
170
     0
171
     0
290
     0
174
     0
 93
        1
 44
-50.0
173
     0
291
     1
 45
0.0
  0
VISUALSTYLE
  5
39
102
{ACAD_REACTORS
330
2A
102
}
102
{ACAD_XDICTIONARY
360
C6
102
}
330
2A
100
AcDbVisualStyle
  2
Facepattern
 70
    15
 71
     2
 72
     2
 73
     0
 90
        0
 40
-0.6
 41
-30.0
 62
     5
 63
     7
421
 16777215
 74
     1
 91
        4
 64
     7
 65
   257
 75
     1
175
     1
 42
1.0
 92
        8
 66
     7
 43
1.0
 76
     1
 77
     6
 78
     2
 67
     7
 79
     5
170
     0
171
     0
290
     0
174
     0
 93
        1
 44
0.0
173
     0
291
     1
 45
0.0
  0
VISUALSTYLE
  5
2B
102
{ACAD_REACTORS
330
2A
102
}
102
{ACAD_XDICTIONARY
360
AA
102
}
330
2A
100
AcDbVisualStyle
  2
Flat
 70
     0
 71
     2
 72
     1
 73
     1
 90
        2
 40
-0.6
 41
30.0
 62
     5
 63
     7
421
 16777215
 74
     0
 91
        4
 64
     7
 65
   257
 75
     1
175
     1
 42
1.0
 92
        8
 66
     7
 43
1.0
 76
     1
 77
     6
 78
     2
 67
     7
 79
     5
170
     0
171
     0
290
     0
174
     0
 93
       13
 44
0.0
173
     0
291
     1
 45
0.0
  0
VISUALSTYLE
  5
2C
102
{ACAD_REACTORS
330
2A
102
}
102
{ACAD_XDICTIONARY
360
AC
102
}
330
2A
100
AcDbVisualStyle
  2
FlatWithEdges
 70
     1
 71
     2
 72
     1
 73
     1
 90
        2
 40
-0.6
 41
30.0
 62
     5
 63
     7
421
 16777215
 74
     1
 91
        4
 64
     7
 65
   257
 75
     1
175
     1
 42
1.0
 92
        0
 66
   257
 43
1.0
 76
     1
 77
     6
 78
     2
 67
     7
 79
     5
170
     0
171
     0
290
     0
174
     0
 93
       13
 44
0.0
173
     0
291
     1
 45
0.0
  0
VISUALSTYLE
  5
2D
102
{ACAD_REACTORS
330
2A
102
}
102
{ACAD_XDICTIONARY
360
AE
102
}
330
2A
100
AcDbVisualStyle
  2
Gouraud
 70
     2
 71
     2
 72
     2
 73
     1
 90
        2
 40
-0.6
 41
30.0
 62
     5
 63
     7
421
 16777215
 74
     0
 91
        4
 64
     7
 65
   257
 75
     1
175
     1
 42
1.0
 92
        0
 66
     7
 43
1.0
 76
     1
 77
     6
 78
     2
 67
     7
 79
     5
170
     0
171
     0
290
     0
174
     0
 93
       13
 44
0.0
173
     0
291
     1
 45
0.0
  0
VISUALSTYLE
  5
2E
102
{ACAD_REACTORS
330
2A
102
}
102
{ACAD_XDICTIONARY
360
B0
102
}
330
2A
100
AcDbVisualStyle
  2
GouraudWithEdges
 70
     3
 71
     2
 72
     2
 73
     1
 90
        2
 40
-0.6
 41
30.0
 62
     5
 63
     7
421
 16777215
 74
     1
 91
        4
 64
     7
 65
   257
 75
     1
175
     1
 42
1.0
 92
        0
 66
   257
 43
1.0
 76
     1
 77
     6
 78
     2
 67
     7
 79
     5
170
     0
171
     0
290
     0
174
     0
 93
       13
 44
0.0
173
     0
291
     1
 45
0.0
  0
VISUALSTYLE
  5
38
102
{ACAD_REACTORS
330
2A
102
}
102
{ACAD_XDICTIONARY
360
C4
102
}
330
2A
100
AcDbVisualStyle
  2
Linepattern
 70
    14
 71
     2
 72
     2
 73
     0
 90
        0
 40
-0.6
 41
-30.0
 62
     5
 63
     7
421
 16777215
 74
     1
 91
        4
 64
     7
 65
   257
 75
     7
175
     7
 42
1.0
 92
        8
 66
     7
 43
1.0
 76
     1
 77
     6
 78
     2
 67
     7
 79
     5
170
     0
171
     0
290
     0
174
     0
 93
        1
 44
0.0
173
     0
291
     1
 45
0.0
  0
VISUALSTYLE
  5
33
102
{ACAD_REACTORS
330
2A
102
}
102
{ACAD_XDICTIONARY
360
BA
102
}
330
2A
100
AcDbVisualStyle
  2
Realistic
 70
     8
 71
     2
 72
     2
 73
     0
 90
        0
 40
-0.6
 41
-30.0
 62
     5
 63
     7
421
 16777215
 74
     1
 91
        0
 64
     7
 65
   257
 75
     1
175
     1
 42
1.0
 92
        8
 66
     8
424
  7895160
 43
1.0
 76
     1
 77
     6
 78
     2
 67
     7
 79
     5
170
     0
171
     0
290
     0
174
     0
 93
       13
 44
0.0
173
     0
291
     0
 45
0.0
  0
VISUALSTYLE
  5
37
102
{ACAD_REACTORS
330
2A
102
}
102
{ACAD_XDICTIONARY
360
C2
102
}
330
2A
100
AcDbVisualStyle
  2
Thicken
 70
    13
 71
     2
 72
     2
 73
     0
 90
        0
 40
-0.6
 41
-30.0
 62
     5
 63
     7
421
 16777215
 74
     1
 91
        4
 64
     7
 65
   257
 75
     1
175
     1
 42
1.0
 92
       12
 66
     7
 43
1.0
 76
     1
 77
     6
 78
     2
 67
     7
 79
     5
170
     0
171
     0
290
     0
174
     0
 93
        1
 44
0.0
173
     0
291
     1
 45
0.0
  0
DICTIONARY
  5
B2
330
2F
100
AcDbDictionary
280
     1
281
     1
  3
ACAD_XREC_ROUNDTRIP
360
B3
  0
DICTIONARY
  5
B6
330
31
100
AcDbDictionary
280
     1
281
     1
  3
ACAD_XREC_ROUNDTRIP
360
B7
  0
DICTIONARY
  5
B4
330
30
100
AcDbDictionary
280
     1
281
     1
  3
ACAD_XREC_ROUNDTRIP
360
B5
  0
DICTIONARY
  5
B8
330
32
100
AcDbDictionary
280
     1
281
     1
  3
ACAD_XREC_ROUNDTRIP
360
B9
  0
DICTIONARY
  5
C0
330
36
100
AcDbDictionary
280
     1
281
     1
  3
ACAD_XREC_ROUNDTRIP
360
C1
  0
DICTIONARY
  5
C8
330
3A
100
AcDbDictionary
280
     1
281
     1
  3
ACAD_XREC_ROUNDTRIP
360
C9
  0
DICTIONARY
  5
BC
330
34
100
AcDbDictionary
280
     1
281
     1
  3
ACAD_XREC_ROUNDTRIP
360
BD
  0
DICTIONARY
  5
BE
330
35
100
AcDbDictionary
280
     1
281
     1
  3
ACAD_XREC_ROUNDTRIP
360
BF
  0
DICTIONARY
  5
C6
330
39
100
AcDbDictionary
280
     1
281
     1
  3
ACAD_XREC_ROUNDTRIP
360
C7
  0
DICTIONARY
  5
AA
330
2B
100
AcDbDictionary
280
     1
281
     1
  3
ACAD_XREC_ROUNDTRIP
360
AB
  0
DICTIONARY
  5
AC
330
2C
100
AcDbDictionary
280
     1
281
     1
  3
ACAD_XREC_ROUNDTRIP
360
AD
  0
DICTIONARY
  5
AE
330
2D
100
AcDbDictionary
280
     1
281
     1
  3
ACAD_XREC_ROUNDTRIP
360
AF
  0
DICTIONARY
  5
B0
330
2E
100
AcDbDictionary
280
     1
281
     1
  3
ACAD_XREC_ROUNDTRIP
360
B1
  0
DICTIONARY
  5
C4
330
38
100
AcDbDictionary
280
     1
281
     1
  3
ACAD_XREC_ROUNDTRIP
360
C5
  0
DICTIONARY
  5
BA
330
33
100
AcDbDictionary
280
     1
281
     1
  3
ACAD_XREC_ROUNDTRIP
360
BB
  0
DICTIONARY
  5
C2
330
37
100
AcDbDictionary
280
     1
281
     1
  3
ACAD_XREC_ROUNDTRIP
360
C3
  0
XRECORD
  5
B3
102
{ACAD_REACTORS
330
B2
102
}
330
B2
100
AcDbXrecord
280
     1
102
RTVSPropertyOp0
 70
     1
102
RTVSPropertyOp1
 70
     1
102
RTVSPropertyOp2
 70
     1
102
RTVSPropertyOp3
 70
     1
102
RTVSPropertyOp4
 70
     1
102
RTVSPropertyOp5
 70
     1
102
RTVSPropertyOp6
 70
     1
102
RTVSPropertyOp7
 70
     1
102
RTVSPropertyOp8
 70
     1
102
RTVSPropertyOp9
 70
     1
102
RTVSPropertyOp10
 70
     1
102
RTVSPropertyOp11
 70
     1
102
RTVSPropertyOp12
 70
     1
102
RTVSPropertyOp13
 70
     1
102
RTVSPropertyOp14
 70
     1
102
RTVSPropertyOp15
 70
     1
102
RTVSPropertyOp16
 70
     1
102
RTVSPropertyOp17
 70
     1
102
RTVSPropertyOp18
 70
     1
102
RTVSPropertyOp19
 70
     1
102
RTVSPropertyOp20
 70
     1
102
RTVSPropertyOp21
 70
     1
102
RTVSPropertyOp22
 70
     1
102
RTVSPropertyOp23
 70
     1
102
RTVSPropertyOp24
 70
     1
102
RTVSPropertyOp25
 70
     1
102
RTVSPropertyOp26
 70
     1
102
RTVSPropertyOp27
 70
     1
102
RTVSPropertyOp28
 70
     1
102
RTVSPropertyOp29
 70
     1
102
RTVSPropertyOp30
 70
     1
102
RTVSPropertyOp31
 70
     1
102
RTVSPropertyOp32
 70
     1
  0
XRECORD
  5
B7
102
{ACAD_REACTORS
330
B6
102
}
330
B6
100
AcDbXrecord
280
     1
102
RTVSPropertyOp0
 70
     1
102
RTVSPropertyOp1
 70
     1
102
RTVSPropertyOp2
 70
     1
102
RTVSPropertyOp3
 70
     1
102
RTVSPropertyOp4
 70
     1
102
RTVSPropertyOp5
 70
     1
102
RTVSPropertyOp6
 70
     1
102
RTVSPropertyOp7
 70
     1
102
RTVSPropertyOp8
 70
     1
102
RTVSPropertyOp9
 70
     1
102
RTVSPropertyOp10
 70
     1
102
RTVSPropertyOp11
 70
     1
102
RTVSPropertyOp12
 70
     1
102
RTVSPropertyOp13
 70
     1
102
RTVSPropertyOp14
 70
     1
102
RTVSPropertyOp15
 70
     1
102
RTVSPropertyOp16
 70
     1
102
RTVSPropertyOp17
 70
     1
102
RTVSPropertyOp18
 70
     1
102
RTVSPropertyOp19
 70
     1
102
RTVSPropertyOp20
 70
     1
102
RTVSPropertyOp21
 70
     1
102
RTVSPropertyOp22
 70
     1
102
RTVSPropertyOp23
 70
     1
102
RTVSPropertyOp24
 70
     1
102
RTVSPropertyOp25
 70
     1
102
RTVSPropertyOp26
 70
     1
102
RTVSPropertyOp27
 70
     1
102
RTVSPropertyOp28
 70
     1
102
RTVSPropertyOp29
 70
     1
102
RTVSPropertyOp30
 70
     1
102
RTVSPropertyOp31
 70
     1
102
RTVSPropertyOp32
 70
     1
  0
XRECORD
  5
B5
102
{ACAD_REACTORS
330
B4
102
}
330
B4
100
AcDbXrecord
280
     1
102
RTVSPropertyOp0
 70
     1
102
RTVSPropertyOp1
 70
     1
102
RTVSPropertyOp2
 70
     1
102
RTVSPropertyOp3
 70
     1
102
RTVSPropertyOp4
 70
     1
102
RTVSPropertyOp5
 70
     1
102
RTVSPropertyOp6
 70
     1
102
RTVSPropertyOp7
 70
     1
102
RTVSPropertyOp8
 70
     1
102
RTVSPropertyOp9
 70
     1
102
RTVSPropertyOp10
 70
     1
102
RTVSPropertyOp11
 70
     1
102
RTVSPropertyOp12
 70
     1
102
RTVSPropertyOp13
 70
     1
102
RTVSPropertyOp14
 70
     1
102
RTVSPropertyOp15
 70
     1
102
RTVSPropertyOp16
 70
     1
102
RTVSPropertyOp17
 70
     1
102
RTVSPropertyOp18
 70
     1
102
RTVSPropertyOp19
 70
     1
102
RTVSPropertyOp20
 70
     1
102
RTVSPropertyOp21
 70
     1
102
RTVSPropertyOp22
 70
     1
102
RTVSPropertyOp23
 70
     1
102
RTVSPropertyOp24
 70
     1
102
RTVSPropertyOp25
 70
     1
102
RTVSPropertyOp26
 70
     1
102
RTVSPropertyOp27
 70
     1
102
RTVSPropertyOp28
 70
     1
102
RTVSPropertyOp29
 70
     1
102
RTVSPropertyOp30
 70
     1
102
RTVSPropertyOp31
 70
     1
102
RTVSPropertyOp32
 70
     1
  0
XRECORD
  5
B9
102
{ACAD_REACTORS
330
B8
102
}
330
B8
100
AcDbXrecord
280
     1
102
RTVSPropertyOp0
 70
     1
102
RTVSPropertyOp1
 70
     1
102
RTVSPropertyOp2
 70
     1
102
RTVSPropertyOp3
 70
     1
102
RTVSPropertyOp4
 70
     1
102
RTVSPropertyOp5
 70
     1
102
RTVSPropertyOp6
 70
     1
102
RTVSPropertyOp7
 70
     1
102
RTVSPropertyOp8
 70
     1
102
RTVSPropertyOp9
 70
     1
102
RTVSPropertyOp10
 70
     1
102
RTVSPropertyOp11
 70
     1
102
RTVSPropertyOp12
 70
     1
102
RTVSPropertyOp13
 70
     1
102
RTVSPropertyOp14
 70
     1
102
RTVSPropertyOp15
 70
     1
102
RTVSPropertyOp16
 70
     1
102
RTVSPropertyOp17
 70
     1
102
RTVSPropertyOp18
 70
     1
102
RTVSPropertyOp19
 70
     1
102
RTVSPropertyOp20
 70
     1
102
RTVSPropertyOp21
 70
     1
102
RTVSPropertyOp22
 70
     1
102
RTVSPropertyOp23
 70
     1
102
RTVSPropertyOp24
 70
     1
102
RTVSPropertyOp25
 70
     1
102
RTVSPropertyOp26
 70
     1
102
RTVSPropertyOp27
 70
     1
102
RTVSPropertyOp28
 70
     1
102
RTVSPropertyOp29
 70
     1
102
RTVSPropertyOp30
 70
     1
102
RTVSPropertyOp31
 70
     1
102
RTVSPropertyOp32
 70
     1
  0
XRECORD
  5
C1
102
{ACAD_REACTORS
330
C0
102
}
330
C0
100
AcDbXrecord
280
     1
102
RTVSPropertyOp0
 70
     1
102
RTVSPropertyOp1
 70
     1
102
RTVSPropertyOp2
 70
     1
102
RTVSPropertyOp3
 70
     1
102
RTVSPropertyOp4
 70
     1
102
RTVSPropertyOp5
 70
     1
102
RTVSPropertyOp6
 70
     1
102
RTVSPropertyOp7
 70
     1
102
RTVSPropertyOp8
 70
     1
102
RTVSPropertyOp9
 70
     1
102
RTVSPropertyOp10
 70
     1
102
RTVSPropertyOp11
 70
     1
102
RTVSPropertyOp12
 70
     1
102
RTVSPropertyOp13
 70
     1
102
RTVSPropertyOp14
 70
     1
102
RTVSPropertyOp15
 70
     1
102
RTVSPropertyOp16
 70
     1
102
RTVSPropertyOp17
 70
     1
102
RTVSPropertyOp18
 70
     1
102
RTVSPropertyOp19
 70
     1
102
RTVSPropertyOp20
 70
     1
102
RTVSPropertyOp21
 70
     1
102
RTVSPropertyOp22
 70
     1
102
RTVSPropertyOp23
 70
     1
102
RTVSPropertyOp24
 70
     1
102
RTVSPropertyOp25
 70
     1
102
RTVSPropertyOp26
 70
     1
102
RTVSPropertyOp27
 70
     1
102
RTVSPropertyOp28
 70
     1
102
RTVSPropertyOp29
 70
     1
102
RTVSPropertyOp30
 70
     1
102
RTVSPropertyOp31
 70
     1
102
RTVSPropertyOp32
 70
     1
  0
XRECORD
  5
C9
102
{ACAD_REACTORS
330
C8
102
}
330
C8
100
AcDbXrecord
280
     1
102
RTVSPropertyOp0
 70
     1
102
RTVSPropertyOp1
 70
     1
102
RTVSPropertyOp2
 70
     1
102
RTVSPropertyOp3
 70
     1
102
RTVSPropertyOp4
 70
     1
102
RTVSPropertyOp5
 70
     1
102
RTVSPropertyOp6
 70
     1
102
RTVSPropertyOp7
 70
     1
102
RTVSPropertyOp8
 70
     1
102
RTVSPropertyOp9
 70
     1
102
RTVSPropertyOp10
 70
     1
102
RTVSPropertyOp11
 70
     1
102
RTVSPropertyOp12
 70
     1
102
RTVSPropertyOp13
 70
     1
102
RTVSPropertyOp14
 70
     1
102
RTVSPropertyOp15
 70
     1
102
RTVSPropertyOp16
 70
     1
102
RTVSPropertyOp17
 70
     1
102
RTVSPropertyOp18
 70
     1
102
RTVSPropertyOp19
 70
     1
102
RTVSPropertyOp20
 70
     1
102
RTVSPropertyOp21
 70
     1
102
RTVSPropertyOp22
 70
     1
102
RTVSPropertyOp23
 70
     1
102
RTVSPropertyOp24
 70
     1
102
RTVSPropertyOp25
 70
     1
102
RTVSPropertyOp26
 70
     1
102
RTVSPropertyOp27
 70
     1
102
RTVSPropertyOp28
 70
     1
102
RTVSPropertyOp29
 70
     1
102
RTVSPropertyOp30
 70
     1
102
RTVSPropertyOp31
 70
     1
102
RTVSPropertyOp32
 70
     1
  0
XRECORD
  5
BD
102
{ACAD_REACTORS
330
BC
102
}
330
BC
100
AcDbXrecord
280
     1
102
RTVSPropertyOp0
 70
     1
102
RTVSPropertyOp1
 70
     1
102
RTVSPropertyOp2
 70
     1
102
RTVSPropertyOp3
 70
     1
102
RTVSPropertyOp4
 70
     1
102
RTVSPropertyOp5
 70
     1
102
RTVSPropertyOp6
 70
     1
102
RTVSPropertyOp7
 70
     1
102
RTVSPropertyOp8
 70
     1
102
RTVSPropertyOp9
 70
     1
102
RTVSPropertyOp10
 70
     1
102
RTVSPropertyOp11
 70
     1
102
RTVSPropertyOp12
 70
     1
102
RTVSPropertyOp13
 70
     1
102
RTVSPropertyOp14
 70
     1
102
RTVSPropertyOp15
 70
     1
102
RTVSPropertyOp16
 70
     1
102
RTVSPropertyOp17
 70
     1
102
RTVSPropertyOp18
 70
     1
102
RTVSPropertyOp19
 70
     1
102
RTVSPropertyOp20
 70
     1
102
RTVSPropertyOp21
 70
     1
102
RTVSPropertyOp22
 70
     1
102
RTVSPropertyOp23
 70
     1
102
RTVSPropertyOp24
 70
     1
102
RTVSPropertyOp25
 70
     1
102
RTVSPropertyOp26
 70
     1
102
RTVSPropertyOp27
 70
     1
102
RTVSPropertyOp28
 70
     1
102
RTVSPropertyOp29
 70
     1
102
RTVSPropertyOp30
 70
     1
102
RTVSPropertyOp31
 70
     1
102
RTVSPropertyOp32
 70
     1
  0
XRECORD
  5
BF
102
{ACAD_REACTORS
330
BE
102
}
330
BE
100
AcDbXrecord
280
     1
102
RTVSPropertyOp0
 70
     1
102
RTVSPropertyOp1
 70
     1
102
RTVSPropertyOp2
 70
     1
102
RTVSPropertyOp3
 70
     1
102
RTVSPropertyOp4
 70
     1
102
RTVSPropertyOp5
 70
     1
102
RTVSPropertyOp6
 70
     1
102
RTVSPropertyOp7
 70
     1
102
RTVSPropertyOp8
 70
     1
102
RTVSPropertyOp9
 70
     1
102
RTVSPropertyOp10
 70
     1
102
RTVSPropertyOp11
 70
     1
102
RTVSPropertyOp12
 70
     1
102
RTVSPropertyOp13
 70
     1
102
RTVSPropertyOp14
 70
     1
102
RTVSPropertyOp15
 70
     1
102
RTVSPropertyOp16
 70
     1
102
RTVSPropertyOp17
 70
     1
102
RTVSPropertyOp18
 70
     1
102
RTVSPropertyOp19
 70
     1
102
RTVSPropertyOp20
 70
     1
102
RTVSPropertyOp21
 70
     1
102
RTVSPropertyOp22
 70
     1
102
RTVSPropertyOp23
 70
     1
102
RTVSPropertyOp24
 70
     1
102
RTVSPropertyOp25
 70
     1
102
RTVSPropertyOp26
 70
     1
102
RTVSPropertyOp27
 70
     1
102
RTVSPropertyOp28
 70
     1
102
RTVSPropertyOp29
 70
     1
102
RTVSPropertyOp30
 70
     1
102
RTVSPropertyOp31
 70
     1
102
RTVSPropertyOp32
 70
     1
  0
XRECORD
  5
C7
102
{ACAD_REACTORS
330
C6
102
}
330
C6
100
AcDbXrecord
280
     1
102
RTVSPropertyOp0
 70
     1
102
RTVSPropertyOp1
 70
     1
102
RTVSPropertyOp2
 70
     1
102
RTVSPropertyOp3
 70
     1
102
RTVSPropertyOp4
 70
     1
102
RTVSPropertyOp5
 70
     1
102
RTVSPropertyOp6
 70
     1
102
RTVSPropertyOp7
 70
     1
102
RTVSPropertyOp8
 70
     1
102
RTVSPropertyOp9
 70
     1
102
RTVSPropertyOp10
 70
     1
102
RTVSPropertyOp11
 70
     1
102
RTVSPropertyOp12
 70
     1
102
RTVSPropertyOp13
 70
     1
102
RTVSPropertyOp14
 70
     1
102
RTVSPropertyOp15
 70
     1
102
RTVSPropertyOp16
 70
     1
102
RTVSPropertyOp17
 70
     1
102
RTVSPropertyOp18
 70
     1
102
RTVSPropertyOp19
 70
     1
102
RTVSPropertyOp20
 70
     1
102
RTVSPropertyOp21
 70
     1
102
RTVSPropertyOp22
 70
     1
102
RTVSPropertyOp23
 70
     1
102
RTVSPropertyOp24
 70
     1
102
RTVSPropertyOp25
 70
     1
102
RTVSPropertyOp26
 70
     1
102
RTVSPropertyOp27
 70
     1
102
RTVSPropertyOp28
 70
     1
102
RTVSPropertyOp29
 70
     1
102
RTVSPropertyOp30
 70
     1
102
RTVSPropertyOp31
 70
     1
102
RTVSPropertyOp32
 70
     1
  0
XRECORD
  5
AB
102
{ACAD_REACTORS
330
AA
102
}
330
AA
100
AcDbXrecord
280
     1
102
RTVSPropertyOp0
 70
     1
102
RTVSPropertyOp1
 70
     1
102
RTVSPropertyOp2
 70
     1
102
RTVSPropertyOp3
 70
     1
102
RTVSPropertyOp4
 70
     1
102
RTVSPropertyOp5
 70
     1
102
RTVSPropertyOp6
 70
     1
102
RTVSPropertyOp7
 70
     1
102
RTVSPropertyOp8
 70
     1
102
RTVSPropertyOp9
 70
     1
102
RTVSPropertyOp10
 70
     1
102
RTVSPropertyOp11
 70
     1
102
RTVSPropertyOp12
 70
     1
102
RTVSPropertyOp13
 70
     1
102
RTVSPropertyOp14
 70
     1
102
RTVSPropertyOp15
 70
     1
102
RTVSPropertyOp16
 70
     1
102
RTVSPropertyOp17
 70
     1
102
RTVSPropertyOp18
 70
     1
102
RTVSPropertyOp19
 70
     1
102
RTVSPropertyOp20
 70
     1
102
RTVSPropertyOp21
 70
     1
102
RTVSPropertyOp22
 70
     1
102
RTVSPropertyOp23
 70
     1
102
RTVSPropertyOp24
 70
     1
102
RTVSPropertyOp25
 70
     1
102
RTVSPropertyOp26
 70
     1
102
RTVSPropertyOp27
 70
     1
102
RTVSPropertyOp28
 70
     1
102
RTVSPropertyOp29
 70
     1
102
RTVSPropertyOp30
 70
     1
102
RTVSPropertyOp31
 70
     1
102
RTVSPropertyOp32
 70
     1
  0
XRECORD
  5
AD
102
{ACAD_REACTORS
330
AC
102
}
330
AC
100
AcDbXrecord
280
     1
102
RTVSPropertyOp0
 70
     1
102
RTVSPropertyOp1
 70
     1
102
RTVSPropertyOp2
 70
     1
102
RTVSPropertyOp3
 70
     1
102
RTVSPropertyOp4
 70
     1
102
RTVSPropertyOp5
 70
     1
102
RTVSPropertyOp6
 70
     1
102
RTVSPropertyOp7
 70
     1
102
RTVSPropertyOp8
 70
     1
102
RTVSPropertyOp9
 70
     1
102
RTVSPropertyOp10
 70
     1
102
RTVSPropertyOp11
 70
     1
102
RTVSPropertyOp12
 70
     1
102
RTVSPropertyOp13
 70
     1
102
RTVSPropertyOp14
 70
     1
102
RTVSPropertyOp15
 70
     1
102
RTVSPropertyOp16
 70
     1
102
RTVSPropertyOp17
 70
     1
102
RTVSPropertyOp18
 70
     1
102
RTVSPropertyOp19
 70
     1
102
RTVSPropertyOp20
 70
     1
102
RTVSPropertyOp21
 70
     1
102
RTVSPropertyOp22
 70
     1
102
RTVSPropertyOp23
 70
     1
102
RTVSPropertyOp24
 70
     1
102
RTVSPropertyOp25
 70
     1
102
RTVSPropertyOp26
 70
     1
102
RTVSPropertyOp27
 70
     1
102
RTVSPropertyOp28
 70
     1
102
RTVSPropertyOp29
 70
     1
102
RTVSPropertyOp30
 70
     1
102
RTVSPropertyOp31
 70
     1
102
RTVSPropertyOp32
 70
     1
  0
XRECORD
  5
AF
102
{ACAD_REACTORS
330
AE
102
}
330
AE
100
AcDbXrecord
280
     1
102
RTVSPropertyOp0
 70
     1
102
RTVSPropertyOp1
 70
     1
102
RTVSPropertyOp2
 70
     1
102
RTVSPropertyOp3
 70
     1
102
RTVSPropertyOp4
 70
     1
102
RTVSPropertyOp5
 70
     1
102
RTVSPropertyOp6
 70
     1
102
RTVSPropertyOp7
 70
     1
102
RTVSPropertyOp8
 70
     1
102
RTVSPropertyOp9
 70
     1
102
RTVSPropertyOp10
 70
     1
102
RTVSPropertyOp11
 70
     1
102
RTVSPropertyOp12
 70
     1
102
RTVSPropertyOp13
 70
     1
102
RTVSPropertyOp14
 70
     1
102
RTVSPropertyOp15
 70
     1
102
RTVSPropertyOp16
 70
     1
102
RTVSPropertyOp17
 70
     1
102
RTVSPropertyOp18
 70
     1
102
RTVSPropertyOp19
 70
     1
102
RTVSPropertyOp20
 70
     1
102
RTVSPropertyOp21
 70
     1
102
RTVSPropertyOp22
 70
     1
102
RTVSPropertyOp23
 70
     1
102
RTVSPropertyOp24
 70
     1
102
RTVSPropertyOp25
 70
     1
102
RTVSPropertyOp26
 70
     1
102
RTVSPropertyOp27
 70
     1
102
RTVSPropertyOp28
 70
     1
102
RTVSPropertyOp29
 70
     1
102
RTVSPropertyOp30
 70
     1
102
RTVSPropertyOp31
 70
     1
102
RTVSPropertyOp32
 70
     1
  0
XRECORD
  5
B1
102
{ACAD_REACTORS
330
B0
102
}
330
B0
100
AcDbXrecord
280
     1
102
RTVSPropertyOp0
 70
     1
102
RTVSPropertyOp1
 70
     1
102
RTVSPropertyOp2
 70
     1
102
RTVSPropertyOp3
 70
     1
102
RTVSPropertyOp4
 70
     1
102
RTVSPropertyOp5
 70
     1
102
RTVSPropertyOp6
 70
     1
102
RTVSPropertyOp7
 70
     1
102
RTVSPropertyOp8
 70
     1
102
RTVSPropertyOp9
 70
     1
102
RTVSPropertyOp10
 70
     1
102
RTVSPropertyOp11
 70
     1
102
RTVSPropertyOp12
 70
     1
102
RTVSPropertyOp13
 70
     1
102
RTVSPropertyOp14
 70
     1
102
RTVSPropertyOp15
 70
     1
102
RTVSPropertyOp16
 70
     1
102
RTVSPropertyOp17
 70
     1
102
RTVSPropertyOp18
 70
     1
102
RTVSPropertyOp19
 70
     1
102
RTVSPropertyOp20
 70
     1
102
RTVSPropertyOp21
 70
     1
102
RTVSPropertyOp22
 70
     1
102
RTVSPropertyOp23
 70
     1
102
RTVSPropertyOp24
 70
     1
102
RTVSPropertyOp25
 70
     1
102
RTVSPropertyOp26
 70
     1
102
RTVSPropertyOp27
 70
     1
102
RTVSPropertyOp28
 70
     1
102
RTVSPropertyOp29
 70
     1
102
RTVSPropertyOp30
 70
     1
102
RTVSPropertyOp31
 70
     1
102
RTVSPropertyOp32
 70
     1
  0
XRECORD
  5
C5
102
{ACAD_REACTORS
330
C4
102
}
330
C4
100
AcDbXrecord
280
     1
102
RTVSPropertyOp0
 70
     1
102
RTVSPropertyOp1
 70
     1
102
RTVSPropertyOp2
 70
     1
102
RTVSPropertyOp3
 70
     1
102
RTVSPropertyOp4
 70
     1
102
RTVSPropertyOp5
 70
     1
102
RTVSPropertyOp6
 70
     1
102
RTVSPropertyOp7
 70
     1
102
RTVSPropertyOp8
 70
     1
102
RTVSPropertyOp9
 70
     1
102
RTVSPropertyOp10
 70
     1
102
RTVSPropertyOp11
 70
     1
102
RTVSPropertyOp12
 70
     1
102
RTVSPropertyOp13
 70
     1
102
RTVSPropertyOp14
 70
     1
102
RTVSPropertyOp15
 70
     1
102
RTVSPropertyOp16
 70
     1
102
RTVSPropertyOp17
 70
     1
102
RTVSPropertyOp18
 70
     1
102
RTVSPropertyOp19
 70
     1
102
RTVSPropertyOp20
 70
     1
102
RTVSPropertyOp21
 70
     1
102
RTVSPropertyOp22
 70
     1
102
RTVSPropertyOp23
 70
     1
102
RTVSPropertyOp24
 70
     1
102
RTVSPropertyOp25
 70
     1
102
RTVSPropertyOp26
 70
     1
102
RTVSPropertyOp27
 70
     1
102
RTVSPropertyOp28
 70
     1
102
RTVSPropertyOp29
 70
     1
102
RTVSPropertyOp30
 70
     1
102
RTVSPropertyOp31
 70
     1
102
RTVSPropertyOp32
 70
     1
  0
XRECORD
  5
BB
102
{ACAD_REACTORS
330
BA
102
}
330
BA
100
AcDbXrecord
280
     1
102
RTVSPropertyOp0
 70
     1
102
RTVSPropertyOp1
 70
     1
102
RTVSPropertyOp2
 70
     1
102
RTVSPropertyOp3
 70
     1
102
RTVSPropertyOp4
 70
     1
102
RTVSPropertyOp5
 70
     1
102
RTVSPropertyOp6
 70
     1
102
RTVSPropertyOp7
 70
     1
102
RTVSPropertyOp8
 70
     1
102
RTVSPropertyOp9
 70
     1
102
RTVSPropertyOp10
 70
     1
102
RTVSPropertyOp11
 70
     1
102
RTVSPropertyOp12
 70
     1
102
RTVSPropertyOp13
 70
     1
102
RTVSPropertyOp14
 70
     1
102
RTVSPropertyOp15
 70
     1
102
RTVSPropertyOp16
 70
     1
102
RTVSPropertyOp17
 70
     1
102
RTVSPropertyOp18
 70
     1
102
RTVSPropertyOp19
 70
     1
102
RTVSPropertyOp20
 70
     1
102
RTVSPropertyOp21
 70
     1
102
RTVSPropertyOp22
 70
     1
102
RTVSPropertyOp23
 70
     1
102
RTVSPropertyOp24
 70
     1
102
RTVSPropertyOp25
 70
     1
102
RTVSPropertyOp26
 70
     1
102
RTVSPropertyOp27
 70
     1
102
RTVSPropertyOp28
 70
     1
102
RTVSPropertyOp29
 70
     1
102
RTVSPropertyOp30
 70
     1
102
RTVSPropertyOp31
 70
     1
102
RTVSPropertyOp32
 70
     1
  0
XRECORD
  5
C3
102
{ACAD_REACTORS
330
C2
102
}
330
C2
100
AcDbXrecord
280
     1
102
RTVSPropertyOp0
 70
     1
102
RTVSPropertyOp1
 70
     1
102
RTVSPropertyOp2
 70
     1
102
RTVSPropertyOp3
 70
     1
102
RTVSPropertyOp4
 70
     1
102
RTVSPropertyOp5
 70
     1
102
RTVSPropertyOp6
 70
     1
102
RTVSPropertyOp7
 70
     1
102
RTVSPropertyOp8
 70
     1
102
RTVSPropertyOp9
 70
     1
102
RTVSPropertyOp10
 70
     1
102
RTVSPropertyOp11
 70
     1
102
RTVSPropertyOp12
 70
     1
102
RTVSPropertyOp13
 70
     1
102
RTVSPropertyOp14
 70
     1
102
RTVSPropertyOp15
 70
     1
102
RTVSPropertyOp16
 70
     1
102
RTVSPropertyOp17
 70
     1
102
RTVSPropertyOp18
 70
     1
102
RTVSPropertyOp19
 70
     1
102
RTVSPropertyOp20
 70
     1
102
RTVSPropertyOp21
 70
     1
102
RTVSPropertyOp22
 70
     1
102
RTVSPropertyOp23
 70
     1
102
RTVSPropertyOp24
 70
     1
102
RTVSPropertyOp25
 70
     1
102
RTVSPropertyOp26
 70
     1
102
RTVSPropertyOp27
 70
     1
102
RTVSPropertyOp28
 70
     1
102
RTVSPropertyOp29
 70
     1
102
RTVSPropertyOp30
 70
     1
102
RTVSPropertyOp31
 70
     1
102
RTVSPropertyOp32
 70
     1
  0
ENDSEC
  0
EOF
